<?xml version="1.0" encoding="utf-8"?>
<!-- Generator: Adobe Illustrator 24.3.0, SVG Export Plug-In . SVG Version: 6.00 Build 0)  -->
<svg version="1.1" id="Layer_1" xmlns="http://www.w3.org/2000/svg" xmlns:xlink="http://www.w3.org/1999/xlink" x="0px" y="0px"
	 viewBox="0 0 512 512" style="enable-background:new 0 0 512 512;" xml:space="preserve">
<style type="text/css">
	.st0{fill-rule:evenodd;clip-rule:evenodd;fill:#F4F5F7;}
	.st1{fill-rule:evenodd;clip-rule:evenodd;fill:#C7CBD6;}
	.st2{fill-rule:evenodd;clip-rule:evenodd;fill:#4B5267;}
	.st3{fill:#312C2C;}
	.st4{fill:#CDD1F9;}
	.st5{fill:#B6BCEF;}
	.st6{fill:#7C80C1;}
	.st7{fill:#424699;}
	.st8{fill:#5562AD;}
	.st9{fill:#252F8C;}
	.st10{fill:#241A22;}
	.st11{fill:#5354A6;}
	.st12{fill:#F9B46F;}
	.st13{fill:#F99B39;}
	.st14{fill:#FFFFFF;}
</style>
<g>
	<path class="st0" d="M389.5,308.1c49.3-7.1,85.9-49.4,86-99.3c0-55.5-44.9-100.5-100.3-100.5c-13,0-25.8,2.6-37.8,7.5
		C325.8,94.1,306,78,282.5,71c-42.5-12.7-87.3,6.8-107.6,44.8c-12-5-24.8-7.5-37.8-7.5c-55.4,0-100.3,45-100.3,100.5
		c0.1,49.9,36.7,92.2,86,99.3v116.1c15.5,13.4,80.5,20.8,133.3,20.8s117.8-7.4,133.3-20.8L389.5,308.1L389.5,308.1z"/>
	<path class="st1" d="M332,220.9c13.4-33.4,17.7-48,15.5-79.4c58.7-15.7,81.1,28,73.9,58.3C414.4,229.6,380.8,253.1,332,220.9z
		 M258.5,67.2c-20.6-0.5-40.8,5.9-57.4,18.3c50.8-13.6,90.8,35.6,60,88.2c-24,41-116,47.8-100.5-20.3c-17.4,9.2-26.3,34.2-24.6,58.6
		c1.7,25,17.3,31.9,33.6,28.7c65.5-13,173.8-34.6,173.8,60.3v123.3h46.1V308.1c49.3-7.1,85.9-49.4,86-99.3
		c0-55.5-44.9-100.5-100.3-100.5c-10.4,0-20.7,1.7-30.6,4.9c-2.4,0.8-4.8,1.6-7.2,2.5C325.8,94.1,306,78,282.5,71
		C274.7,68.7,266.7,67.4,258.5,67.2L258.5,67.2z"/>
	<path class="st1" d="M256.1,403.4c-52.8,0-117.8,7.4-133.3,20.8c15.5,13.4,80.5,20.8,133.3,20.8c52.9,0,117.9-7.4,133.3-20.8
		C374,410.7,309,403.4,256.1,403.4z"/>
	<g>
		<path class="st2" d="M256.1,409.8c26.1,0,55.4,1.8,79.8,5.3c12.2,1.8,23.3,3.7,31.9,6.4c8.2,2.5,5.4,3.9,0,5.4
			c-8.7,2.4-19.7,4.6-31.9,6.3c-24.4,3.5-53.7,5.3-79.8,5.3c-26.1,0-55.4-1.9-79.7-5.3c-12.2-1.7-23.2-3.9-31.9-6.3
			c-6.2-1.9-4.7-3.3,0-5.4c8.7-2.5,19.7-4.6,31.9-6.4C200.8,411.6,230,409.8,256.1,409.8L256.1,409.8z M256,73.6
			c8.2,0,16.5,1.2,24.7,3.6c21.1,6.3,39,20.4,49.9,39.6l2,3.9c9,17.7,12,38.5,7,59.2c-2.1,8.5,10.6,11.5,12.6,3
			c5.3-22,2.8-44.1-5.8-63.4c9.3-3.1,19.1-4.7,28.9-4.7c51.9,0,93.9,42,93.9,94c0,43.8-30.4,81.8-73.1,91.5v-29.4
			c0-3.6-2.9-6.5-6.4-6.5c-3.6,0-6.5,2.9-6.5,6.4l0,0V413c-3.8-1.6-7.7-2.9-11.7-4c-9.5-2.7-21-4.9-33.6-6.7
			c-25.2-3.6-54.9-5.4-81.6-5.4s-56.4,1.8-81.6,5.4c-12.6,1.8-24.1,4-33.6,6.7c-4.4,1.2-8.2,2.5-11.7,4V270.9
			c0.1-3.5-2.8-6.5-6.3-6.5c-0.1,0-0.1,0-0.2,0c-3.6,0.1-6.4,3-6.4,6.5v29.4c-42.7-9.7-73.1-47.6-73.1-91.5c0-52,41.9-94,93.9-94
			c9.8,0,19.5,1.6,28.8,4.7c-1,2.3-1.9,4.6-2.8,7c-3,8.2,9.4,12.7,12.2,4.3C187.4,96.5,219.7,73.6,256,73.6z M256,60.7
			c-34.3,0.1-66.1,18-84,47.2c-11.2-3.9-23-6-34.9-6c-58.9,0-106.8,48-106.8,106.9c0.1,51,36.6,93.8,86,103.8v111.6
			c-0.1,2.8,1.9,4.9,4.3,6.4c5.5,3.3,11.9,6.4,20.3,8.8c9.5,2.7,21,4.9,33.6,6.7c25.2,3.6,54.8,5.4,81.6,5.4
			c26.7,0,56.4-1.9,81.6-5.4c12.6-1.8,24-4,33.6-6.7c8.7-2.5,15.5-5.6,21-9.2c2.8-1.8,3.6-3.5,3.6-5.9V312.6
			c49.5-10,85.9-52.8,86-103.9c0-59-47.8-106.9-106.8-106.9c-11.9,0-23.7,2.2-35,6.1c-12.3-20.1-31.7-35.9-55.8-43.1
			C275.2,62.1,265.6,60.7,256,60.7z"/>
		<path class="st2" d="M256.1,222.3c-26.3,0-53.3,3.3-77.2,9c-3.5,0.7-5.8,4.1-5.1,7.6s4.1,5.8,7.6,5.1c0.1,0,0.3-0.1,0.4-0.1
			c22.9-5.5,49-8.7,74.3-8.7s51.4,3.2,74.3,8.7c3.5,0.8,6.9-1.3,7.8-4.8c0.8-3.5-1.3-6.9-4.8-7.8l0,0
			C309.5,225.6,282.5,222.3,256.1,222.3z"/>
	</g>
</g>
<g>
	<path class="st3" d="M273.2,355.1l-11.1-6.2c-0.3-0.2-0.6-0.5-0.6-0.9l-0.5-6.4c-0.1-0.7,0.4-1.2,1.1-1.3c0.7-0.1,1.2,0.4,1.3,1.1
		l0.5,5.8l10.5,5.9c0.6,0.3,0.8,1,0.5,1.6C274.5,355.2,273.8,355.4,273.2,355.1C273.2,355.1,273.2,355.1,273.2,355.1L273.2,355.1z"
		/>
	<path class="st3" d="M282.4,360.5c-1.2-6.4-8.1-5.4-8.4-5.3c-0.6,0.1-1.2-0.3-1.3-1c-0.1-0.6,0.3-1.2,1-1.3l0,0
		c3.3-0.5,9.8,0.3,11.1,7.2c0.1,0.6-0.3,1.3-0.9,1.4C283.1,361.6,282.5,361.1,282.4,360.5z"/>
	<path class="st3" d="M275,366.4c-0.5-0.4-0.6-1.1-0.2-1.6c3.9-5.2-1.5-9.6-1.8-9.8c-0.5-0.4-0.6-1.1-0.2-1.6
		c0.4-0.5,1.1-0.6,1.6-0.2c2.6,2.1,6.4,7.5,2.2,13C276.3,366.7,275.5,366.8,275,366.4L275,366.4z"/>
	<path class="st3" d="M268.8,357.8c-0.5-0.4-0.5-1.2-0.1-1.7c1.9-2.2,4.5-3.1,4.6-3.2c0.6-0.2,1.3,0.1,1.5,0.7
		c0.2,0.6-0.1,1.3-0.7,1.5c-0.1,0-2.2,0.8-3.7,2.5C270.1,358.2,269.3,358.2,268.8,357.8L268.8,357.8z M275.9,341.5l-1.5-6.3
		c-0.2-0.6,0.2-1.3,0.8-1.4c0.6-0.2,1.3,0.2,1.4,0.8l0,0l1.4,5.6l11.4,4c0.6,0.2,0.9,0.9,0.7,1.5c-0.2,0.6-0.9,0.9-1.5,0.7l-12-4.2
		C276.3,342.2,276,341.8,275.9,341.5z"/>
	<path class="st3" d="M287.9,345.7c-0.2-0.6,0.1-1.3,0.8-1.5c3.2-1,9.7-1.3,12.1,5.3c0.2,0.6-0.1,1.3-0.7,1.5
		c-0.6,0.2-1.3-0.1-1.5-0.7c-2.2-6.1-8.9-4-9.2-3.9C288.7,346.7,288.1,346.3,287.9,345.7z"/>
	<path class="st3" d="M292.2,357.3L292.2,357.3c-0.6-0.3-0.8-1-0.5-1.6c3-5.7-3-9.2-3.3-9.4c-0.6-0.3-0.7-1-0.4-1.6
		c0.3-0.6,1-0.8,1.6-0.5l0,0c2.9,1.6,7.5,6.4,4.2,12.5C293.5,357.4,292.8,357.6,292.2,357.3L292.2,357.3z"/>
	<path class="st3" d="M283.2,348.6c-0.4-0.5-0.4-1.2,0.1-1.6l0,0c2.3-2.1,5.4-2.7,5.5-2.7c0.6-0.1,1.3,0.3,1.4,0.9
		c0.1,0.6-0.3,1.3-0.9,1.4c0,0-2.5,0.5-4.4,2.2C284.3,349.1,283.6,349.1,283.2,348.6L283.2,348.6L283.2,348.6z"/>
	<path class="st4" d="M297.3,315.8c-9.7,20.4-30.4,33.8-66.1,29.5l0,0l-30,21.8l-17.1-7.4l45-21.5c27.6-36.9,47.1-39.5,47.2-39.6
		c2.2-6.2,6.4-7.9,6.4-7.9L281,284c19.5-3.7,25.7,7.3,25.8,7.3l2.6,2.3l-1.9,5.3c0,0-4.6,2.5-6.9,8.7C300,309.1,299,312,297.3,315.8
		L297.3,315.8z"/>
	<path class="st5" d="M297.3,315.8c-9.7,20.5-30.6,33.8-66.1,29.5l0,0l-30,21.8l-17.1-7.4l6.1-2.9l12.9,5.5l30-21.8l0,0
		c35.5,4.4,56.4-9,66.1-29.5c0.2-0.3,0.3-0.7,0.5-1C299.1,311.6,298.3,313.5,297.3,315.8L297.3,315.8z M302.4,303
		c2-5.3,5.6-7.9,6.7-8.6l-1.6,4.5c0,0-3.4,1.8-5.9,6.4C301.9,304.4,302.2,303.5,302.4,303L302.4,303z"/>
	<path class="st6" d="M307.3,291.8c-0.4,0.7-0.8,1.2-1.8,1.4c-1.2,0.2-2.3-0.3-3.3-1c-1-0.6-1.8-1.5-2.9-2c-1-0.6-2.3-0.8-3.3-0.3
		c-0.3,0.1-0.6,0.4-0.8,0.6c-1.3,1.2-2,2.9-2.1,4.6c-0.4,6.2-0.7,8.1-6,11.9c-4.4,3.2-9.1,6-14.3,7.5c-5.2,1.5-10.9,1.7-15.9-0.4
		c-2.1-0.9-2.3-1.8-2-3.4c0-0.1,0-0.3,0.1-0.4c13.1-10.7,21.3-11.8,21.3-11.8c2.2-6.2,6.4-7.9,6.4-7.9L281,284
		c19.6-3.8,25.7,7.3,25.8,7.3L307.3,291.8L307.3,291.8z"/>
	<path class="st5" d="M307.3,291.8c-0.4,0.7-0.8,1.2-1.8,1.4c-1.2,0.2-2.3-0.3-3.3-1c-1.4-0.9-3.9-3.4-6.2-2.3
		c-0.3,0.1-0.6,0.4-0.8,0.6c-3.5,3.3-1.3,7.5-3.5,11.8c-1,2-2.8,3.4-4.6,4.7c-4.4,3.2-9.1,6-14.3,7.5c-5.2,1.5-10.9,1.7-15.9-0.4
		c-2.2-0.9-2.3-1.8-2-3.4c0-0.1,0-0.3,0.1-0.4c0.1-0.1,0.2-0.1,0.3-0.2c0.3,0.3,0.8,0.5,1.2,0.6c5,2,10.7,1.9,15.9,0.4
		c5.2-1.5,9.9-4.3,14.3-7.5c5.1-3.6,5.6-5.6,6-11.9c0.1-1.7,0.9-3.4,2.1-4.6c0.3-0.3,0.6-0.5,0.8-0.6c1-0.5,2.3-0.3,3.3,0.3
		c1.9,1,3.7,3.3,6.1,3c0.2,0,0.3-0.1,0.4-0.1c0.9,1,1.2,1.7,1.2,1.7l0.4,0.4L307.3,291.8z"/>
	<path class="st7" d="M286.7,290.9l0,0.2c0,0-4.6,2.2-5.2,2.5c-2.7,1.8-4.5,4.5-5.6,7.5c0,0-8,1.1-21,11.6c-0.3-0.6-0.2-1.3,0-2
		c0-0.1,0-0.3,0.1-0.4c13.2-10.6,21.3-11.8,21.3-11.8c1.3-3.5,3.5-6.1,5.6-7.4c0,0,0,0,0.1,0C283.5,290,285.1,290.4,286.7,290.9
		L286.7,290.9z M307.3,291.8c-0.4,0.5-0.7,1-1.4,1.2c-3.1-4-9.1-7.3-17.6-7.3c-2.3,0-4.5,0.2-6.7,0.6l-0.6-2.4
		c0.7-0.1,1.4-0.2,2.1-0.3c18-2.6,23.6,7.6,23.7,7.7L307.3,291.8L307.3,291.8z"/>
	<path class="st6" d="M271.4,322.8l-40.2,22.5l0,0l-30,21.8l-17.1-7.4l45-21.5c7.7-10.3,14.8-17.9,21-23.6L271.4,322.8z"/>
	<path class="st8" d="M271.4,322.8l-2.6,1.4l-16-6.1c-6.2,5.7-4.8,9.2-12.5,19.5l-50.9,24.4l-5.3-2.3l45-21.5
		c7.7-10.3,14.8-17.9,21-23.6L271.4,322.8z"/>
	<path class="st9" d="M201.8,366.6l-0.6,0.4l-11.6-9.9l0.6-0.3L201.8,366.6z M205.3,364l-0.5,0.4l-10.9-9.4l0.6-0.3L205.3,364z
		 M208.9,361.4l-0.6,0.4L198,353l0.7-0.3L208.9,361.4z M212.4,358.8l-0.6,0.4l-9.6-8.3l0.6-0.3L212.4,358.8z M216,356.2l-0.5,0.4
		l-8.9-7.7l0.6-0.3L216,356.2z M219.5,353.7L219,354l-8.3-7.1l0.6-0.3L219.5,353.7z M223.1,351.1l-0.6,0.4l-7.6-6.6l0.6-0.3
		L223.1,351.1z M226.6,348.5l-0.5,0.4l-7-6l0.6-0.3L226.6,348.5z M230.2,345.9l-0.6,0.4l-6.3-5.4l0.6-0.3L230.2,345.9z M234.1,343.6
		l-0.6,0.3l-5.9-5.1l0.6-0.3L234.1,343.6z M238,341.4l-0.6,0.3l-6.7-5.8c0.1-0.2,0.3-0.3,0.4-0.5L238,341.4z"/>
	<path class="st10" d="M303.3,296c2.5-0.6,4.3-1,6-2.4c0,0,5.5-0.2,8,4l-9.9,1.3C306.5,297.6,305.3,296.4,303.3,296L303.3,296z"/>
	<path class="st11" d="M274.6,328.5c-10.2,7.7-26.6,12.4-52.8,8.8c20.1-17.1,40-36.5,54-38.7C288.8,306.9,286,319.9,274.6,328.5z"/>
	<path class="st7" d="M274.6,328.5c-10.2,7.7-26.6,12.4-52.8,8.8c2.7-2.3,5.4-4.7,8.2-7c22.7,2.2,37.4-2.4,46.9-9.5
		c3.3-2.5,5.8-5.3,7.5-8.3C284.3,318.2,280.6,324,274.6,328.5z"/>
	<path class="st10" d="M293.5,322.4c-1.9-4.5,1.6-9.1,0.9-16.7c-0.3-2.9-1.3-5.8-3.3-8c-2.5-2.7-5.5-3.5-8.5-7.3l-1.7-6.4
		c0.7-0.1,1.4-0.2,2.1-0.3c0.4,6.6,8.3,7.7,11.8,12.2c3.3,4.1,2.6,9.9,2.4,20C296.3,317.8,295.1,320.1,293.5,322.4L293.5,322.4z"/>
	<path class="st10" d="M291.1,295.4c0-0.3,0.2-0.5,0.5-0.4l0,0l18.6,0.3c0.3,0,0.5,0.2,0.4,0.5c0,0.2-0.2,0.4-0.5,0.4l-18.6-0.3
		C291.3,295.9,291.1,295.7,291.1,295.4L291.1,295.4L291.1,295.4z"/>
	<ellipse class="st10" cx="300.6" cy="295.4" rx="2.2" ry="2.2"/>
	<circle class="st12" cx="300.6" cy="295.4" r="1.4"/>
	<path class="st13" d="M301.8,296.1c-0.4,0.7-1.2,1-1.9,0.6c-1.2-0.6-0.9-2.2,0.2-2.6C299.6,295.2,300.7,296.4,301.8,296.1
		C301.9,296,301.9,296.1,301.8,296.1z"/>
	<ellipse class="st3" cx="300.6" cy="295.4" rx="0.8" ry="0.8"/>
	<path class="st14" d="M300.5,295.2c-0.3-0.2-0.1-0.7,0.3-0.5C301.1,294.9,300.8,295.4,300.5,295.2z"/>
	<path class="st9" d="M272.4,311c-0.2,0.1-0.6,0.5-1.3,0.8c-2.4,0.8-4.2-1.5-3.2-4.1c0.3-0.6,0.6-0.9,0.6-0.9c0,0.1-1,5.6,3.5,4.4
		L272.4,311z M259,314.3c-0.1,0-0.5,0.2-1.2,0c-0.7-0.1-1.7-0.7-2.1-1.8c-0.4-1,0-1.8,0.2-2.3c0.3-0.5,0.6-0.6,0.6-0.6
		s-0.1,0.3-0.1,0.7c-0.1,1.4,0.4,2.7,1.6,3.4C258.5,314.2,259,314.3,259,314.3L259,314.3z M279,311.3c0,0-0.1,0.1-0.3,0.3
		c-2.4,2.4-5.3,0.3-4.5-2.9c0.2-0.6,0.4-0.9,0.4-0.9c0.1,0.1-0.1,5.7,4.1,3.7L279,311.3z M275,304.7c0,0-0.1,0.1-0.3,0.3
		c-2.4,2.4-5.3,0.3-4.5-2.9c0.2-0.6,0.4-0.9,0.4-0.9s0,0.4,0.1,1c0.4,2.7,1.6,3.9,4,2.7L275,304.7L275,304.7z M283,317.8
		c-0.1,0.1-1.2,1.6-2.8,1.3c-1.4-0.2-2.6-1.7-2.1-3.9c0.2-0.6,0.4-0.9,0.4-0.9c0.1,0.1-0.1,5.7,4.1,3.7L283,317.8L283,317.8z
		 M272.2,317.4c0,0-0.1,0.1-0.3,0.4c-1.7,2-3.8,1.8-4.9,0.4c-0.7-0.9-1-2.1-0.9-3.3c0.1-0.8,0.3-1.1,0.3-1.1
		c0.1,0.6,0.2,2.5,1.3,3.8c0.4,0.4,0.9,0.8,1.4,0.9c0.5,0.1,1.1,0,1.6-0.2C271.5,317.9,272,317.5,272.2,317.4L272.2,317.4z
		 M281.8,308.9c0,0-0.1,0.1-0.3,0.2c-2.8,1.8-5.3-0.9-3.8-3.9c0.3-0.6,0.6-0.8,0.6-0.8s-0.1,0.4-0.2,1
		C277.6,310.6,281.6,308.8,281.8,308.9L281.8,308.9z M277.4,302.6c-0.1,0.1-0.4,0.4-1,0.5c-1.7,0.5-2.9-1.3-2-3.1
		c0.2-0.4,0.4-0.6,0.4-0.6s0,0.3-0.1,0.7C274.4,303.9,277.2,302.6,277.4,302.6L277.4,302.6z M264.2,311.3c-0.1,0.1-0.6,0.4-1.3,0.6
		c-1.4,0.3-2.5-0.4-2.8-1.6c-0.3-1.3,0.1-2.2,0.4-2.7c0.3-0.5,0.6-0.7,0.6-0.7c0,0.1-1.6,5.1,2.7,4.4L264.2,311.3L264.2,311.3z
		 M283.7,313.4c0,0-0.1,0.1-0.2,0.2c-1.4,1.5-3.2,0.1-2.7-1.8c0.1-0.4,0.3-0.5,0.3-0.5c0.1,0.5,0.1,1.2,0.5,1.8
		c0.4,0.7,1.1,0.7,1.8,0.4L283.7,313.4L283.7,313.4z M277.5,322.2c-0.1,0.1-0.4,0.5-0.9,0.8c-1.7,1-3.6-0.7-2.9-3
		c0.2-0.5,0.4-0.7,0.4-0.7c0.1,0.3-0.1,4.3,3.1,3L277.5,322.2L277.5,322.2z M274.7,326.9c0,0-0.1,0.1-0.2,0.2
		c-1.6,1.6-3.5,0.1-2.9-1.9c0.1-0.4,0.3-0.6,0.3-0.6s0,0.2,0.1,0.6c0.3,1.7,0.9,2.4,2.4,1.8L274.7,326.9L274.7,326.9z M276,315.5
		c-0.1,0.1-0.4,0.5-0.9,0.8c-1.8,1-3.6-0.7-2.9-3c0.2-0.5,0.4-0.7,0.4-0.7s0,0.3,0.1,0.7c0.3,2.1,1.1,3,3,2.3L276,315.5L276,315.5z
		 M252.3,321.3c-0.2,0.1-0.6,0.5-1.3,0.8c-2.4,0.8-4.2-1.6-3.2-4.1c0.3-0.6,0.6-0.9,0.6-0.9s-0.1,0.4-0.1,1c-0.1,2.7,1,4.1,3.6,3.4
		L252.3,321.3z M243.1,325.4c-0.1,0-0.4,0.2-0.9,0.1c-0.6,0-1.4-0.4-1.8-1.1c-0.4-0.7-0.3-1.6,0.1-2.2l0.1-0.1c0,0,0,0.2,0,0.6
		c0,1.2,0.7,2.2,1.7,2.5C242.7,325.4,243.1,325.4,243.1,325.4z M259.6,321.8c0,0-0.1,0.1-0.3,0.3c-2.4,2.4-5.3,0.3-4.5-2.9
		c0.2-0.6,0.4-0.9,0.4-0.9s0,0.4,0.1,1c0.4,2.7,1.6,3.9,4,2.7L259.6,321.8L259.6,321.8z M255.3,316.1c-0.1,0.1-0.3,0.4-0.9,0.7
		c-1.6,0.9-3.2-0.6-2.8-2.7c0.1-0.5,0.3-0.7,0.3-0.7c0.1,0.6,0.1,1.6,0.6,2.4c0.6,0.9,1.5,0.8,2.5,0.3L255.3,316.1L255.3,316.1z
		 M262.4,327.3c-0.1,0.1-0.3,0.5-0.8,0.8c-1.6,1-3.4-0.6-2.8-2.7c0.2-0.5,0.3-0.7,0.3-0.7c0.1,0.5,0.2,1.5,0.7,2.3
		c0.5,0.8,1.4,0.8,2.3,0.4L262.4,327.3z M265.9,331.7c-0.1,0.1-0.3,0.5-0.8,0.8c-1.6,1-3.4-0.6-2.8-2.7c0.2-0.5,0.3-0.7,0.3-0.7
		c0.1,0.2,0.2,3.3,2.3,2.9C265.4,331.9,265.8,331.7,265.9,331.7z M261.5,333.8c0,0,0,0.1-0.1,0.2c-1.1,1.3-2.7,0.2-2.2-1.4
		c0.1-0.3,0.2-0.4,0.2-0.4c0,0.3,0.1,1,0.4,1.5c0.3,0.5,0.9,0.5,1.5,0.3L261.5,333.8L261.5,333.8z M272.1,323.7
		c-0.1,0.1-0.3,0.5-0.9,0.8c-0.3,0.2-0.8,0.4-1.3,0.3c-1.1-0.1-2.1-1.4-1.6-3.1c0.2-0.5,0.3-0.7,0.3-0.7c0.1,0.6,0.2,1.6,0.7,2.4
		c0.4,0.6,0.9,0.8,1.6,0.6C271.6,324,272,323.8,272.1,323.7z M250.7,327.5c-0.1,0.1-0.5,0.4-1.2,0.6c-1.7,0.5-3.1-0.8-2.9-2.8
		c0.2-1.1,0.7-1.7,0.8-1.8c0,0-0.1,0.3-0.1,0.8C246.8,329.2,250.6,327.5,250.7,327.5L250.7,327.5z M264.4,317.7
		c-0.1,0.1-0.5,0.6-1.1,1c-2.1,1.2-4.3-0.7-3.7-3.6c0.2-0.6,0.4-0.9,0.4-0.9c0.1,0.1-0.1,5.7,4.1,3.7L264.4,317.7z M246.1,322.5
		c-0.1,0.1-0.4,0.3-0.9,0.4c-1.7,0.4-2.7-1.4-1.7-3c0.2-0.4,0.4-0.5,0.4-0.5c-0.1,0.5-0.3,1.4-0.1,2.2c0.3,0.9,1.1,1.1,2,0.9
		L246.1,322.5z M259.3,331.1c-0.1,0.1-0.4,0.3-1,0.5c-1.8,0.4-3-1.5-1.9-3.3c0.3-0.4,0.5-0.6,0.5-0.6c0.1,0.1-1.3,4,2.1,3.5
		L259.3,331.1L259.3,331.1z M266.5,324.1c-0.1,0.1-0.4,0.5-0.9,0.8c-1.8,1-3.6-0.8-2.9-3c0.2-0.5,0.4-0.7,0.4-0.7s0,0.3,0.1,0.7
		c0.3,2,1.1,3,3,2.3L266.5,324.1L266.5,324.1z M241.3,332.6c-0.1,0.1-0.4,0.3-0.9,0.5c-1.7,0.5-2.9-1.3-1.9-3.1
		c0.2-0.4,0.4-0.5,0.4-0.5s0,0.3-0.1,0.7c-0.1,1.8,0.3,2.8,2.2,2.5L241.3,332.6L241.3,332.6z M239.6,327c0,0-0.1,0-0.1,0.2
		c-0.1,0.2-0.3,0.3-0.5,0.4c-1.2,0.6-2.4-0.5-1.9-2c0.1-0.3,0.3-0.5,0.3-0.5s0,0.2,0.1,0.5c0.2,1.4,0.7,2,2,1.5L239.6,327L239.6,327
		z M236.5,330.7c0,0-0.1,0-0.2,0.1c-1.9,1.1-3.3-0.9-2.1-2.6c0.3-0.3,0.4-0.5,0.4-0.5s-0.1,0.2-0.1,0.6c-0.2,1.6,0.1,2.5,1.8,2.4
		L236.5,330.7L236.5,330.7z M233.9,332.9c0,0-0.1,0.1-0.2,0.2c-1.5,1.6-3.5,0.1-2.8-1.9c0.1-0.4,0.3-0.5,0.3-0.5l0.1,0.6
		c0.3,1.6,0.8,2.3,2.4,1.8L233.9,332.9z M230.9,335.5c0,0-0.1,0.1-0.2,0.2c-1.4,1.5-3.3,0.1-2.7-1.8c0.1-0.4,0.3-0.5,0.3-0.5
		c0.1,0.3,0.1,2,1,2.4c0.4,0.2,0.9,0,1.3-0.1L230.9,335.5L230.9,335.5z M244.9,329.6c-0.1,0.1-0.4,0.5-0.9,0.8c-1.8,1-3.6-0.8-2.9-3
		c0.2-0.5,0.4-0.7,0.4-0.7c0.1,0.7,0.1,1.7,0.6,2.5c0.6,0.9,1.5,0.9,2.5,0.5L244.9,329.6L244.9,329.6z M256.7,325.9
		c-0.1,0.1-0.4,0.5-0.9,0.8c-1.7,1-3.6-0.7-2.9-3c0.2-0.5,0.4-0.7,0.4-0.7s0,0.3,0.1,0.7c0.3,2.1,1.1,3,3,2.3L256.7,325.9
		L256.7,325.9z M266.4,307.6c-0.1,0-0.4,0.1-0.9,0.1c-0.6-0.1-1.3-0.5-1.6-1.3c-0.3-0.8,0-1.4,0.2-1.8c0.3-0.3,0.5-0.4,0.5-0.4
		c0,0.1-0.3,2.1,1.1,3.1C266,307.5,266.4,307.6,266.4,307.6L266.4,307.6z M249.6,332.7c0,0-0.1,0-0.2,0.1c-1.9,1.1-3.3-0.9-2.1-2.6
		c0.3-0.3,0.4-0.5,0.4-0.5c-0.1,0.5-0.3,1.3-0.1,2c0.2,0.8,0.9,1,1.8,0.9L249.6,332.7L249.6,332.7z M239,335c0,0-0.1,0.1-0.2,0.2
		c-1.4,1.5-3.3,0.1-2.7-1.8c0.1-0.4,0.3-0.5,0.3-0.5c0.1,0.3,0.1,2,1,2.4c0.4,0.2,0.9,0,1.3-0.1L239,335L239,335z M247,334.4
		c0,0-0.1,0.1-0.2,0.2c-1.4,1.5-3.3,0.1-2.7-1.8c0.1-0.4,0.3-0.5,0.3-0.5c0.1,0.5,0.1,1.3,0.5,1.9c0.4,0.7,1.1,0.7,1.9,0.4
		L247,334.4L247,334.4z M244.1,336.3c0,0-0.1,0.1-0.2,0.2c-1.4,1.5-3.3,0.1-2.7-1.8c0.1-0.4,0.3-0.5,0.3-0.5
		c0.1,0.5,0.1,1.3,0.5,1.9c0.4,0.7,1.1,0.7,1.9,0.4L244.1,336.3L244.1,336.3z M236.2,336.8c0,0-0.1,0.1-0.2,0.2
		c-1.4,1.5-3.3,0.1-2.7-1.8c0.1-0.4,0.3-0.5,0.3-0.5c0.1,0.3,0.1,2,1,2.4c0.4,0.2,0.9,0,1.3-0.1L236.2,336.8L236.2,336.8z
		 M256.2,333.7c-0.1,0.1-0.5,0.4-1.2,0.6c-1.8,0.5-3.1-0.8-2.9-2.8c0.2-1.1,0.7-1.7,0.8-1.8c0,0-0.1,0.3-0.1,0.8
		C252.3,335.4,256.1,333.6,256.2,333.7z M269.9,329.3c-0.1,0.1-0.5,0.4-1.2,0.6c-1.7,0.5-3.1-0.8-2.9-2.8c0.2-1.1,0.7-1.7,0.8-1.8
		c0,0-0.1,0.3-0.1,0.8c-0.2,2.5,0.7,3.9,3.1,3.2L269.9,329.3L269.9,329.3z"/>
	<path class="st6" d="M289.9,319.2L289.9,319.2c-0.1,0-0.2-0.2-0.1-0.3l0.3-0.5c0.1-0.2,0.5,0,0.4,0.2l-0.3,0.5
		C290.1,319.2,290,319.3,289.9,319.2z M288.3,319.5c-0.3-0.1,0-0.4,0.1-0.7c0-0.1,0.2-0.2,0.3-0.1c0.3,0.1,0,0.4-0.1,0.7
		C288.5,319.5,288.4,319.5,288.3,319.5L288.3,319.5z M288.1,317c-0.1,0-0.1-0.2-0.1-0.2l0.2-0.4c0.1-0.2,0.5-0.1,0.4,0.2l-0.2,0.4
		C288.3,317,288.2,317.1,288.1,317L288.1,317L288.1,317z M286.6,318.9l0.3-0.5c0.1-0.2,0.5-0.1,0.4,0.2l-0.3,0.5
		C286.9,319.3,286.5,319.1,286.6,318.9z M286.3,316.8l0.3-0.5c0.1-0.2,0.5-0.1,0.4,0.2l-0.3,0.5
		C286.5,317.3,286.2,317.1,286.3,316.8z M283.8,319.3l0.3-0.6c0.1-0.2,0.5-0.1,0.4,0.2l-0.3,0.6C284,319.7,283.7,319.5,283.8,319.3z
		 M284.5,317.4l0.3-0.6c0.1-0.2,0.5-0.1,0.4,0.2l-0.3,0.6C284.7,317.8,284.4,317.7,284.5,317.4L284.5,317.4z M284.7,319.8
		c0.1-0.1,0.1-0.4,0.4-0.3c0.3,0.1,0,0.4,0,0.5C285,320.1,284.6,320,284.7,319.8L284.7,319.8z M285.3,321.4c0.1-0.1,0.1-0.4,0.4-0.3
		c0.2,0.1,0,0.4,0,0.5C285.5,321.8,285.2,321.6,285.3,321.4L285.3,321.4z M282.3,321c0.1-0.1,0.1-0.4,0.4-0.3c0.3,0.1,0,0.4,0,0.5
		C282.6,321.2,282.2,321.2,282.3,321L282.3,321z M282.2,323.2l0.3-0.2c0.2-0.2,0.5,0.1,0.2,0.3l-0.3,0.2
		C282.2,323.7,282,323.3,282.2,323.2L282.2,323.2z M283.9,327.8l0.8-0.5c0.1-0.1,0.2,0,0.3,0c0.1,0.1,0,0.2,0,0.3c0,0,0,0,0,0
		l-0.8,0.5C283.9,328.3,283.7,328,283.9,327.8z M284,324.6l0.6-0.4c0.2-0.1,0.4,0.2,0.2,0.3l-0.6,0.4
		C284,325.1,283.8,324.8,284,324.6z M280.4,325.9l0.6-0.3c0.2-0.1,0.4,0.3,0.1,0.4l-0.6,0.3C280.3,326.4,280.1,326,280.4,325.9
		L280.4,325.9z M281,328l0.5-0.3c0.2-0.1,0.4,0.3,0.1,0.4l-0.5,0.3C281,328.5,280.8,328.1,281,328L281,328z M274.9,334.1l0.4-0.2
		c0.2-0.1,0.4,0.2,0.2,0.4l-0.4,0.2C274.8,334.6,274.7,334.2,274.9,334.1L274.9,334.1z M274,337.4l0.6-0.6c0.2-0.2,0.5,0.1,0.3,0.3
		l-0.6,0.6C274.1,337.9,273.8,337.6,274,337.4L274,337.4z M272.8,336.5l0.5-0.5c0.2-0.2,0.5,0.1,0.3,0.3l-0.5,0.5
		C273,336.9,272.7,336.7,272.8,336.5z M272.6,339.7l0.2-0.5c0-0.1,0.2-0.2,0.3-0.1c0.1,0,0.2,0.2,0.1,0.3l0,0l-0.2,0.5
		C272.8,340.1,272.5,339.9,272.6,339.7L272.6,339.7z M278.3,330.4l0.2-0.4c0.1-0.2,0.5-0.1,0.4,0.2l-0.2,0.4
		C278.6,330.8,278.2,330.6,278.3,330.4z M279.7,332.5c-0.1-0.1-0.1-0.2-0.1-0.3l0.4-0.6c0.1-0.1,0.2-0.1,0.3-0.1
		c0.1,0.1,0.1,0.2,0.1,0.3l0,0l-0.4,0.6C279.9,332.5,279.8,332.5,279.7,332.5L279.7,332.5z M277.9,334.2c-0.1-0.1,0-0.2,0-0.3
		l0.3-0.2c0.2-0.2,0.5,0.1,0.2,0.3l-0.3,0.2C278.1,334.3,277.9,334.3,277.9,334.2L277.9,334.2z M276.3,333.5c-0.1-0.1-0.1-0.2,0-0.3
		l0.7-0.7c0.2-0.2,0.5,0.1,0.3,0.3l-0.6,0.6C276.5,333.6,276.4,333.6,276.3,333.5L276.3,333.5z M281.6,330.1
		c0.1-0.1,0.2-0.5,0.4-0.4c0.3,0.1,0,0.4-0.1,0.6C281.9,330.4,281.4,330.4,281.6,330.1L281.6,330.1z M271.2,338.9L271.2,338.9
		c-0.1,0-0.2-0.2-0.1-0.3l0,0l0.5-0.9c0.1-0.2,0.5,0,0.4,0.2l-0.5,0.9C271.5,339,271.3,339,271.2,338.9L271.2,338.9z M280.1,329.8
		c-0.1-0.2,0.2-0.4,0.2-0.4c0.2-0.1,0.5,0.2,0.2,0.3l-0.2,0.2C280.2,329.9,280.1,329.9,280.1,329.8L280.1,329.8L280.1,329.8z
		 M280.9,324.1l0.4-0.4c0.2-0.2,0.5,0.1,0.3,0.3l-0.4,0.4C281,324.6,280.8,324.2,280.9,324.1z M270.8,340.8l0.4-0.6
		c0.2-0.2,0.5,0,0.3,0.2l-0.4,0.6C271,341.3,270.6,341,270.8,340.8z M282.2,325.8c0.1-0.5,0.9-0.5,0.8-0.2c0,0.1-0.1,0.2-0.2,0.1
		c-0.1,0-0.2,0-0.2,0.1C282.5,326.1,282.2,326,282.2,325.8z M291.5,321c-0.1,0-0.1-0.2-0.1-0.2l0.2-0.4c0-0.1,0.2-0.2,0.3-0.1
		c0.3,0.1,0,0.4,0,0.6C291.8,321,291.6,321,291.5,321L291.5,321z M290.1,322.9l0.3-0.5c0.1-0.2,0.5-0.1,0.4,0.2l-0.3,0.5
		C290.3,323.3,290,323.1,290.1,322.9L290.1,322.9z M289.8,320.8l0.3-0.5c0.1-0.2,0.5-0.1,0.4,0.2l-0.3,0.5
		C290,321.2,289.6,321.1,289.8,320.8z M286,322.8l0.3-0.6c0.1-0.2,0.5-0.1,0.4,0.2l-0.3,0.6C286.3,323.2,285.9,323,286,322.8
		L286,322.8z M288,321.4l0.3-0.6c0.1-0.2,0.5-0.1,0.4,0.2l-0.3,0.6C288.2,321.8,287.9,321.6,288,321.4z M288.2,323.8
		c0.1-0.1,0.1-0.4,0.4-0.3c0.3,0.1,0,0.4,0,0.5C288.5,324,288.1,324,288.2,323.8L288.2,323.8z M288.8,325.6c-0.3-0.1,0-0.4,0-0.5
		c0-0.1,0.2-0.1,0.2-0.1c0.1,0,0.1,0.2,0.1,0.2l-0.1,0.2C289.1,325.6,288.9,325.7,288.8,325.6L288.8,325.6z M287.5,325
		c0.1-0.1,0.1-0.4,0.4-0.3c0.3,0.1,0,0.4,0,0.5C287.8,325.3,287.4,325.2,287.5,325L287.5,325z M285.9,324.3c0.1-0.1,0.1-0.4,0.4-0.3
		c0.3,0.1,0,0.4,0,0.5C286.2,324.6,285.8,324.5,285.9,324.3L285.9,324.3z M285.7,326.8c-0.1-0.1,0-0.2,0-0.3l0.3-0.2
		c0.2-0.2,0.5,0.1,0.2,0.3l-0.3,0.2C285.9,326.9,285.8,326.9,285.7,326.8L285.7,326.8z M287.5,326.6c-0.1,0-0.1-0.2-0.1-0.2
		c0,0,0-0.1,0.1-0.1l0.3-0.2c0.1-0.1,0.2,0,0.3,0.1c0.1,0.1,0,0.2-0.1,0.3l-0.3,0.2C287.6,326.7,287.6,326.7,287.5,326.6
		L287.5,326.6z M284.1,329.6c-0.1,0-0.1-0.2-0.1-0.2c0,0,0.1-0.1,0.1-0.1l0.3-0.2c0.1,0,0.2,0,0.3,0.1c0,0.1,0,0.2-0.1,0.2l-0.3,0.2
		C284.2,329.6,284.1,329.6,284.1,329.6z M281,332.7c-0.1,0-0.1-0.2-0.1-0.2c0,0,0,0,0,0l0.6-0.6c0.1-0.1,0.2-0.1,0.3,0
		c0.1,0.1,0.1,0.2,0,0.3l0,0l-0.6,0.6C281.2,332.7,281.1,332.7,281,332.7L281,332.7z M278.3,332.4l-0.2-0.1l0.1-0.2
		c0.1-0.2,0.5,0,0.4,0.2l-0.1,0.2L278.3,332.4z M284.2,326.5c-0.2-0.2,0.1-0.4,0.2-0.5c0.2-0.2,0.5,0.1,0.3,0.3l-0.2,0.2
		C284.4,326.6,284.3,326.6,284.2,326.5L284.2,326.5z M278,335.6c-0.1-0.1-0.1-0.2,0-0.3l0,0l0.1-0.2c0.2-0.2,0.5,0,0.3,0.2l-0.1,0.2
		C278.2,335.7,278.1,335.7,278,335.6z M286.7,328.2c-0.1,0-0.1-0.1-0.1-0.2c0.1-0.3,0.4-0.5,0.6-0.4c0.1,0,0.2,0.1,0.1,0.2
		c0,0.1-0.1,0.2-0.2,0.1c-0.1,0-0.2,0.1-0.2,0.1C286.9,328.1,286.8,328.2,286.7,328.2C286.7,328.2,286.7,328.2,286.7,328.2z
		 M279.5,330.5l0.1-0.2c0.2-0.2,0.5,0.1,0.3,0.3l-0.1,0.2C279.7,331,279.4,330.7,279.5,330.5z M282.3,328.2l0.2-0.1
		c0.2-0.1,0.4,0.2,0.2,0.4l-0.2,0.1C282.3,328.7,282.1,328.3,282.3,328.2L282.3,328.2z M283.2,331.7c-0.1,0-0.1-0.2-0.1-0.2l0.2-0.4
		c0-0.1,0.2-0.1,0.2-0.1c0.1,0,0.1,0.2,0.1,0.2l0,0l-0.2,0.4C283.4,331.8,283.3,331.8,283.2,331.7L283.2,331.7z M279.2,333.4
		l0.2-0.4c0-0.1,0.2-0.1,0.2-0.1c0.1,0,0.1,0.2,0.1,0.2l0,0l-0.2,0.4C279.4,333.8,279,333.7,279.2,333.4L279.2,333.4z M283.7,322.4
		c0.1-0.1,0.1-0.4,0.4-0.3c0.3,0.1,0,0.4,0,0.5C284,322.7,283.6,322.7,283.7,322.4L283.7,322.4z"/>
</g>
</svg>
