<?xml version="1.0" encoding="utf-8"?>
<!-- Generator: Adobe Illustrator 24.3.0, SVG Export Plug-In . SVG Version: 6.00 Build 0)  -->
<svg version="1.1" id="Layer_1" xmlns="http://www.w3.org/2000/svg" xmlns:xlink="http://www.w3.org/1999/xlink" x="0px" y="0px"
	 viewBox="0 0 512 512" style="enable-background:new 0 0 512 512;" xml:space="preserve">
<style type="text/css">
	.st0{fill-rule:evenodd;clip-rule:evenodd;fill:#F4F5F7;}
	.st1{fill-rule:evenodd;clip-rule:evenodd;fill:#C7CBD6;}
	.st2{fill-rule:evenodd;clip-rule:evenodd;fill:#4B5267;}
	.st3{fill:#312C2C;}
	.st4{fill:#CDD1F9;}
	.st5{fill:#B6BCEF;}
	.st6{fill:#7C80C1;}
	.st7{fill:#424699;}
	.st8{fill:#5562AD;}
	.st9{fill:#252F8C;}
	.st10{fill:#241A22;}
	.st11{fill:#5354A6;}
	.st12{fill:#F9B46F;}
	.st13{fill:#F99B39;}
	.st14{fill:#FFFFFF;}
</style>
<g>
	<path class="st0" d="M407.4,315.2c55.8-8,97.3-55.9,97.4-112.4c0-62.8-50.8-113.8-113.6-113.8c-14.7,0-29.2,2.9-42.8,8.5
		c-13.1-24.6-35.6-42.8-62.2-50.7c-48.1-14.4-98.9,7.7-121.8,50.7c-13.6-5.7-28.1-8.5-42.8-8.5C58.8,88.9,8,139.9,8,202.7
		c0.1,56.5,41.6,104.4,97.4,112.4v131.5c17.6,15.2,91.2,23.6,151,23.6s133.4-8.4,151-23.6L407.4,315.2L407.4,315.2z"/>
	<path class="st1" d="M342.3,216.4c15.2-37.8,20-54.4,17.6-89.9c66.5-17.8,91.8,31.7,83.7,66C435.6,226.3,397.5,252.9,342.3,216.4z
		 M259,42.4c-23.3-0.6-46.2,6.7-65,20.7c57.5-15.4,102.8,40.3,67.9,99.9c-27.2,46.4-131.4,54.1-113.8-23
		c-19.7,10.4-29.8,38.7-27.9,66.4c1.9,28.3,19.6,36.1,38,32.5c74.2-14.7,196.8-39.2,196.8,68.3v139.6h52.2V315.2
		c55.8-8,97.3-55.9,97.4-112.4c0-62.8-50.8-113.8-113.6-113.8c-11.8,0-23.4,1.9-34.7,5.5c-2.7,0.9-5.4,1.8-8.2,2.8
		c-13.1-24.5-35.6-42.7-62.2-50.6C277.4,44.1,268.3,42.6,259,42.4L259,42.4z"/>
	<path class="st1" d="M256.3,423.1c-59.8,0-133.4,8.4-151,23.6c17.6,15.2,91.2,23.6,151,23.6c59.9,0,133.5-8.4,151-23.6
		C389.8,431.3,316.2,423.1,256.3,423.1z"/>
	<g>
		<path class="st2" d="M256.3,430.3c29.6,0,62.7,2,90.4,6c13.8,2,26.4,4.2,36.1,7.2c9.3,2.8,6.1,4.4,0,6.1
			c-9.9,2.7-22.3,5.2-36.1,7.1c-27.6,4-60.8,6-90.4,6s-62.7-2.2-90.3-6c-13.8-1.9-26.3-4.4-36.1-7.1c-7-2.2-5.3-3.7,0-6.1
			c9.9-2.8,22.3-5.2,36.1-7.2C193.7,432.4,226.7,430.3,256.3,430.3L256.3,430.3z M256.2,49.6c9.3,0,18.7,1.4,28,4.1
			c23.9,7.1,44.2,23.1,56.5,44.8l2.3,4.4c10.2,20,13.6,43.6,7.9,67c-2.4,9.6,12,13,14.3,3.4c6-24.9,3.2-49.9-6.6-71.8
			c10.5-3.5,21.6-5.3,32.7-5.3c58.8,0,106.3,47.6,106.3,106.4c0,49.6-34.4,92.6-82.8,103.6V273c0-4.1-3.3-7.4-7.2-7.4
			c-4.1,0-7.4,3.3-7.4,7.2l0,0v161c-4.3-1.8-8.7-3.3-13.2-4.5c-10.8-3.1-23.8-5.5-38-7.6c-28.5-4.1-62.2-6.1-92.4-6.1
			s-63.9,2-92.4,6.1c-14.3,2-27.3,4.5-38,7.6c-5,1.4-9.3,2.8-13.2,4.5V273c0.1-4-3.2-7.4-7.1-7.4c-0.1,0-0.1,0-0.2,0
			c-4.1,0.1-7.2,3.4-7.2,7.4v33.3c-48.4-11-82.8-53.9-82.8-103.6c0-58.9,47.4-106.4,106.3-106.4c11.1,0,22.1,1.8,32.6,5.3
			c-1.1,2.6-2.2,5.2-3.2,7.9c-3.4,9.3,10.6,14.4,13.8,4.9C178.5,75.5,215.1,49.6,256.2,49.6z M256.2,35
			c-38.8,0.1-74.9,20.4-95.1,53.4c-12.7-4.4-26-6.8-39.5-6.8C54.8,81.7,0.6,136,0.6,202.7C0.7,260.5,42,308.9,98,320.3v126.4
			c-0.1,3.2,2.2,5.5,4.9,7.2c6.2,3.7,13.5,7.2,23,10c10.8,3.1,23.8,5.5,38,7.6c28.5,4.1,62.1,6.1,92.4,6.1c30.2,0,63.9-2.2,92.4-6.1
			c14.3-2,27.2-4.5,38-7.6c9.9-2.8,17.6-6.3,23.8-10.4c3.2-2,4.1-4,4.1-6.7V320.3c56.1-11.3,97.3-59.8,97.4-117.7
			c0-66.8-54.1-121.1-120.9-121.1c-13.5,0-26.8,2.5-39.6,6.9c-13.9-22.8-35.9-40.7-63.2-48.8C277.9,36.6,267.1,35,256.2,35z"/>
		<path class="st2" d="M256.3,218c-29.8,0-60.4,3.7-87.4,10.2c-4,0.8-6.6,4.6-5.8,8.6c0.8,4,4.6,6.6,8.6,5.8c0.1,0,0.3-0.1,0.5-0.1
			c25.9-6.2,55.5-9.9,84.1-9.9c28.7,0,58.2,3.6,84.1,9.9c4,0.9,7.8-1.5,8.8-5.4c0.9-4-1.5-7.8-5.4-8.8l0,0
			C316.8,221.7,286.2,218,256.3,218z"/>
	</g>
</g>
<g>
	<path class="st3" d="M275.7,368.4l-12.6-7c-0.3-0.2-0.7-0.6-0.7-1l-0.6-7.2c-0.1-0.8,0.5-1.4,1.2-1.5c0.8-0.1,1.4,0.5,1.5,1.2
		l0.6,6.6l11.9,6.7c0.7,0.3,0.9,1.1,0.6,1.8C277.1,368.5,276.3,368.7,275.7,368.4L275.7,368.4L275.7,368.4z"/>
	<path class="st3" d="M286.1,374.5c-1.4-7.2-9.2-6.1-9.5-6c-0.7,0.1-1.4-0.3-1.5-1.1c-0.1-0.7,0.3-1.4,1.1-1.5l0,0
		c3.7-0.6,11.1,0.3,12.6,8.2c0.1,0.7-0.3,1.5-1,1.6C286.9,375.7,286.2,375.2,286.1,374.5z"/>
	<path class="st3" d="M277.7,381.2c-0.6-0.5-0.7-1.2-0.2-1.8c4.4-5.9-1.7-10.9-2-11.1c-0.6-0.5-0.7-1.2-0.2-1.8
		c0.5-0.6,1.2-0.7,1.8-0.2c2.9,2.4,7.2,8.5,2.5,14.7C279.2,381.5,278.3,381.6,277.7,381.2L277.7,381.2z"/>
	<path class="st3" d="M270.7,371.4c-0.6-0.5-0.6-1.4-0.1-1.9c2.2-2.5,5.1-3.5,5.2-3.6c0.7-0.2,1.5,0.1,1.7,0.8s-0.1,1.5-0.8,1.7
		c-0.1,0-2.5,0.9-4.2,2.8C272.2,371.9,271.2,371.9,270.7,371.4L270.7,371.4z M278.7,353l-1.7-7.1c-0.2-0.7,0.2-1.5,0.9-1.6
		c0.7-0.2,1.5,0.2,1.6,0.9l0,0l1.6,6.3L294,356c0.7,0.2,1,1,0.8,1.7c-0.2,0.7-1,1-1.7,0.8l-13.6-4.8
		C279.2,353.8,278.8,353.3,278.7,353z"/>
	<path class="st3" d="M292.3,357.7c-0.2-0.7,0.1-1.5,0.9-1.7c3.6-1.1,11-1.5,13.7,6c0.2,0.7-0.1,1.5-0.8,1.7
		c-0.7,0.2-1.5-0.1-1.7-0.8c-2.5-6.9-10.1-4.5-10.4-4.4C293.2,358.9,292.5,358.4,292.3,357.7z"/>
	<path class="st3" d="M297.2,370.9L297.2,370.9c-0.7-0.3-0.9-1.1-0.6-1.8c3.4-6.5-3.4-10.4-3.7-10.6c-0.7-0.3-0.8-1.1-0.5-1.8
		c0.3-0.7,1.1-0.9,1.8-0.6l0,0c3.3,1.8,8.5,7.2,4.8,14.2C298.7,371,297.9,371.2,297.2,370.9L297.2,370.9z"/>
	<path class="st3" d="M287,361c-0.5-0.6-0.5-1.4,0.1-1.8l0,0c2.6-2.4,6.1-3.1,6.2-3.1c0.7-0.1,1.5,0.3,1.6,1c0.1,0.7-0.3,1.5-1,1.6
		c0,0-2.8,0.6-5,2.5C288.2,361.6,287.4,361.6,287,361L287,361L287,361z"/>
	<path class="st4" d="M303,323.9c-11,23.1-34.4,38.3-74.9,33.4l0,0l-34,24.7l-19.4-8.4l51-24.3c31.3-41.8,53.3-44.7,53.4-44.8
		c2.5-7,7.2-8.9,7.2-8.9l-1.9-7.6c22.1-4.2,29.1,8.3,29.2,8.3l2.9,2.6l-2.2,6c0,0-5.2,2.8-7.8,9.9C306,316.3,304.9,319.6,303,323.9
		L303,323.9z"/>
	<path class="st5" d="M303,323.9c-11,23.2-34.7,38.3-74.9,33.4l0,0l-34,24.7l-19.4-8.4l6.9-3.3l14.6,6.2l34-24.7l0,0
		c40.2,5,63.9-10.2,74.9-33.4c0.2-0.3,0.3-0.8,0.6-1.1C305,319.1,304.1,321.3,303,323.9L303,323.9z M308.7,309.4
		c2.3-6,6.3-8.9,7.6-9.7l-1.8,5.1c0,0-3.9,2-6.7,7.2C308.2,311,308.5,310,308.7,309.4L308.7,309.4z"/>
	<path class="st6" d="M314.3,296.7c-0.5,0.8-0.9,1.4-2,1.6c-1.4,0.2-2.6-0.3-3.7-1.1c-1.1-0.7-2-1.7-3.3-2.3
		c-1.1-0.7-2.6-0.9-3.7-0.3c-0.3,0.1-0.7,0.5-0.9,0.7c-1.5,1.4-2.3,3.3-2.4,5.2c-0.5,7-0.8,9.2-6.8,13.5c-5,3.6-10.3,6.8-16.2,8.5
		c-5.9,1.7-12.3,1.9-18-0.5c-2.4-1-2.6-2-2.3-3.9c0-0.1,0-0.3,0.1-0.5c14.8-12.1,24.1-13.4,24.1-13.4c2.5-7,7.2-8.9,7.2-8.9
		l-1.9-7.5c22.2-4.3,29.1,8.3,29.2,8.3L314.3,296.7L314.3,296.7z"/>
	<path class="st5" d="M314.3,296.7c-0.5,0.8-0.9,1.4-2,1.6c-1.4,0.2-2.6-0.3-3.7-1.1c-1.6-1-4.4-3.9-7-2.6c-0.3,0.1-0.7,0.5-0.9,0.7
		c-4,3.7-1.5,8.5-4,13.4c-1.1,2.3-3.2,3.9-5.2,5.3c-5,3.6-10.3,6.8-16.2,8.5c-5.9,1.7-12.3,1.9-18-0.5c-2.5-1-2.6-2-2.3-3.9
		c0-0.1,0-0.3,0.1-0.5c0.1-0.1,0.2-0.1,0.3-0.2c0.3,0.3,0.9,0.6,1.4,0.7c5.7,2.3,12.1,2.2,18,0.5c5.9-1.7,11.2-4.9,16.2-8.5
		c5.8-4.1,6.3-6.3,6.8-13.5c0.1-1.9,1-3.9,2.4-5.2c0.3-0.3,0.7-0.6,0.9-0.7c1.1-0.6,2.6-0.3,3.7,0.3c2.2,1.1,4.2,3.7,6.9,3.4
		c0.2,0,0.3-0.1,0.5-0.1c1,1.1,1.4,1.9,1.4,1.9l0.5,0.5H314.3z"/>
	<path class="st7" d="M291,295.7v0.2c0,0-5.2,2.5-5.9,2.8c-3.1,2-5.1,5.1-6.3,8.5c0,0-9.1,1.2-23.8,13.1c-0.3-0.7-0.2-1.5,0-2.3
		c0-0.1,0-0.3,0.1-0.5c14.9-12,24.1-13.4,24.1-13.4c1.5-4,4-6.9,6.3-8.4c0,0,0,0,0.1,0C287.3,294.7,289.1,295.1,291,295.7L291,295.7
		z M314.3,296.7c-0.5,0.6-0.8,1.1-1.6,1.4c-3.5-4.5-10.3-8.3-19.9-8.3c-2.6,0-5.1,0.2-7.6,0.7l-0.7-2.7c0.8-0.1,1.6-0.2,2.4-0.3
		c20.4-2.9,26.7,8.6,26.8,8.7L314.3,296.7L314.3,296.7z"/>
	<path class="st6" d="M273.6,331.8l-45.5,25.5l0,0l-34,24.7l-19.4-8.4l51-24.3c8.7-11.7,16.8-20.3,23.8-26.7L273.6,331.8z"/>
	<path class="st8" d="M273.6,331.8l-2.9,1.6l-18.1-6.9c-7,6.5-5.4,10.4-14.2,22.1l-57.6,27.6l-6-2.6l51-24.3
		c8.7-11.7,16.8-20.3,23.8-26.7L273.6,331.8z"/>
	<path class="st9" d="M194.8,381.4l-0.7,0.5L181,370.6l0.7-0.3L194.8,381.4z M198.8,378.5l-0.6,0.5l-12.3-10.6l0.7-0.3L198.8,378.5z
		 M202.9,375.5l-0.7,0.5l-11.7-10l0.8-0.3L202.9,375.5z M206.8,372.6l-0.7,0.5l-10.9-9.4l0.7-0.3L206.8,372.6z M210.9,369.6
		l-0.6,0.5l-10.1-8.7l0.7-0.3L210.9,369.6z M214.9,366.8l-0.6,0.3l-9.4-8l0.7-0.3L214.9,366.8z M218.9,363.9l-0.7,0.5l-8.6-7.5
		l0.7-0.3L218.9,363.9z M222.9,360.9l-0.6,0.5l-7.9-6.8l0.7-0.3L222.9,360.9z M227,358l-0.7,0.5l-7.1-6.1l0.7-0.3L227,358z
		 M231.4,355.4l-0.7,0.3l-6.7-5.8l0.7-0.3L231.4,355.4z M235.8,352.9l-0.7,0.3l-7.6-6.6c0.1-0.2,0.3-0.3,0.5-0.6L235.8,352.9z"/>
	<path class="st10" d="M309.8,301.5c2.8-0.7,4.9-1.1,6.8-2.7c0,0,6.2-0.2,9.1,4.5l-11.2,1.5C313.4,303.3,312,301.9,309.8,301.5
		L309.8,301.5z"/>
	<path class="st11" d="M277.3,338.3c-11.6,8.7-30.1,14-59.8,10c22.8-19.4,45.3-41.3,61.2-43.8C293.3,313.8,290.2,328.5,277.3,338.3z
		"/>
	<path class="st7" d="M277.3,338.3c-11.6,8.7-30.1,14-59.8,10c3.1-2.6,6.1-5.3,9.3-7.9c25.7,2.5,42.4-2.7,53.1-10.8
		c3.7-2.8,6.6-6,8.5-9.4C288.2,326.6,284,333.2,277.3,338.3z"/>
	<path class="st10" d="M298.7,331.4c-2.2-5.1,1.8-10.3,1-18.9c-0.3-3.3-1.5-6.6-3.7-9.1c-2.8-3.1-6.2-4-9.6-8.3l-1.9-7.2
		c0.8-0.1,1.6-0.2,2.4-0.3c0.5,7.5,9.4,8.7,13.4,13.8c3.7,4.6,2.9,11.2,2.7,22.6C301.8,326.1,300.5,328.7,298.7,331.4L298.7,331.4z"
		/>
	<path class="st10" d="M295.9,300.8c0-0.3,0.2-0.6,0.6-0.5l0,0l21.1,0.3c0.3,0,0.6,0.2,0.5,0.6c0,0.2-0.2,0.5-0.6,0.5l-21.1-0.3
		C296.2,301.3,295.9,301.1,295.9,300.8L295.9,300.8L295.9,300.8z"/>
	<ellipse class="st10" cx="306.7" cy="300.8" rx="2.5" ry="2.5"/>
	<circle class="st12" cx="306.7" cy="300.8" r="1.6"/>
	<path class="st13" d="M308.1,301.6c-0.5,0.8-1.4,1.1-2.2,0.7c-1.4-0.7-1-2.5,0.2-2.9C305.6,300.6,306.8,301.9,308.1,301.6
		C308.2,301.5,308.2,301.6,308.1,301.6z"/>
	<ellipse class="st3" cx="306.7" cy="300.8" rx="0.9" ry="0.9"/>
	<path class="st14" d="M306.6,300.6c-0.3-0.2-0.1-0.8,0.3-0.6C307.3,300.2,306.9,300.8,306.6,300.6z"/>
	<path class="st9" d="M274.8,318.4c-0.2,0.1-0.7,0.6-1.5,0.9c-2.7,0.9-4.8-1.7-3.6-4.6c0.3-0.7,0.7-1,0.7-1c0,0.1-1.1,6.3,4,5
		L274.8,318.4z M259.6,322.2c-0.1,0-0.6,0.2-1.4,0c-0.8-0.1-1.9-0.8-2.4-2c-0.5-1.1,0-2,0.2-2.6c0.3-0.6,0.7-0.7,0.7-0.7
		s-0.1,0.3-0.1,0.8c-0.1,1.6,0.5,3.1,1.8,3.9C259,322.1,259.6,322.2,259.6,322.2L259.6,322.2z M282.2,318.8c0,0-0.1,0.1-0.3,0.3
		c-2.7,2.7-6,0.3-5.1-3.3c0.2-0.7,0.5-1,0.5-1c0.1,0.1-0.1,6.5,4.6,4.2L282.2,318.8z M277.7,311.3c0,0-0.1,0.1-0.3,0.3
		c-2.7,2.7-6,0.3-5.1-3.3c0.2-0.7,0.5-1,0.5-1s0,0.5,0.1,1.1c0.5,3.1,1.8,4.4,4.5,3.1L277.7,311.3L277.7,311.3z M286.8,326.1
		c-0.1,0.1-1.4,1.8-3.2,1.5c-1.6-0.2-2.9-1.9-2.4-4.4c0.2-0.7,0.5-1,0.5-1c0.1,0.1-0.1,6.5,4.6,4.2L286.8,326.1L286.8,326.1z
		 M274.5,325.7c0,0-0.1,0.1-0.3,0.5c-1.9,2.3-4.3,2-5.5,0.5c-0.8-1-1.1-2.4-1-3.7c0.1-0.9,0.3-1.2,0.3-1.2c0.1,0.7,0.2,2.8,1.5,4.3
		c0.5,0.5,1,0.9,1.6,1c0.6,0.1,1.2,0,1.8-0.2C273.7,326.3,274.3,325.8,274.5,325.7L274.5,325.7z M285.4,316.1c0,0-0.1,0.1-0.3,0.2
		c-3.2,2-6-1-4.3-4.4c0.3-0.7,0.7-0.9,0.7-0.9s-0.1,0.5-0.2,1.1C280.6,318,285.2,316,285.4,316.1L285.4,316.1z M280.4,308.9
		c-0.1,0.1-0.5,0.5-1.1,0.6c-1.9,0.6-3.3-1.5-2.3-3.5c0.2-0.5,0.5-0.7,0.5-0.7s0,0.3-0.1,0.8C277,310.4,280.2,308.9,280.4,308.9
		L280.4,308.9z M265.5,318.8c-0.1,0.1-0.7,0.5-1.5,0.7c-1.6,0.3-2.8-0.5-3.2-1.8c-0.3-1.5,0.1-2.5,0.5-3.1c0.3-0.6,0.7-0.8,0.7-0.8
		c0,0.1-1.8,5.8,3.1,5L265.5,318.8L265.5,318.8z M287.6,321.2c0,0-0.1,0.1-0.2,0.2c-1.6,1.7-3.6,0.1-3.1-2c0.1-0.5,0.3-0.6,0.3-0.6
		c0.1,0.6,0.1,1.4,0.6,2c0.5,0.8,1.2,0.8,2,0.5L287.6,321.2L287.6,321.2z M280.5,331.1c-0.1,0.1-0.5,0.6-1,0.9
		c-1.9,1.1-4.1-0.8-3.3-3.4c0.2-0.6,0.5-0.8,0.5-0.8c0.1,0.3-0.1,4.9,3.5,3.4L280.5,331.1L280.5,331.1z M277.4,336.4
		c0,0-0.1,0.1-0.2,0.2c-1.8,1.8-4,0.1-3.3-2.2c0.1-0.5,0.3-0.7,0.3-0.7s0,0.2,0.1,0.7c0.3,1.9,1,2.7,2.7,2L277.4,336.4L277.4,336.4z
		 M278.8,323.5c-0.1,0.1-0.5,0.6-1,0.9c-2,1.1-4.1-0.8-3.3-3.4c0.2-0.6,0.5-0.8,0.5-0.8s0,0.3,0.1,0.8c0.3,2.4,1.2,3.4,3.4,2.6
		L278.8,323.5L278.8,323.5z M252,330.1c-0.2,0.1-0.7,0.6-1.5,0.9c-2.7,0.9-4.8-1.8-3.6-4.6c0.3-0.7,0.7-1,0.7-1s-0.1,0.5-0.1,1.1
		c-0.1,3.1,1.1,4.6,4.1,3.9L252,330.1z M241.6,334.8c-0.1,0-0.5,0.2-1,0.1c-0.7,0-1.6-0.5-2-1.2c-0.5-0.8-0.3-1.8,0.1-2.5l0.1-0.1
		c0,0,0,0.2,0,0.7c0,1.4,0.8,2.5,1.9,2.8C241.1,334.8,241.6,334.8,241.6,334.8z M260.3,330.7c0,0-0.1,0.1-0.3,0.3
		c-2.7,2.7-6,0.3-5.1-3.3c0.2-0.7,0.5-1,0.5-1s0,0.5,0.1,1.1c0.5,3.1,1.8,4.4,4.5,3.1L260.3,330.7L260.3,330.7z M255.4,324.2
		c-0.1,0.1-0.3,0.5-1,0.8c-1.8,1-3.6-0.7-3.2-3.1c0.1-0.6,0.3-0.8,0.3-0.8c0.1,0.7,0.1,1.8,0.7,2.7c0.7,1,1.7,0.9,2.8,0.3
		L255.4,324.2L255.4,324.2z M263.4,336.9c-0.1,0.1-0.3,0.6-0.9,0.9c-1.8,1.1-3.9-0.7-3.2-3.1c0.2-0.6,0.3-0.8,0.3-0.8
		c0.1,0.6,0.2,1.7,0.8,2.6c0.6,0.9,1.6,0.9,2.6,0.5L263.4,336.9z M267.4,341.9c-0.1,0.1-0.3,0.6-0.9,0.9c-1.8,1.1-3.9-0.7-3.2-3.1
		c0.2-0.6,0.3-0.8,0.3-0.8c0.1,0.2,0.2,3.7,2.6,3.3C266.8,342.1,267.3,341.9,267.4,341.9z M262.4,344.3c0,0,0,0.1-0.1,0.2
		c-1.2,1.5-3.1,0.2-2.5-1.6c0.1-0.3,0.2-0.5,0.2-0.5c0,0.3,0.1,1.1,0.5,1.7c0.3,0.6,1,0.6,1.7,0.3L262.4,344.3L262.4,344.3z
		 M274.4,332.8c-0.1,0.1-0.3,0.6-1,0.9c-0.3,0.2-0.9,0.5-1.5,0.3c-1.2-0.1-2.4-1.6-1.8-3.5c0.2-0.6,0.3-0.8,0.3-0.8
		c0.1,0.7,0.2,1.8,0.8,2.7c0.5,0.7,1,0.9,1.8,0.7C273.9,333.2,274.3,332.9,274.4,332.8z M250.2,337.1c-0.1,0.1-0.6,0.5-1.4,0.7
		c-1.9,0.6-3.5-0.9-3.3-3.2c0.2-1.2,0.8-1.9,0.9-2c0,0-0.1,0.3-0.1,0.9C245.8,339.1,250.1,337.1,250.2,337.1L250.2,337.1z
		 M265.7,326c-0.1,0.1-0.6,0.7-1.2,1.1c-2.4,1.4-4.9-0.8-4.2-4.1c0.2-0.7,0.5-1,0.5-1c0.1,0.1-0.1,6.5,4.6,4.2L265.7,326z
		 M245,331.5c-0.1,0.1-0.5,0.3-1,0.5c-1.9,0.5-3.1-1.6-1.9-3.4c0.2-0.5,0.5-0.6,0.5-0.6c-0.1,0.6-0.3,1.6-0.1,2.5
		c0.3,1,1.2,1.2,2.3,1H245z M259.9,341.2c-0.1,0.1-0.5,0.3-1.1,0.6c-2,0.5-3.4-1.7-2.2-3.7c0.3-0.5,0.6-0.7,0.6-0.7
		c0.1,0.1-1.5,4.5,2.4,4L259.9,341.2L259.9,341.2z M268.1,333.3c-0.1,0.1-0.5,0.6-1,0.9c-2,1.1-4.1-0.9-3.3-3.4
		c0.2-0.6,0.5-0.8,0.5-0.8s0,0.3,0.1,0.8c0.3,2.3,1.2,3.4,3.4,2.6L268.1,333.3L268.1,333.3z M239.5,342.9c-0.1,0.1-0.5,0.3-1,0.6
		c-1.9,0.6-3.3-1.5-2.2-3.5c0.2-0.5,0.5-0.6,0.5-0.6s0,0.3-0.1,0.8c-0.1,2,0.3,3.2,2.5,2.8L239.5,342.9L239.5,342.9z M237.6,336.6
		c0,0-0.1,0-0.1,0.2c-0.1,0.2-0.3,0.3-0.6,0.5c-1.4,0.7-2.7-0.6-2.2-2.3c0.1-0.3,0.3-0.6,0.3-0.6s0,0.2,0.1,0.6
		c0.2,1.6,0.8,2.3,2.3,1.7L237.6,336.6L237.6,336.6z M234.1,340.8c0,0-0.1,0-0.2,0.1c-2.2,1.2-3.7-1-2.4-2.9
		c0.3-0.3,0.5-0.6,0.5-0.6s-0.1,0.2-0.1,0.7c-0.2,1.8,0.1,2.8,2,2.7H234.1L234.1,340.8z M231.2,343.2c0,0-0.1,0.1-0.2,0.2
		c-1.7,1.8-4,0.1-3.2-2.2c0.1-0.5,0.3-0.6,0.3-0.6l0.1,0.7c0.3,1.8,0.9,2.6,2.7,2L231.2,343.2z M227.8,346.2c0,0-0.1,0.1-0.2,0.2
		c-1.6,1.7-3.7,0.1-3.1-2c0.1-0.5,0.3-0.6,0.3-0.6c0.1,0.3,0.1,2.3,1.1,2.7c0.5,0.2,1,0,1.5-0.1L227.8,346.2L227.8,346.2z
		 M243.6,339.5c-0.1,0.1-0.5,0.6-1,0.9c-2,1.1-4.1-0.9-3.3-3.4c0.2-0.6,0.5-0.8,0.5-0.8c0.1,0.8,0.1,1.9,0.7,2.8
		c0.7,1,1.7,1,2.8,0.6L243.6,339.5L243.6,339.5z M257,335.3c-0.1,0.1-0.5,0.6-1,0.9c-1.9,1.1-4.1-0.8-3.3-3.4
		c0.2-0.6,0.5-0.8,0.5-0.8s0,0.3,0.1,0.8c0.3,2.4,1.2,3.4,3.4,2.6L257,335.3L257,335.3z M268,314.6c-0.1,0-0.5,0.1-1,0.1
		c-0.7-0.1-1.5-0.6-1.8-1.5c-0.3-0.9,0-1.6,0.2-2c0.3-0.3,0.6-0.5,0.6-0.5c0,0.1-0.3,2.4,1.2,3.5C267.5,314.5,268,314.6,268,314.6
		L268,314.6z M248.9,343c0,0-0.1,0-0.2,0.1c-2.2,1.2-3.7-1-2.4-2.9c0.3-0.3,0.5-0.6,0.5-0.6c-0.1,0.6-0.3,1.5-0.1,2.3
		c0.2,0.9,1,1.1,2,1L248.9,343L248.9,343z M236.9,345.6c0,0-0.1,0.1-0.2,0.2c-1.6,1.7-3.7,0.1-3.1-2c0.1-0.5,0.3-0.6,0.3-0.6
		c0.1,0.3,0.1,2.3,1.1,2.7c0.5,0.2,1,0,1.5-0.1L236.9,345.6L236.9,345.6z M246,344.9c0,0-0.1,0.1-0.2,0.2c-1.6,1.7-3.7,0.1-3.1-2
		c0.1-0.5,0.3-0.6,0.3-0.6c0.1,0.6,0.1,1.5,0.6,2.2c0.5,0.8,1.2,0.8,2.2,0.5L246,344.9L246,344.9z M242.7,347.1c0,0-0.1,0.1-0.2,0.2
		c-1.6,1.7-3.7,0.1-3.1-2c0.1-0.5,0.3-0.6,0.3-0.6c0.1,0.6,0.1,1.5,0.6,2.2c0.5,0.8,1.2,0.8,2.2,0.5L242.7,347.1L242.7,347.1z
		 M233.8,347.7c0,0-0.1,0.1-0.2,0.2c-1.6,1.7-3.7,0.1-3.1-2c0.1-0.5,0.3-0.6,0.3-0.6c0.1,0.3,0.1,2.3,1.1,2.7c0.5,0.2,1,0,1.5-0.1
		L233.8,347.7L233.8,347.7z M256.4,344.1c-0.1,0.1-0.6,0.5-1.4,0.7c-2,0.6-3.5-0.9-3.3-3.2c0.2-1.2,0.8-1.9,0.9-2
		c0,0-0.1,0.3-0.1,0.9C252,346.1,256.3,344,256.4,344.1z M271.9,339.2c-0.1,0.1-0.6,0.5-1.4,0.7c-1.9,0.6-3.5-0.9-3.3-3.2
		c0.2-1.2,0.8-1.9,0.9-2c0,0-0.1,0.3-0.1,0.9c-0.2,2.8,0.8,4.4,3.5,3.6L271.9,339.2L271.9,339.2z"/>
	<path class="st6" d="M294.6,327.7L294.6,327.7c-0.1,0-0.2-0.2-0.1-0.3l0.3-0.6c0.1-0.2,0.6,0,0.5,0.2l-0.3,0.6
		C294.8,327.7,294.7,327.8,294.6,327.7z M292.8,328.1c-0.3-0.1,0-0.5,0.1-0.8c0-0.1,0.2-0.2,0.3-0.1c0.3,0.1,0,0.5-0.1,0.8
		C293,328.1,292.9,328.1,292.8,328.1L292.8,328.1z M292.5,325.2c-0.1,0-0.1-0.2-0.1-0.2l0.2-0.5c0.1-0.2,0.6-0.1,0.5,0.2l-0.2,0.5
		C292.8,325.2,292.7,325.4,292.5,325.2L292.5,325.2L292.5,325.2z M290.8,327.4l0.3-0.6c0.1-0.2,0.6-0.1,0.5,0.2l-0.3,0.6
		C291.2,327.8,290.7,327.6,290.8,327.4z M290.5,325l0.3-0.6c0.1-0.2,0.6-0.1,0.5,0.2l-0.3,0.6C290.7,325.6,290.4,325.4,290.5,325z
		 M287.7,327.8l0.3-0.7c0.1-0.2,0.6-0.1,0.5,0.2l-0.3,0.7C287.9,328.3,287.6,328.1,287.7,327.8z M288.5,325.7l0.3-0.7
		c0.1-0.2,0.6-0.1,0.5,0.2l-0.3,0.7C288.7,326.1,288.3,326,288.5,325.7L288.5,325.7z M288.7,328.4c0.1-0.1,0.1-0.5,0.5-0.3
		c0.3,0.1,0,0.5,0,0.6C289,328.7,288.6,328.6,288.7,328.4L288.7,328.4z M289.4,330.2c0.1-0.1,0.1-0.5,0.5-0.3c0.2,0.1,0,0.5,0,0.6
		C289.6,330.7,289.3,330.4,289.4,330.2L289.4,330.2z M286,329.8c0.1-0.1,0.1-0.5,0.5-0.3s0,0.5,0,0.6C286.3,330,285.9,330,286,329.8
		L286,329.8z M285.9,332.3l0.3-0.2c0.2-0.2,0.6,0.1,0.2,0.3l-0.3,0.2C285.9,332.8,285.6,332.4,285.9,332.3L285.9,332.3z
		 M287.8,337.5l0.9-0.6c0.1-0.1,0.2,0,0.3,0c0.1,0.1,0,0.2,0,0.3l0,0l-0.9,0.6C287.8,338,287.6,337.7,287.8,337.5z M287.9,333.8
		l0.7-0.5c0.2-0.1,0.5,0.2,0.2,0.3l-0.7,0.5C287.9,334.4,287.7,334.1,287.9,333.8z M283.8,335.3l0.7-0.3c0.2-0.1,0.5,0.3,0.1,0.5
		l-0.7,0.3C283.7,335.9,283.5,335.4,283.8,335.3L283.8,335.3z M284.5,337.7l0.6-0.3c0.2-0.1,0.5,0.3,0.1,0.5l-0.6,0.3
		C284.5,338.3,284.3,337.8,284.5,337.7L284.5,337.7z M277.6,344.6l0.5-0.2c0.2-0.1,0.5,0.2,0.2,0.5l-0.5,0.2
		C277.5,345.2,277.4,344.7,277.6,344.6L277.6,344.6z M276.6,348.3l0.7-0.7c0.2-0.2,0.6,0.1,0.3,0.3l-0.7,0.7
		C276.7,348.9,276.3,348.6,276.6,348.3L276.6,348.3z M275.2,347.3l0.6-0.6c0.2-0.2,0.6,0.1,0.3,0.3l-0.6,0.6
		C275.4,347.8,275.1,347.5,275.2,347.3z M275,350.9l0.2-0.6c0-0.1,0.2-0.2,0.3-0.1c0.1,0,0.2,0.2,0.1,0.3l0,0l-0.2,0.6
		C275.2,351.4,274.9,351.2,275,350.9L275,350.9z M281.4,340.4l0.2-0.5c0.1-0.2,0.6-0.1,0.5,0.2l-0.2,0.5
		C281.8,340.9,281.3,340.6,281.4,340.4z M283,342.8c-0.1-0.1-0.1-0.2-0.1-0.3l0.5-0.7c0.1-0.1,0.2-0.1,0.3-0.1
		c0.1,0.1,0.1,0.2,0.1,0.3l0,0l-0.5,0.7C283.3,342.8,283.1,342.8,283,342.8L283,342.8z M281,344.7c-0.1-0.1,0-0.2,0-0.3l0.3-0.2
		c0.2-0.2,0.6,0.1,0.2,0.3l-0.3,0.2C281.2,344.8,281,344.8,281,344.7L281,344.7z M279.2,343.9c-0.1-0.1-0.1-0.2,0-0.3l0.8-0.8
		c0.2-0.2,0.6,0.1,0.3,0.3l-0.7,0.7C279.4,344,279.3,344,279.2,343.9L279.2,343.9z M285.2,340.1c0.1-0.1,0.2-0.6,0.5-0.5
		c0.3,0.1,0,0.5-0.1,0.7C285.5,340.4,285,340.4,285.2,340.1L285.2,340.1z M273.4,350L273.4,350c-0.1,0-0.2-0.2-0.1-0.3l0,0l0.6-1
		c0.1-0.2,0.6,0,0.5,0.2l-0.6,1C273.7,350.2,273.5,350.2,273.4,350L273.4,350z M283.5,339.7c-0.1-0.2,0.2-0.5,0.2-0.5
		c0.2-0.1,0.6,0.2,0.2,0.3l-0.2,0.2C283.6,339.8,283.5,339.8,283.5,339.7L283.5,339.7L283.5,339.7z M284.4,333.3l0.5-0.5
		c0.2-0.2,0.6,0.1,0.3,0.3l-0.5,0.5C284.5,333.8,284.3,333.4,284.4,333.3z M272.9,352.2l0.5-0.7c0.2-0.2,0.6,0,0.3,0.2l-0.5,0.7
		C273.2,352.8,272.7,352.4,272.9,352.2z M285.9,335.2c0.1-0.6,1-0.6,0.9-0.2c0,0.1-0.1,0.2-0.2,0.1c-0.1,0-0.2,0-0.2,0.1
		C286.2,335.5,285.9,335.4,285.9,335.2z M296.4,329.8c-0.1,0-0.1-0.2-0.1-0.2l0.2-0.5c0-0.1,0.2-0.2,0.3-0.1c0.3,0.1,0,0.5,0,0.7
		C296.7,329.8,296.5,329.8,296.4,329.8L296.4,329.8z M294.8,331.9l0.3-0.6c0.1-0.2,0.6-0.1,0.5,0.2l-0.3,0.6
		C295,332.4,294.7,332.1,294.8,331.9L294.8,331.9z M294.5,329.5l0.3-0.6c0.1-0.2,0.6-0.1,0.5,0.2l-0.3,0.6
		C294.7,330,294.2,329.9,294.5,329.5z M290.2,331.8l0.3-0.7c0.1-0.2,0.6-0.1,0.5,0.2l-0.3,0.7C290.5,332.3,290,332,290.2,331.8
		L290.2,331.8z M292.4,330.2l0.3-0.7c0.1-0.2,0.6-0.1,0.5,0.2l-0.3,0.7C292.7,330.7,292.3,330.4,292.4,330.2z M292.7,332.9
		c0.1-0.1,0.1-0.5,0.5-0.3s0,0.5,0,0.6C293,333.2,292.5,333.2,292.7,332.9L292.7,332.9z M293.3,335c-0.3-0.1,0-0.5,0-0.6
		s0.2-0.1,0.2-0.1c0.1,0,0.1,0.2,0.1,0.2l-0.1,0.2C293.7,335,293.4,335.1,293.3,335L293.3,335z M291.9,334.3
		c0.1-0.1,0.1-0.5,0.5-0.3c0.3,0.1,0,0.5,0,0.6C292.2,334.6,291.7,334.5,291.9,334.3L291.9,334.3z M290,333.5
		c0.1-0.1,0.1-0.5,0.5-0.3c0.3,0.1,0,0.5,0,0.6C290.4,333.8,289.9,333.7,290,333.5L290,333.5z M289.8,336.3c-0.1-0.1,0-0.2,0-0.3
		l0.3-0.2c0.2-0.2,0.6,0.1,0.2,0.3l-0.3,0.2C290,336.4,289.9,336.4,289.8,336.3L289.8,336.3z M291.9,336.1c-0.1,0-0.1-0.2-0.1-0.2
		s0-0.1,0.1-0.1l0.3-0.2c0.1-0.1,0.2,0,0.3,0.1c0.1,0.1,0,0.2-0.1,0.3l-0.3,0.2C292,336.2,292,336.2,291.9,336.1L291.9,336.1z
		 M288,339.5c-0.1,0-0.1-0.2-0.1-0.2l0.1-0.1l0.3-0.2c0.1,0,0.2,0,0.3,0.1c0,0.1,0,0.2-0.1,0.2l-0.3,0.2
		C288.1,339.5,288,339.5,288,339.5z M284.5,343c-0.1,0-0.1-0.2-0.1-0.2l0,0l0.7-0.7c0.1-0.1,0.2-0.1,0.3,0c0.1,0.1,0.1,0.2,0,0.3
		l0,0l-0.7,0.7C284.7,343,284.6,343,284.5,343L284.5,343z M281.4,342.7l-0.2-0.1l0.1-0.2c0.1-0.2,0.6,0,0.5,0.2l-0.1,0.2
		L281.4,342.7z M288.1,336c-0.2-0.2,0.1-0.5,0.2-0.6c0.2-0.2,0.6,0.1,0.3,0.3l-0.2,0.2C288.3,336.1,288.2,336.1,288.1,336L288.1,336
		z M281.1,346.3c-0.1-0.1-0.1-0.2,0-0.3l0,0l0.1-0.2c0.2-0.2,0.6,0,0.3,0.2l-0.1,0.2C281.3,346.4,281.2,346.4,281.1,346.3z
		 M291,337.9c-0.1,0-0.1-0.1-0.1-0.2c0.1-0.3,0.5-0.6,0.7-0.5c0.1,0,0.2,0.1,0.1,0.2c0,0.1-0.1,0.2-0.2,0.1c-0.1,0-0.2,0.1-0.2,0.1
		C291.2,337.8,291.1,337.9,291,337.9L291,337.9z M282.8,340.5l0.1-0.2c0.2-0.2,0.6,0.1,0.3,0.3l-0.1,0.2
		C283,341.1,282.7,340.8,282.8,340.5z M286,337.9l0.2-0.1c0.2-0.1,0.5,0.2,0.2,0.5l-0.2,0.1C286,338.5,285.7,338,286,337.9
		L286,337.9z M287,341.9c-0.1,0-0.1-0.2-0.1-0.2l0.2-0.5c0-0.1,0.2-0.1,0.2-0.1c0.1,0,0.1,0.2,0.1,0.2l0,0l-0.2,0.5
		C287.2,342,287.1,342,287,341.9L287,341.9z M282.5,343.8l0.2-0.5c0-0.1,0.2-0.1,0.2-0.1c0.1,0,0.1,0.2,0.1,0.2l0,0l-0.2,0.5
		C282.7,344.3,282.2,344.1,282.5,343.8L282.5,343.8z M287.6,331.4c0.1-0.1,0.1-0.5,0.5-0.3c0.3,0.1,0,0.5,0,0.6
		C287.9,331.7,287.4,331.7,287.6,331.4L287.6,331.4z"/>
</g>
</svg>
