<?xml version="1.0" encoding="utf-8"?>
<!-- Generator: Adobe Illustrator 24.3.0, SVG Export Plug-In . SVG Version: 6.00 Build 0)  -->
<svg version="1.1" id="Layer_1" xmlns="http://www.w3.org/2000/svg" xmlns:xlink="http://www.w3.org/1999/xlink" x="0px" y="0px"
	 viewBox="0 0 512 512" style="enable-background:new 0 0 512 512;" xml:space="preserve">
<style type="text/css">
	.st0{fill:#646D89;}
	.st1{fill:#9AA1B5;}
	.st2{fill:#F4F5F7;stroke:#646D89;stroke-width:6;stroke-miterlimit:10;}
	.st3{fill:#E9EBEF;}
	.st4{fill:#312C2C;}
	.st5{fill:#CDD1F9;}
	.st6{fill:#B6BCEF;}
	.st7{fill:#7C80C1;}
	.st8{fill:#424699;}
	.st9{fill:#5562AD;}
	.st10{fill:#252F8C;}
	.st11{fill:#241A22;}
	.st12{fill:#5354A6;}
	.st13{fill:#F9B46F;}
	.st14{fill:#F99B39;}
	.st15{fill:#FFFFFF;}
</style>
<g>
	<path class="st0" d="M449.7,108.1h-421C12.9,108.1,0,120.9,0,136.8v290.5C0,443.1,12.9,456,28.7,456h417.7c17.7,0,32-14.3,32-32
		l0,0V136.8C478.4,120.9,465.6,108.1,449.7,108.1z"/>
	<path class="st1" d="M449.7,108.1h-421C12.9,108.1,0,120.9,0,136.8v36.5h478.4v-36.5C478.4,120.9,465.6,108.1,449.7,108.1z"/>
	<path class="st2" d="M291.5,95.6l108.7-43.5L509,95.6V208c0,38.2-20,73.6-52.8,93.3l-55.9,33.6l-55.9-33.6
		c-32.8-19.7-52.8-55.1-52.8-93.3l-0.1-105.6L291.5,95.6L291.5,95.6z"/>
	<path class="st3" d="M39.1,379.9c-6,0-10.9,4.9-10.9,10.9s4.9,10.9,10.9,10.9h87c6,0,10.9-4.9,10.9-10.9s-4.9-10.9-10.9-10.9H39.1z
		"/>
	<path class="st3" d="M48.1,193.3c-11,0-19.9,7.7-19.9,17.2s8.9,17.2,19.9,17.2h159.6c11,0,19.9-7.7,19.9-17.2s-8.9-17.2-19.9-17.2
		H48.1z"/>
	<path class="st3" d="M39.1,245.1c-6,0-10.9,4.9-10.9,10.9s4.9,10.9,10.9,10.9h87c6,0,10.9-4.9,10.9-10.9s-4.9-10.9-10.9-10.9H39.1z
		"/>
	<path class="st3" d="M387,379.9c-4.2,0-7.7,4.9-7.7,10.9s3.4,10.9,7.7,10.9h61.5c4.2,0,7.7-4.9,7.7-10.9s-3.4-10.9-7.7-10.9H387z"
		/>
</g>
<g>
	<path class="st4" d="M433.8,215.9l-15.4-5.6c-0.5-0.2-0.8-0.6-1-1.1l-2-8.1c-0.2-0.8,0.3-1.6,1.1-1.8s1.6,0.3,1.8,1.1l1.8,7.3
		l14.6,5.4c0.8,0.3,1.2,1.1,0.9,1.9C435.5,215.8,434.6,216.2,433.8,215.9L433.8,215.9L433.8,215.9z"/>
	<path class="st4" d="M446.6,221c-2.8-7.9-11.4-5.2-11.8-5.1c-0.8,0.3-1.6-0.2-1.9-1s0.2-1.6,1-1.9l0,0c4.1-1.3,12.6-1.6,15.6,6.9
		c0.3,0.8-0.1,1.7-0.9,1.9C447.7,222.2,446.8,221.7,446.6,221z"/>
	<path class="st4" d="M438.4,230c-0.7-0.4-1-1.3-0.6-2c4-7.4-3.9-11.9-4.2-12.1c-0.7-0.4-1-1.3-0.5-2c0.4-0.7,1.3-1,2.1-0.6
		c3.7,2.1,9.7,8.2,5.4,16.2C440.1,230.1,439.1,230.4,438.4,230L438.4,230z"/>
	<path class="st4" d="M428.8,220.2c-0.7-0.5-0.9-1.4-0.5-2.1c2-3.2,5.2-4.9,5.3-5c0.7-0.4,1.7-0.1,2.1,0.6c0.4,0.7,0.1,1.7-0.6,2.1
		c-0.1,0-2.6,1.5-4.2,4C430.4,220.5,429.5,220.7,428.8,220.2L428.8,220.2z M434.4,198l-3.2-7.7c-0.3-0.8,0-1.7,0.8-2s1.7,0,2,0.8
		l0,0l2.9,6.9l15.3,2.8c0.8,0.1,1.4,0.9,1.2,1.7c-0.1,0.8-0.9,1.4-1.7,1.2l-16.1-2.9C435.1,198.8,434.6,198.5,434.4,198z"/>
	<path class="st4" d="M450.6,201c-0.4-0.7-0.1-1.6,0.7-2c3.8-2,12.2-3.6,16.5,4.3c0.4,0.7,0.1,1.6-0.6,2.1c-0.7,0.4-1.6,0.1-2.1-0.6
		c-4-7.3-12.1-3.3-12.5-3.1C451.9,202.1,451,201.8,450.6,201z"/>
	<path class="st4" d="M458.5,214.9L458.5,214.9c-0.8-0.3-1.2-1.1-0.9-1.9c2.7-7.8-5.8-11.1-6.1-11.3c-0.8-0.3-1.2-1.2-0.9-1.9
		c0.3-0.8,1.1-1.2,1.9-0.9l0,0c4,1.5,10.9,6.6,7.9,15.1C460.1,214.8,459.3,215.2,458.5,214.9L458.5,214.9z"/>
	<path class="st4" d="M445.2,205.6c-0.7-0.5-0.8-1.5-0.2-2.1l0,0c2.6-3.2,6.3-4.5,6.5-4.6c0.8-0.3,1.7,0.1,1.9,0.9
		c0.3,0.8-0.1,1.7-0.9,1.9c0,0-3.1,1.1-5.2,3.7C446.8,206,445.8,206.2,445.2,205.6L445.2,205.6L445.2,205.6z"/>
	<path class="st5" d="M456.5,161c-8.2,28-31.9,49.3-78.3,51l0,0l-33.8,33.8l-23.3-5.9l53-36.6c27.8-52.7,52-60,52.1-60.1
		c1.6-8.4,6.5-11.3,6.6-11.4l-3.6-8c24.2-8.7,34.3,4.1,34.4,4.1l3.7,2.4l-1.3,7.1c0,0-5.4,4.1-7.1,12.6
		C458.6,151.8,458,155.8,456.5,161L456.5,161z"/>
	<path class="st6" d="M456.5,161c-8.2,28.1-32.1,49.3-78.3,51l0,0l-33.8,33.8l-23.3-5.9l7.1-4.9l17.6,4.5l33.8-33.8l0,0
		c46.2-1.7,70.1-22.9,78.3-51c0.2-0.5,0.3-0.9,0.4-1.4C458,155.2,457.4,157.9,456.5,161L456.5,161z M460.5,143.6
		c1.5-7.1,5.5-11.2,6.7-12.3l-1.1,6.1c0,0-4,3.1-6.2,9.4C460.1,145.4,460.3,144.3,460.5,143.6L460.5,143.6z"/>
	<path class="st7" d="M464.4,128.3c-0.4,0.9-0.8,1.7-2,2.1c-1.4,0.5-3,0-4.4-0.6s-2.6-1.5-4.1-2c-1.4-0.5-3.1-0.6-4.3,0.3
		c-0.3,0.2-0.6,0.6-0.9,1c-1.4,1.8-2,4.1-1.8,6.3c0.7,8,0.7,10.5-5.3,16.4c-5,4.9-10.4,9.4-16.7,12.4c-6.3,3-13.6,4.3-20.3,2.8
		c-2.9-0.7-3.3-1.8-3.2-4c0-0.2,0-0.3,0-0.5c14.6-16.3,24.7-19.3,24.7-19.3c1.6-8.4,6.5-11.3,6.6-11.4l-3.6-8.1
		c24.2-8.8,34.3,4.1,34.4,4.1L464.4,128.3L464.4,128.3z"/>
	<path class="st6" d="M464.4,128.3c-0.4,0.9-0.8,1.7-2,2.1c-1.4,0.5-3,0-4.4-0.6c-2-0.9-5.6-3.6-8.3-1.6c-0.3,0.2-0.6,0.6-0.9,1
		c-3.8,4.9-0.1,9.8-2.1,15.7c-0.9,2.8-2.9,4.9-5,7c-5,4.9-10.4,9.4-16.7,12.4c-6.3,3-13.6,4.3-20.3,2.8c-2.9-0.7-3.3-1.9-3.2-4
		c0-0.2,0-0.3,0-0.5c0.1-0.1,0.2-0.2,0.3-0.3c0.5,0.3,1.1,0.4,1.6,0.5c6.8,1.6,14,0.2,20.3-2.8s11.7-7.5,16.7-12.4
		c5.7-5.7,6-8.3,5.3-16.4c-0.2-2.3,0.4-4.5,1.8-6.3c0.3-0.4,0.6-0.7,0.9-0.9c1.2-0.9,2.9-0.8,4.3-0.3c2.6,0.9,5.4,3.5,8.4,2.5
		c0.2-0.1,0.4-0.1,0.5-0.2c1.3,1.1,1.9,1.9,1.9,1.9l0.6,0.4L464.4,128.3z"/>
	<path class="st8" d="M438,131.4l0.1,0.3c0,0-5.5,3.7-6.1,4.3c-3.1,2.8-4.8,6.6-5.6,10.6c0,0-10,3.1-24.5,19.1
		c-0.5-0.7-0.5-1.6-0.5-2.5c0-0.2,0-0.3,0-0.5c14.6-16.2,24.7-19.4,24.7-19.4c0.9-4.8,3.2-8.5,5.6-10.6c0,0,0,0,0.1,0
		C433.7,130.9,435.8,131.1,438,131.4L438,131.4z M464.4,128.3c-0.4,0.8-0.7,1.5-1.5,1.9c-4.8-4.5-13-7.4-23.9-5.7
		c-3,0.5-5.7,1.2-8.5,2.1l-1.3-2.9c0.9-0.3,1.7-0.6,2.6-0.9c22.5-7,31.7,5,31.8,5L464.4,128.3L464.4,128.3z"/>
	<path class="st7" d="M424.9,175.1l-46.7,36.8l0,0l-33.8,33.8l-23.3-5.9l53-36.6c7.7-14.7,15.2-25.8,22-34.3L424.9,175.1z"/>
	<path class="st9" d="M424.9,175.1l-3,2.4l-21.6-4.6c-6.8,8.5-4.3,12.8-12,27.4l-60,41.4l-7.2-1.9l53-36.6
		c7.7-14.7,15.2-25.8,22-34.3L424.9,175.1z"/>
	<path class="st10" d="M345,245l-0.6,0.6l-16.8-10.3l0.8-0.5L345,245z M349,241l-0.6,0.6l-15.8-9.8l0.8-0.5L349,241z M353,237
		l-0.6,0.6l-14.9-9.2l0.8-0.5L353,237z M357.1,233l-0.6,0.6l-13.9-8.6l0.8-0.5L357.1,233z M361.1,229l-0.6,0.6l-13-8l0.8-0.5
		L361.1,229z M365.1,225l-0.6,0.6l-12-7.4l0.8-0.5L365.1,225z M369.1,221l-0.6,0.6l-11-6.8l0.8-0.5L369.1,221z M373.1,217l-0.6,0.6
		l-10.1-6.2l0.8-0.5L373.1,217z M377.1,213l-0.6,0.6l-9.2-5.7l0.8-0.5L377.1,213z M381.6,209.3l-0.7,0.6l-8.6-5.3l0.8-0.5
		L381.6,209.3z M386.2,205.6l-0.7,0.6l-9.7-6c0.1-0.2,0.3-0.5,0.4-0.8L386.2,205.6z"/>
	<path class="st11" d="M460.2,134.5c3.1-1.3,5.3-2.2,7.2-4.3c0,0,6.9-1.4,11,3.4l-12.3,3.7C464.5,135.9,462.8,134.6,460.2,134.5
		L460.2,134.5z"/>
	<path class="st12" d="M430.2,181.8c-11.5,11.9-31.4,21.2-65.5,21.9c22.2-25.9,43.6-54.6,61-60.3
		C443.9,151.3,442.9,168.5,430.2,181.8z"/>
	<path class="st8" d="M430.2,181.8c-11.5,11.9-31.4,21.2-65.5,21.9c3-3.5,6-7.1,9-10.6c29.4-1.9,47.3-10.6,57.8-21.6
		c3.7-3.8,6.3-8,7.9-12.1C440.4,166.6,437,174.7,430.2,181.8z"/>
	<path class="st11" d="M453.1,170.2c-3.4-5.4,0.2-11.9-2.3-21.5c-0.9-3.7-2.8-7.2-5.8-9.5c-3.8-3-7.7-3.4-12.3-7.6l-3.5-7.8
		c0.9-0.3,1.7-0.6,2.6-0.9c1.8,8.4,12.2,8.2,17.5,13.1c5,4.6,5.4,12.1,7.2,25C455.7,163.7,454.6,166.9,453.1,170.2L453.1,170.2z"/>
	<path class="st11" d="M444.5,136.2c-0.1-0.3,0.2-0.6,0.5-0.7l0,0l23.8-3.4c0.3,0,0.6,0.2,0.7,0.5c0,0.3-0.2,0.6-0.5,0.7l-23.8,3.4
		C444.8,136.8,444.6,136.6,444.5,136.2L444.5,136.2L444.5,136.2z"/>
	<ellipse class="st11" cx="456.6" cy="134.3" rx="2.9" ry="2.9"/>
	<circle class="st13" cx="456.6" cy="134.3" r="1.8"/>
	<path class="st14" d="M458.3,134.9c-0.3,1-1.4,1.5-2.3,1.2c-1.6-0.5-1.7-2.7-0.3-3.4C455.3,134.3,457,135.6,458.3,134.9
		C458.4,134.8,458.4,134.9,458.3,134.9z"/>
	<ellipse class="st4" cx="456.6" cy="134.3" rx="1" ry="1"/>
	<path class="st15" d="M456.4,134.1c-0.4-0.1-0.2-0.8,0.2-0.7C457.1,133.6,456.9,134.3,456.4,134.1z"/>
	<path class="st10" d="M423.8,159.9c-0.2,0.2-0.6,0.8-1.6,1.2c-2.9,1.5-5.7-1.1-4.9-4.6c0.2-0.8,0.5-1.2,0.5-1.2
		c0,0.1-0.2,7.3,5.4,4.9L423.8,159.9z M407.4,166.8c-0.1,0-0.6,0.3-1.5,0.3s-2.3-0.6-3-1.8s-0.4-2.3-0.2-3s0.6-0.9,0.6-0.9
		s0,0.4,0,1c0.1,1.8,1,3.4,2.7,4.1C406.8,166.8,407.4,166.8,407.4,166.8L407.4,166.8z M432.3,159c0,0-0.1,0.2-0.3,0.5
		c-2.5,3.5-6.7,1.5-6.4-2.8c0.1-0.9,0.3-1.2,0.3-1.2c0.1,0.1,1,7.3,5.9,3.9L432.3,159z M425.9,151.3c0,0-0.1,0.2-0.3,0.5
		c-2.6,3.5-6.7,1.4-6.4-2.8c0.1-0.9,0.3-1.2,0.3-1.2s0.1,0.5,0.3,1.2c1.1,3.4,2.8,4.7,5.7,2.7L425.9,151.3L425.9,151.3z
		 M438.7,166.4c-0.1,0.1-1.2,2.2-3.3,2.3c-1.8,0-3.6-1.6-3.4-4.6c0.1-0.9,0.3-1.2,0.3-1.2c0.1,0.1,1,7.3,5.9,3.9L438.7,166.4
		L438.7,166.4z M424.9,168.1c0,0-0.1,0.2-0.3,0.6c-1.7,2.8-4.4,3.1-6.1,1.5c-1.1-1-1.7-2.5-1.8-4c0-1,0.2-1.5,0.2-1.5
		c0.3,0.8,0.8,3.1,2.4,4.6c0.6,0.5,1.3,0.8,2,0.8s1.4-0.2,2-0.6C424.1,168.9,424.7,168.3,424.9,168.1L424.9,168.1z M435.3,155.3
		c0,0-0.1,0.1-0.4,0.4c-3.3,2.9-6.9-0.1-5.6-4.2c0.3-0.8,0.6-1.1,0.6-1.1s0,0.5,0,1.3C430.4,158.3,435.1,155.3,435.3,155.3
		L435.3,155.3z M428.5,148.2c-0.1,0.1-0.5,0.5-1.1,0.8c-2.1,1-4-1-3.2-3.6c0.2-0.6,0.4-0.8,0.4-0.8s0,0.3,0,0.9
		C424.9,150.4,428.3,148.2,428.5,148.2L428.5,148.2z M413.4,161.9c-0.2,0.1-0.6,0.7-1.6,1c-1.7,0.7-3.2,0-3.9-1.4
		c-0.7-1.5-0.3-2.8,0-3.5c0.3-0.8,0.6-1,0.6-1c0.1,0.2-1,6.8,4.4,5.1L413.4,161.9L413.4,161.9z M438.7,160.7c0,0-0.1,0.1-0.2,0.3
		c-1.5,2.2-4.1,0.8-3.8-1.8c0.1-0.5,0.3-0.7,0.3-0.7c0.2,0.6,0.4,1.6,1,2.3c0.7,0.8,1.5,0.6,2.4,0.1L438.7,160.7L438.7,160.7z
		 M432.6,173.1c-0.1,0.2-0.4,0.7-1,1.2c-2,1.6-4.7-0.2-4.3-3.2c0.1-0.7,0.4-1,0.4-1c0.2,0.3,0.7,5.5,4.6,3.2L432.6,173.1
		L432.6,173.1z M430,179.7c0,0-0.1,0.1-0.2,0.3c-1.7,2.4-4.5,0.8-4.1-1.9c0.1-0.6,0.3-0.8,0.3-0.8s0.1,0.3,0.2,0.8
		c0.7,2.1,1.6,2.9,3.5,1.8L430,179.7L430,179.7z M429.4,164.9c-0.1,0.2-0.4,0.7-1,1.2c-2.1,1.6-4.7-0.2-4.3-3.2c0.1-0.7,0.4-1,0.4-1
		s0.1,0.4,0.3,0.9c0.9,2.6,2,3.6,4.3,2.3L429.4,164.9L429.4,164.9z M400.2,177.1c-0.2,0.2-0.6,0.8-1.6,1.2c-3,1.5-5.7-1.2-4.9-4.6
		c0.2-0.8,0.5-1.2,0.5-1.2s0,0.5,0.1,1.2c0.5,3.5,2.1,5.1,5.3,3.6L400.2,177.1z M389.4,184.2c-0.1,0-0.5,0.3-1.2,0.4
		c-0.7,0.1-1.9-0.2-2.5-1.1c-0.6-0.8-0.8-2-0.3-2.9l0.1-0.2c0,0,0,0.3,0.1,0.7c0.3,1.5,1.3,2.6,2.7,2.9
		C388.8,184.2,389.4,184.2,389.4,184.2z M409.7,176.2c0,0-0.1,0.2-0.3,0.5c-2.5,3.6-6.7,1.5-6.4-2.8c0.1-0.9,0.3-1.2,0.3-1.2
		s0.1,0.5,0.3,1.2c1.1,3.4,2.8,4.7,5.7,2.7L409.7,176.2L409.7,176.2z M403.1,169.9c-0.1,0.2-0.3,0.6-1,1.1c-1.9,1.5-4.3-0.1-4.1-2.9
		c0.1-0.6,0.2-0.9,0.2-0.9c0.2,0.7,0.4,2,1.3,3c1,1,2.1,0.7,3.2-0.1L403.1,169.9L403.1,169.9z M414.4,182.7
		c-0.1,0.2-0.3,0.7-0.9,1.2c-1.9,1.6-4.5-0.1-4.1-2.8c0.1-0.6,0.3-0.9,0.3-0.9c0.2,0.7,0.6,1.9,1.4,2.8c0.8,1,1.9,0.7,3,0.1
		L414.4,182.7z M419.8,187.6c-0.1,0.2-0.3,0.7-0.9,1.2c-1.9,1.6-4.4,0-4.1-2.8c0.1-0.6,0.3-0.9,0.3-0.9c0.2,0.2,0.9,4.2,3.5,3.2
		C419.2,188,419.6,187.7,419.8,187.6z M414.6,191.2c0,0,0,0.1-0.1,0.2c-1.2,1.8-3.4,0.8-3.1-1.3c0.1-0.4,0.2-0.6,0.2-0.6
		c0.1,0.4,0.4,1.2,0.9,1.8s1.2,0.4,1.9,0L414.6,191.2L414.6,191.2z M426,176.2c-0.1,0.2-0.3,0.7-0.9,1.2c-0.4,0.3-0.9,0.6-1.6,0.6
		c-1.4,0.1-2.9-1.4-2.7-3.6c0.1-0.7,0.3-0.9,0.3-0.9c0.3,0.7,0.6,2,1.4,2.9c0.6,0.7,1.4,0.8,2.2,0.5
		C425.4,176.6,425.9,176.3,426,176.2z M399.5,185.3c-0.2,0.1-0.6,0.7-1.4,1c-2.1,1-4.2-0.4-4.3-2.9c0-1.5,0.6-2.3,0.6-2.4
		c0,0,0,0.4,0,1.1C394.8,188.3,399.3,185.4,399.5,185.3L399.5,185.3z M415,170c-0.1,0.2-0.5,0.9-1.3,1.5c-2.5,2-5.7-0.1-5.4-3.8
		c0.1-0.9,0.3-1.2,0.3-1.2c0.1,0.1,1,7.3,5.9,3.9L415,170z M392.6,179.8c-0.1,0.1-0.5,0.5-1.1,0.7c-2.1,0.8-3.7-1.2-2.8-3.5
		c0.2-0.5,0.5-0.7,0.5-0.7c0,0.7-0.1,1.8,0.3,2.9c0.6,1.1,1.6,1.1,2.8,0.8L392.6,179.8z M411.2,188.2c-0.1,0.1-0.5,0.5-1.2,0.8
		c-2.2,0.9-4.1-1.3-3.1-3.9c0.3-0.6,0.5-0.8,0.5-0.8c0.1,0.1-0.8,5.4,3.4,4L411.2,188.2L411.2,188.2z M419,177.7
		c-0.1,0.2-0.4,0.7-1,1.2c-2.1,1.6-4.7-0.3-4.3-3.2c0.1-0.7,0.4-1,0.4-1s0.1,0.4,0.3,0.9c0.8,2.5,2,3.6,4.3,2.3L419,177.7L419,177.7
		z M388.5,193.7c-0.1,0.1-0.4,0.5-1.1,0.8c-2.1,1-4-1.1-3-3.6c0.2-0.5,0.5-0.8,0.5-0.8s0,0.3,0,0.9c0.2,2.3,1,3.5,3.3,2.7
		L388.5,193.7L388.5,193.7z M385.2,186.9c0,0-0.1,0.1-0.1,0.2c-0.1,0.2-0.3,0.4-0.5,0.6c-1.4,1.1-3.2-0.2-2.9-2.2
		c0.1-0.5,0.3-0.7,0.3-0.7s0.1,0.2,0.2,0.6c0.6,1.7,1.3,2.4,2.9,1.5L385.2,186.9L385.2,186.9z M382,192.3c0,0-0.1,0.1-0.3,0.2
		c-2.2,1.7-4.4-0.5-3.3-2.9c0.3-0.5,0.5-0.7,0.5-0.7s0,0.3,0,0.8c0.1,2.1,0.7,3.2,2.8,2.7L382,192.3L382,192.3z M379.1,195.6
		c0,0-0.1,0.1-0.2,0.3c-1.6,2.4-4.5,0.8-4-1.9c0.1-0.6,0.3-0.8,0.3-0.8l0.2,0.7c0.7,2,1.5,2.8,3.4,1.8L379.1,195.6z M375.8,199.6
		c0,0-0.1,0.1-0.2,0.3c-1.5,2.2-4.2,0.8-3.8-1.8c0.1-0.5,0.3-0.7,0.3-0.7c0.2,0.4,0.5,2.5,1.8,2.8c0.5,0.1,1.2-0.1,1.7-0.4
		L375.8,199.6L375.8,199.6z M392.5,189.2c-0.1,0.2-0.4,0.7-1,1.2c-2.1,1.6-4.7-0.3-4.3-3.2c0.1-0.7,0.4-1,0.4-1
		c0.3,0.8,0.5,2.1,1.3,3.1c0.9,1.1,2.1,0.8,3.3,0.1L392.5,189.2L392.5,189.2z M406.8,182.1c-0.1,0.2-0.4,0.7-1,1.2
		c-2,1.6-4.7-0.2-4.3-3.2c0.1-0.7,0.4-1,0.4-1s0.1,0.4,0.3,0.9c0.9,2.6,2,3.6,4.3,2.3L406.8,182.1L406.8,182.1z M415.4,156.7
		c-0.1,0-0.5,0.3-1.2,0.3s-1.8-0.4-2.4-1.4c-0.5-1-0.3-1.8-0.1-2.3c0.3-0.5,0.5-0.6,0.5-0.6c0,0.1,0,2.7,2,3.7
		C414.9,156.7,415.4,156.7,415.4,156.7L415.4,156.7z M399.1,192.2c0,0-0.1,0.1-0.3,0.2c-2.2,1.7-4.4-0.5-3.3-2.9
		c0.3-0.5,0.5-0.7,0.5-0.7c0,0.7-0.1,1.7,0.3,2.6c0.5,1,1.4,1.1,2.4,0.8L399.1,192.2L399.1,192.2z M386.1,197.2c0,0-0.1,0.1-0.2,0.3
		c-1.5,2.2-4.2,0.8-3.8-1.8c0.1-0.5,0.3-0.7,0.3-0.7c0.2,0.4,0.5,2.5,1.8,2.8c0.5,0.1,1.2-0.1,1.7-0.4L386.1,197.2L386.1,197.2z
		 M396.1,194.8c0,0-0.1,0.1-0.2,0.3c-1.5,2.2-4.2,0.8-3.8-1.8c0.1-0.5,0.3-0.7,0.3-0.7c0.2,0.7,0.4,1.6,1,2.3
		c0.7,0.8,1.6,0.6,2.5,0.1L396.1,194.8L396.1,194.8z M392.9,197.9c0,0-0.1,0.1-0.2,0.3c-1.5,2.2-4.2,0.8-3.8-1.8
		c0.1-0.5,0.3-0.7,0.3-0.7c0.2,0.6,0.4,1.6,1,2.3c0.7,0.8,1.6,0.6,2.5,0.1L392.9,197.9L392.9,197.9z M382.9,200.1
		c0,0-0.1,0.1-0.2,0.3c-1.5,2.2-4.2,0.8-3.8-1.8c0.1-0.5,0.3-0.7,0.3-0.7c0.2,0.4,0.5,2.5,1.8,2.8c0.5,0.1,1.2-0.1,1.7-0.4
		L382.9,200.1L382.9,200.1z M407.8,192.1c-0.2,0.1-0.6,0.7-1.4,1c-2.1,1-4.2-0.4-4.3-2.9c0-1.5,0.6-2.3,0.6-2.4c0,0,0,0.4,0,1.1
		C403.2,195,407.6,192.1,407.8,192.1z M424.3,183.8c-0.2,0.1-0.6,0.7-1.4,1c-2.1,1-4.2-0.4-4.3-2.9c0-1.5,0.6-2.3,0.6-2.4
		c0,0,0,0.4,0,1.1c0.2,3.2,1.6,4.8,4.6,3.4L424.3,183.8L424.3,183.8z"/>
	<path class="st7" d="M447.8,166.8L447.8,166.8c-0.1,0-0.2-0.2-0.1-0.3l0.3-0.8c0.1-0.3,0.6-0.1,0.5,0.2l-0.3,0.8
		C448.1,166.8,447.9,166.9,447.8,166.8z M445.8,167.5c-0.4-0.1-0.1-0.6,0-0.9c0-0.1,0.2-0.2,0.3-0.2c0.4,0.1,0.1,0.6,0,0.9
		C446.1,167.4,445.9,167.5,445.8,167.5L445.8,167.5z M445,164.4c-0.1,0-0.2-0.2-0.2-0.3l0.1-0.5c0.1-0.3,0.6-0.2,0.5,0.1l-0.1,0.5
		C445.3,164.3,445.2,164.4,445,164.4L445,164.4L445,164.4z M443.6,167.1l0.2-0.7c0.1-0.3,0.6-0.2,0.5,0.2l-0.2,0.7
		C443.9,167.5,443.5,167.4,443.6,167.1z M442.7,164.5l0.2-0.7c0.1-0.3,0.6-0.2,0.5,0.2l-0.2,0.7C443.1,165,442.6,164.8,442.7,164.5z
		 M440.1,168.1l0.3-0.9c0.1-0.3,0.6-0.2,0.5,0.2l-0.3,0.9C440.4,168.6,439.9,168.4,440.1,168.1z M440.6,165.6l0.3-0.9
		c0.1-0.3,0.6-0.2,0.5,0.2l-0.3,0.9C440.9,166.1,440.5,165.9,440.6,165.6L440.6,165.6z M441.3,168.6c0.1-0.1,0.1-0.6,0.4-0.5
		c0.4,0.1,0.1,0.5,0.1,0.6C441.8,168.9,441.2,168.9,441.3,168.6L441.3,168.6z M442.3,170.5c0.1-0.1,0.1-0.6,0.4-0.5s0.1,0.5,0.1,0.6
		C442.7,171,442.2,170.9,442.3,170.5L442.3,170.5z M438.4,170.6c0.1-0.1,0.1-0.6,0.4-0.5c0.4,0.1,0.1,0.5,0.1,0.6
		C438.9,170.9,438.3,170.9,438.4,170.6L438.4,170.6z M438.8,173.4l0.4-0.4c0.2-0.3,0.6,0.1,0.4,0.4l-0.4,0.4
		C438.9,174,438.5,173.7,438.8,173.4L438.8,173.4z M441.9,179l0.9-0.8c0.1-0.1,0.3-0.1,0.4,0s0.1,0.3,0,0.4l0,0l-0.9,0.8
		C442,179.6,441.6,179.2,441.9,179z M441.4,174.9l0.7-0.7c0.3-0.2,0.6,0.2,0.3,0.4l-0.7,0.7C441.4,175.5,441.1,175.1,441.4,174.9z
		 M437,177.3l0.7-0.5c0.3-0.2,0.6,0.3,0.3,0.5l-0.7,0.5C437,177.9,436.7,177.5,437,177.3L437,177.3z M438.3,179.9l0.6-0.4
		c0.3-0.2,0.6,0.3,0.3,0.5l-0.6,0.4C438.3,180.5,438,180,438.3,179.9L438.3,179.9z M431.7,188.8l0.5-0.3c0.3-0.2,0.6,0.2,0.3,0.4
		l-0.5,0.3C431.7,189.5,431.4,189,431.7,188.8L431.7,188.8z M431.2,193.3l0.6-0.9c0.2-0.3,0.6,0,0.4,0.3l-0.6,0.9
		C431.4,193.9,431,193.6,431.2,193.3L431.2,193.3z M429.5,192.3l0.5-0.8c0.2-0.3,0.6,0,0.4,0.3l-0.5,0.8
		C429.8,192.8,429.4,192.6,429.5,192.3z M429.9,196.5l0.2-0.7c0-0.1,0.2-0.2,0.3-0.2c0.1,0,0.2,0.2,0.2,0.3l0,0l-0.2,0.7
		C430.2,196.9,429.8,196.8,429.9,196.5L429.9,196.5z M435.3,183.5l0.2-0.5c0.1-0.3,0.6-0.2,0.5,0.2l-0.2,0.5
		C435.7,183.9,435.2,183.8,435.3,183.5z M437.4,185.8c-0.1-0.1-0.2-0.2-0.1-0.3l0.4-0.9c0.1-0.1,0.2-0.2,0.3-0.1
		c0.1,0.1,0.2,0.2,0.1,0.3l0,0l-0.4,0.9C437.7,185.8,437.6,185.8,437.4,185.8L437.4,185.8z M435.5,188.4c-0.1-0.1-0.1-0.3,0-0.4
		l0.4-0.4c0.2-0.3,0.6,0.1,0.4,0.4l-0.4,0.4C435.8,188.5,435.6,188.5,435.5,188.4L435.5,188.4z M433.3,187.8
		c-0.1-0.1-0.1-0.2-0.1-0.3l0.7-1c0.2-0.3,0.6,0,0.4,0.3l-0.7,0.9C433.6,187.8,433.4,187.9,433.3,187.8L433.3,187.8z M439.4,182.4
		c0.1-0.1,0.1-0.7,0.5-0.6c0.4,0.1,0.1,0.5,0,0.7C439.9,182.8,439.3,182.8,439.4,182.4L439.4,182.4z M428,195.8L428,195.8
		c-0.1,0-0.2-0.2-0.1-0.3l0,0l0.5-1.3c0.1-0.3,0.6-0.1,0.5,0.2l-0.5,1.3C428.3,195.7,428.2,195.8,428,195.8L428,195.8z M437.4,182.3
		c-0.2-0.2,0.1-0.5,0.2-0.6c0.2-0.2,0.6,0.1,0.4,0.4l-0.2,0.2C437.7,182.4,437.5,182.4,437.4,182.3L437.4,182.3L437.4,182.3z
		 M437.3,174.8l0.4-0.5c0.2-0.3,0.6,0,0.4,0.3l-0.4,0.5C437.6,175.4,437.2,175.1,437.3,174.8z M427.8,198.2l0.4-0.8
		c0.2-0.3,0.6-0.1,0.4,0.2l-0.4,0.8C428.2,198.8,427.7,198.5,427.8,198.2z M439.4,176.7c0.1-0.7,1-0.9,1-0.4c0,0.1-0.1,0.3-0.2,0.2
		c-0.1,0-0.2,0.1-0.2,0.2C439.8,177.1,439.3,177.1,439.4,176.7z M450.2,168.8c-0.1,0-0.2-0.2-0.2-0.3l0.1-0.5c0-0.1,0.2-0.2,0.3-0.2
		c0.4,0.1,0.1,0.6,0.1,0.8C450.5,168.7,450.4,168.8,450.2,168.8L450.2,168.8z M448.8,171.4l0.2-0.7c0.1-0.3,0.6-0.2,0.5,0.2
		l-0.2,0.7C449.2,171.9,448.7,171.8,448.8,171.4L448.8,171.4z M448,168.9l0.2-0.7c0.1-0.3,0.6-0.2,0.5,0.2l-0.2,0.7
		C448.3,169.4,447.8,169.2,448,168.9z M443.6,172.1l0.3-0.9c0.1-0.3,0.6-0.2,0.5,0.2l-0.3,0.9C444,172.6,443.5,172.4,443.6,172.1
		L443.6,172.1z M445.8,170l0.3-0.9c0.1-0.3,0.6-0.2,0.5,0.2l-0.3,0.9C446.2,170.5,445.7,170.3,445.8,170z M446.5,173
		c0.1-0.1,0.1-0.6,0.4-0.5c0.4,0.1,0.1,0.5,0.1,0.6C447,173.3,446.4,173.3,446.5,173L446.5,173z M447.7,175.2
		c-0.4-0.1-0.1-0.5-0.1-0.6s0.2-0.2,0.3-0.2c0.1,0,0.2,0.2,0.2,0.3L448,175C448,175.1,447.9,175.2,447.7,175.2L447.7,175.2z
		 M445.9,174.7c0.1-0.1,0.1-0.6,0.4-0.5c0.4,0.1,0.1,0.5,0.1,0.6C446.4,174.9,445.8,175,445.9,174.7L445.9,174.7z M443.7,174.1
		c0.1-0.1,0.1-0.6,0.4-0.5c0.4,0.1,0.1,0.5,0.1,0.6C444.2,174.4,443.6,174.4,443.7,174.1L443.7,174.1z M444,177.4
		c-0.1-0.1-0.1-0.3,0-0.4l0.4-0.4c0.2-0.3,0.6,0.1,0.4,0.4l-0.4,0.4C444.3,177.5,444.1,177.5,444,177.4L444,177.4z M446.3,176.7
		c-0.1,0-0.2-0.2-0.2-0.3c0,0,0-0.1,0.1-0.1l0.3-0.3c0.1-0.1,0.3-0.1,0.4,0s0.1,0.3,0,0.4l-0.3,0.3
		C446.4,176.8,446.3,176.8,446.3,176.7L446.3,176.7z M442.5,181.2c-0.1,0-0.2-0.2-0.2-0.3s0.1-0.1,0.1-0.1l0.4-0.3
		c0.1-0.1,0.3,0,0.4,0.1s0,0.3-0.1,0.3l-0.4,0.3C442.6,181.2,442.5,181.2,442.5,181.2z M439.2,185.8c-0.1,0-0.2-0.2-0.2-0.3v-0.1
		l0.6-0.9c0.1-0.1,0.2-0.1,0.4-0.1c0.1,0.1,0.1,0.2,0.1,0.4l0,0l-0.6,0.9C439.4,185.7,439.3,185.8,439.2,185.8L439.2,185.8z
		 M435.7,185.9l-0.2-0.1l0.1-0.3c0.1-0.3,0.6-0.1,0.5,0.2L436,186L435.7,185.9z M442,177.3c-0.3-0.2,0.1-0.5,0.1-0.6
		c0.2-0.3,0.6,0,0.4,0.3l-0.2,0.3C442.3,177.3,442.1,177.3,442,177.3L442,177.3z M436,190.2c-0.1-0.1-0.2-0.2-0.1-0.4l0,0l0.1-0.3
		c0.2-0.3,0.6-0.1,0.4,0.2l-0.1,0.3C436.3,190.2,436.1,190.2,436,190.2z M445.5,178.9c-0.1,0-0.2-0.2-0.2-0.3c0-0.4,0.4-0.7,0.7-0.7
		c0.1,0,0.3,0.1,0.2,0.2c0,0.1-0.1,0.3-0.2,0.2c-0.1,0-0.2,0.1-0.2,0.2C445.8,178.8,445.7,178.9,445.5,178.9L445.5,178.9z
		 M436.9,183.3l0.1-0.2c0.2-0.3,0.6,0,0.4,0.3l-0.1,0.2C437.2,183.9,436.7,183.6,436.9,183.3z M440,179.8l0.3-0.2
		c0.3-0.2,0.6,0.2,0.3,0.4l-0.3,0.2C440,180.4,439.7,180,440,179.8L440,179.8z M441.8,184.2c-0.1,0-0.2-0.2-0.2-0.3l0.2-0.5
		c0-0.1,0.2-0.2,0.3-0.2c0.1,0,0.2,0.2,0.2,0.3l0,0l-0.2,0.5C442,184.2,441.9,184.2,441.8,184.2L441.8,184.2z M437,187.1l0.2-0.6
		c0-0.1,0.2-0.2,0.3-0.2c0.1,0,0.2,0.2,0.2,0.3l0,0l-0.2,0.6C437.4,187.6,436.9,187.4,437,187.1L437,187.1z M440.6,172.2
		c0.1-0.1,0.1-0.6,0.4-0.5c0.4,0.1,0.1,0.5,0.1,0.6C441,172.5,440.5,172.5,440.6,172.2L440.6,172.2z"/>
</g>
</svg>
