<?xml version="1.0" encoding="utf-8"?>
<!-- Generator: Adobe Illustrator 24.3.0, SVG Export Plug-In . SVG Version: 6.00 Build 0)  -->
<svg version="1.1" id="Layer_1" xmlns="http://www.w3.org/2000/svg" xmlns:xlink="http://www.w3.org/1999/xlink" x="0px" y="0px"
	 viewBox="0 0 512 512" style="enable-background:new 0 0 512 512;" xml:space="preserve">
<style type="text/css">
	.st0{clip-path:url(#SVGID_2_);}
	.st1{fill:#470006;}
	.st2{fill:none;stroke:#FFFFFF;stroke-width:15;stroke-linecap:round;stroke-linejoin:round;stroke-miterlimit:10;}
	.st3{fill:#FF3345;}
	.st4{fill:#FF959E;}
	.st5{fill:#312C2C;}
	.st6{fill:#CDD1F9;}
	.st7{fill:#B6BCEF;}
	.st8{fill:#7C80C1;}
	.st9{fill:#424699;}
	.st10{fill:#5562AD;}
	.st11{fill:#252F8C;}
	.st12{fill:#241A22;}
	.st13{fill:#5354A6;}
	.st14{fill:#F9B46F;}
	.st15{fill:#F99B39;}
	.st16{fill:#FFFFFF;}
</style>
<g>
	<defs>
		<rect id="SVGID_1_" y="0" width="512" height="512"/>
	</defs>
	<clipPath id="SVGID_2_">
		<use xlink:href="#SVGID_1_"  style="overflow:visible;"/>
	</clipPath>
	<g transform="matrix(1.33333 0 0 -1.33333 0 682.667)" class="st0">
		<path class="st1" d="M370.9,317.4l12.9,11.9C379,431,294.9,512,192,512C88.5,512,4.2,430.2,0.2,327.7l8.3-10.2l-7.9-12.3
			C8.1,206.1,90.9,128,192,128c101.6,0,184.7,78.9,191.5,178.7L370.9,317.4z"/>
		<path class="st2" d="M189,179h90"/>
		<path class="st2" d="M83.3,419h45"/>
		<path class="st2" d="M163.5,225.5h45"/>
		<path class="st3" d="M349,493.8c-26.2,11.7-47.5-12.1-47.5-12.1s-21.2,23.7-47.5,12.1s-26.2-50.4-2.9-76.2s43.3-37,50.4-37
			s27.1,11.2,50.4,37C375.2,443.4,375.2,482.1,349,493.8"/>
		<path class="st4" d="M329,320.1l-20.6-48.8l-26.3,74.6c-2,5.7-7.2,9.6-13.3,10c-6,0.4-11.7-2.9-14.3-8.3L235.2,308l-29.3,86.4
			c-2,6-7.5,10-13.8,10.2c-0.1,0-0.3,0-0.4,0c-6.2,0-11.6-3.7-13.9-9.4l-26.2-65.4h-22.4c-6.1,0-11.5-3.6-13.9-9.3l-20.2-48.8
			l-28.2,81.6c-2,5.8-7.3,9.8-13.4,10.1c-6.1,0.3-11.8-3.1-14.4-8.7l-12.5-27H0.2C0.1,325.1,0,322.6,0,320c0-5,0.2-9.9,0.6-14.8
			h30.8c5.8,0,11.2,3.4,13.6,8.7l6.7,14.5l28.6-82.7c2.1-5.9,7.4-9.9,13.7-10.1c6.3-0.2,11.9,3.4,14.3,9.2l25.9,62.4h22.5
			c6.2,0,11.6,3.7,13.9,9.4l20.5,51.3l28.6-84.3c1.9-5.8,7.2-9.8,13.2-10.2c6.1-0.4,11.7,2.9,14.4,8.3l19.5,39.7l26.8-76.1
			c2.1-5.9,7.5-9.8,13.7-10c0.2,0,0.3,0,0.5,0c6.1,0,11.4,3.6,13.8,9.2l26.2,62.1h35.7c0.3,4.4,0.5,8.8,0.5,13.3
			c0,3.1-0.1,6.2-0.2,9.2h-40.9C336.8,329.2,331.4,325.6,329,320.1"/>
		<path class="st3" d="M140.3,318.5c0,6.2,5,11.3,11.3,11.3h-22.4c-6.1,0-11.5-3.6-13.9-9.3l-20.2-48.8l-28.2,81.6
			c-2,5.8-7.3,9.8-13.4,10.1c-6.1,0.3-11.8-3.1-14.4-8.7l-12.5-27H0.2C0.1,325.1,0,322.6,0,320c0-5,0.2-9.9,0.6-14.8h30.8
			c5.8,0,11.2,3.4,13.6,8.7l6.7,14.5l28.6-82.7c2.1-5.9,7.4-9.9,13.7-10.1c6.3-0.2,11.9,3.4,14.3,9.2l25.9,62.4h17.4
			C145.4,307.2,140.3,312.3,140.3,318.5"/>
		<g>
			<path class="st5" d="M320.2,426.8l-7.1,3.2c-0.2,0.1-0.4,0.3-0.4,0.5l-0.6,3.9c-0.1,0.4,0.2,0.8,0.6,0.8c0.4,0.1,0.8-0.2,0.8-0.6
				l0.6-3.6l6.8-3.1c0.4-0.2,0.5-0.6,0.4-1C321,426.8,320.6,426.7,320.2,426.8C320.2,426.8,320.2,426.8,320.2,426.8L320.2,426.8z"/>
			<path class="st5" d="M326.1,424c-1,3.9-5.3,2.9-5.5,2.8c-0.4-0.1-0.8,0.1-0.9,0.5c-0.1,0.4,0.1,0.8,0.5,0.9l0,0
				c2,0.5,6.1,0.3,7.2-3.9c0.1-0.4-0.1-0.8-0.5-0.9C326.6,423.3,326.2,423.6,326.1,424z"/>
			<path class="st5" d="M321.9,420c-0.3,0.2-0.4,0.7-0.2,1c2.2,3.4-1.4,5.8-1.6,5.9c-0.3,0.2-0.4,0.7-0.2,1c0.2,0.3,0.7,0.4,1,0.2
				c1.7-1.1,4.3-4.3,2-7.9C322.7,419.9,322.2,419.8,321.9,420L321.9,420z"/>
			<path class="st5" d="M317.6,425c-0.3,0.2-0.4,0.7-0.1,1c1.1,1.4,2.6,2.2,2.7,2.2c0.4,0.2,0.8,0,1-0.3c0.2-0.4,0-0.8-0.3-1
				c0,0-1.3-0.6-2.1-1.7C318.4,424.8,317.9,424.7,317.6,425L317.6,425z M321.1,435.4l-1.3,3.8c-0.1,0.4,0.1,0.8,0.4,0.9
				c0.4,0.1,0.8-0.1,0.9-0.4l0,0l1.1-3.4l7.2-1.9c0.4-0.1,0.6-0.5,0.5-0.9c-0.1-0.4-0.5-0.6-0.9-0.5l-7.6,2
				C321.4,434.9,321.2,435.1,321.1,435.4z"/>
			<path class="st5" d="M328.7,433.4c-0.1,0.4,0,0.8,0.4,0.9c1.9,0.8,5.9,1.3,7.7-2.7c0.2-0.4,0-0.8-0.4-1c-0.4-0.2-0.8,0-1,0.4
				c-1.6,3.7-5.7,2-5.8,1.9C329.3,432.8,328.9,433,328.7,433.4z"/>
			<path class="st5" d="M332,426.4L332,426.4c-0.4,0.2-0.5,0.6-0.4,1c1.6,3.6-2.3,5.5-2.5,5.6c-0.4,0.2-0.5,0.6-0.3,1
				c0.2,0.4,0.6,0.5,0.9,0.4l0,0c1.9-0.9,5-3.5,3.2-7.5C332.8,426.4,332.4,426.3,332,426.4L332,426.4z"/>
			<path class="st5" d="M326,431.3c-0.3,0.3-0.3,0.7,0,1l0,0c1.3,1.4,3.2,1.9,3.3,2c0.4,0.1,0.8-0.1,0.9-0.5
				c0.1-0.4-0.1-0.8-0.5-0.9c0,0-1.5-0.4-2.6-1.6C326.7,431.1,326.3,431.1,326,431.3L326,431.3L326,431.3z"/>
			<path class="st6" d="M333,452.3c-4.9-13.1-17-22.4-39.2-21.5l0,0l-17.4-14.9l-10.9,3.7l26.7,15.6c15.2,24.2,27,26.8,27.1,26.8
				c1.1,3.9,3.5,5.2,3.6,5.2l-1.4,4c11.9,3.3,16.2-3.2,16.3-3.2l1.7-1.3l-0.9-3.4c0,0-2.7-1.8-3.8-5.7
				C334.3,456.6,333.9,454.7,333,452.3L333,452.3z"/>
			<path class="st7" d="M333,452.3c-4.9-13.1-17.1-22.4-39.2-21.5l0,0l-17.4-14.9l-10.9,3.7l3.6,2.1l8.2-2.8l17.4,14.9l0,0
				c22.1-0.9,34.3,8.4,39.2,21.5c0.1,0.2,0.2,0.4,0.2,0.7C333.9,455,333.5,453.7,333,452.3L333,452.3z M335.5,460.4
				c1,3.4,3,5.1,3.7,5.6l-0.7-2.9c0,0-2-1.3-3.3-4.3C335.3,459.6,335.4,460.1,335.5,460.4L335.5,460.4z"/>
			<path class="st8" d="M338,467.6c-0.2-0.4-0.5-0.8-1-0.9c-0.7-0.2-1.4,0.1-2.1,0.4c-0.6,0.4-1.2,0.8-1.9,1.1
				c-0.6,0.3-1.5,0.4-2.1,0c-0.2-0.1-0.3-0.2-0.5-0.4c-0.7-0.8-1.1-1.9-1.1-3c0-3.8,0-5-3.1-7.6c-2.5-2.2-5.3-4.1-8.4-5.3
				c-3.1-1.2-6.6-1.6-9.8-0.6c-1.4,0.4-1.5,1-1.4,2c0,0.1,0,0.2,0,0.2c7.6,7.2,12.5,8.3,12.5,8.3c1.1,3.9,3.5,5.2,3.6,5.2l-1.4,4
				c11.9,3.3,16.2-3.2,16.3-3.2L338,467.6L338,467.6z"/>
			<path class="st7" d="M338,467.6c-0.2-0.4-0.5-0.8-1-0.9c-0.7-0.2-1.4,0.1-2.1,0.4c-0.9,0.5-2.6,1.9-3.9,1.1
				c-0.2-0.1-0.3-0.2-0.5-0.4c-2-2.2-0.4-4.7-1.6-7.4c-0.5-1.3-1.6-2.2-2.6-3.2c-2.5-2.2-5.3-4.1-8.4-5.3c-3.1-1.2-6.6-1.6-9.8-0.6
				c-1.4,0.4-1.5,1-1.4,2c0,0.1,0,0.2,0,0.2c0.1,0,0.1,0.1,0.2,0.1c0.2-0.1,0.5-0.2,0.8-0.3c3.2-1,6.7-0.6,9.8,0.6
				c3.1,1.2,5.9,3.1,8.4,5.3c2.9,2.5,3.2,3.8,3.1,7.6c0,1.1,0.4,2.1,1.1,3c0.2,0.2,0.3,0.3,0.5,0.4c0.6,0.4,1.4,0.3,2.1,0
				c1.2-0.5,2.5-1.9,3.9-1.5c0.1,0,0.2,0.1,0.3,0.1c0.6-0.6,0.9-1,0.9-1L338,467.6L338,467.6z"/>
			<path class="st9" d="M325.2,467.1l0-0.1c0,0-2.8-1.6-3.1-1.8c-1.6-1.2-2.5-3-3.1-4.9c0,0-4.9-1.1-12.4-8.2
				c-0.2,0.4-0.2,0.8-0.1,1.2c0,0.1,0,0.2,0,0.2c7.6,7.2,12.5,8.4,12.5,8.4c0.6,2.3,1.8,4,3,4.9c0,0,0,0,0,0
				C323.2,467.5,324.2,467.3,325.2,467.1L325.2,467.1z M338,467.6c-0.2-0.4-0.4-0.7-0.8-0.8c-2.1,2.3-6,4-11.2,3.6
				c-1.4-0.1-2.8-0.4-4.1-0.7l-0.5,1.4c0.4,0.1,0.8,0.2,1.3,0.3c11,2.5,15-3.5,15-3.5L338,467.6L338,467.6z"/>
			<path class="st8" d="M317.4,446.7l-23.6-15.9l0,0l-17.4-14.9l-10.9,3.7l26.7,15.6c4.2,6.7,8.2,11.8,11.7,15.6L317.4,446.7z"/>
			<path class="st10" d="M317.4,446.7l-1.5-1l-10.2,3c-3.5-3.8-2.5-5.9-6.7-12.7l-30.1-17.6l-3.4,1.1l26.7,15.6
				c4.2,6.7,8.2,11.8,11.7,15.6L317.4,446.7z"/>
			<path class="st11" d="M276.7,416.1l-0.3-0.3l-7.6,5.5l0.4,0.2L276.7,416.1z M278.8,417.9l-0.3-0.3l-7.2,5.2l0.4,0.2L278.8,417.9z
				 M280.8,419.7l-0.3-0.3l-6.8,4.9l0.4,0.2L280.8,419.7z M282.9,421.4l-0.3-0.3l-6.3,4.6l0.4,0.2L282.9,421.4z M285,423.2l-0.3-0.3
				l-5.9,4.3l0.4,0.2L285,423.2z M287,425l-0.3-0.3l-5.5,4l0.4,0.2L287,425z M289.1,426.7l-0.3-0.3l-5,3.7l0.4,0.2L289.1,426.7z
				 M291.1,428.5l-0.3-0.3l-4.6,3.3l0.4,0.2L291.1,428.5z M293.2,430.3l-0.3-0.3l-4.2,3l0.4,0.2L293.2,430.3z M295.5,431.9l-0.4-0.2
				l-3.9,2.8l0.4,0.2L295.5,431.9z M297.8,433.5l-0.4-0.2l-4.4,3.2c0.1,0.1,0.1,0.2,0.2,0.4L297.8,433.5z"/>
			<path class="st12" d="M335.7,464.8c1.5,0.5,2.6,0.9,3.6,1.8c0,0,3.4,0.4,5.1-2l-6-1.3C337.7,464,336.9,464.7,335.7,464.8
				L335.7,464.8z"/>
			<path class="st13" d="M319.7,443.3c-5.9-5.3-15.8-9-32.1-8.1c11.5,11.6,22.8,24.5,31.3,26.6C327.3,457.3,326.2,449.2,319.7,443.3
				z"/>
			<path class="st9" d="M319.7,443.3c-5.9-5.3-15.8-9-32.1-8.1c1.6,1.6,3.1,3.2,4.7,4.7c14.1-0.2,23,3.4,28.4,8.2
				c1.9,1.7,3.3,3.6,4.2,5.5C325.1,450.2,323.2,446.4,319.7,443.3z"/>
			<path class="st12" d="M331,448c-1.4,2.7,0.5,5.7-0.3,10.4c-0.3,1.8-1.1,3.5-2.4,4.7c-1.7,1.6-3.6,1.9-5.6,4.1l-1.4,3.9
				c0.4,0.1,0.8,0.2,1.3,0.3c0.6-4.1,5.5-4.3,7.9-6.9c2.2-2.4,2.1-6,2.5-12.2C332.5,451,331.9,449.5,331,448L331,448z"/>
			<path class="st12" d="M328.2,464.5c0,0.2,0.1,0.3,0.3,0.3l0,0l11.5,0.7c0.2,0,0.3-0.1,0.3-0.3c0-0.1-0.1-0.3-0.3-0.3l-11.5-0.7
				C328.3,464.2,328.2,464.4,328.2,464.5L328.2,464.5L328.2,464.5z"/>
			<ellipse class="st12" cx="334" cy="465" rx="1.4" ry="-1.4"/>
			<circle class="st14" cx="334" cy="465" r="0.9"/>
			<path class="st15" d="M334.8,464.7c-0.2-0.4-0.7-0.7-1.2-0.5c-0.7,0.3-0.7,1.3,0,1.6C333.4,465.1,334.1,464.4,334.8,464.7
				C334.8,464.7,334.8,464.7,334.8,464.7z"/>
			<ellipse class="st5" cx="334" cy="465" rx="0.5" ry="-0.5"/>
			<path class="st16" d="M333.9,465.1c-0.2,0.1-0.1,0.4,0.1,0.3C334.3,465.3,334.2,465,333.9,465.1z"/>
			<path class="st11" d="M317.4,454c-0.1-0.1-0.3-0.3-0.8-0.5c-1.4-0.6-2.7,0.7-2.2,2.4c0.1,0.4,0.3,0.6,0.3,0.6
				c0-0.1-0.3-3.5,2.4-2.5L317.4,454z M309.4,451.3c-0.1,0-0.3-0.1-0.7-0.1c-0.4,0-1.1,0.4-1.4,1c-0.3,0.6-0.1,1.1,0,1.4
				c0.1,0.3,0.3,0.4,0.3,0.4s0-0.2,0-0.5c0-0.9,0.4-1.7,1.1-2C309.1,451.3,309.4,451.3,309.4,451.3L309.4,451.3z M321.5,454.1
				c0,0-0.1-0.1-0.2-0.2c-1.3-1.6-3.3-0.5-2.9,1.5c0.1,0.4,0.2,0.6,0.2,0.6c0-0.1,0.2-3.5,2.7-2.1L321.5,454.1z M318.7,458
				c0,0-0.1-0.1-0.2-0.2c-1.3-1.6-3.2-0.4-2.9,1.5c0.1,0.4,0.2,0.6,0.2,0.6s0-0.2,0.1-0.6c0.4-1.7,1.2-2.3,2.6-1.5L318.7,458
				L318.7,458z M324.3,450.3c-0.1,0-0.7-1-1.7-1c-0.8,0-1.7,0.9-1.5,2.3c0.1,0.4,0.2,0.6,0.2,0.6c0.1-0.1,0.2-3.5,2.7-2.1
				L324.3,450.3L324.3,450.3z M317.7,450c0,0-0.1-0.1-0.2-0.3c-0.9-1.3-2.2-1.3-3-0.5c-0.5,0.5-0.7,1.3-0.7,2c0,0.5,0.1,0.7,0.1,0.7
				c0.1-0.4,0.3-1.5,1-2.3c0.3-0.2,0.6-0.4,0.9-0.5c0.3,0,0.7,0.1,1,0.2C317.2,449.6,317.5,449.9,317.7,450L317.7,450z M323.1,455.7
				c0,0-0.1-0.1-0.2-0.2c-1.7-1.2-3.3,0.3-2.5,2.2c0.2,0.4,0.3,0.5,0.3,0.5s0-0.2,0-0.6C320.6,454.5,323,455.8,323.1,455.7
				L323.1,455.7z M320.1,459.4c-0.1-0.1-0.2-0.2-0.6-0.4c-1-0.4-1.9,0.6-1.4,1.8c0.1,0.3,0.2,0.4,0.2,0.4s0-0.2,0-0.4
				C318.3,458.5,320,459.4,320.1,459.4L320.1,459.4z M312.4,453.4c-0.1-0.1-0.3-0.3-0.8-0.4c-0.8-0.3-1.5,0.1-1.8,0.8
				c-0.3,0.8,0,1.3,0.1,1.7c0.2,0.4,0.3,0.5,0.3,0.5c0-0.1-0.7-3.2,1.9-2.6L312.4,453.4L312.4,453.4z M324.5,453.1c0,0,0,0-0.1-0.1
				c-0.8-1-2-0.2-1.7,1c0.1,0.2,0.2,0.3,0.2,0.3c0.1-0.3,0.1-0.8,0.4-1.1c0.3-0.4,0.7-0.4,1.2-0.1L324.5,453.1L324.5,453.1z
				 M321.1,447.3c-0.1-0.1-0.2-0.3-0.5-0.5c-1-0.7-2.2,0.2-1.9,1.7c0.1,0.3,0.2,0.5,0.2,0.5c0.1-0.2,0.2-2.6,2.1-1.7L321.1,447.3
				L321.1,447.3z M319.7,444.3c0,0,0,0-0.1-0.1c-0.9-1.1-2.2-0.2-1.9,1.1c0.1,0.3,0.2,0.4,0.2,0.4s0-0.1,0.1-0.4
				c0.2-1,0.7-1.5,1.6-1L319.7,444.3L319.7,444.3z M319.9,451.4c-0.1-0.1-0.2-0.3-0.5-0.5c-1-0.7-2.2,0.3-1.9,1.7
				c0.1,0.3,0.2,0.4,0.2,0.4s0-0.2,0.1-0.5c0.3-1.3,0.8-1.8,2-1.2L319.9,451.4L319.9,451.4z M305.6,446.6c-0.1-0.1-0.3-0.3-0.8-0.5
				c-1.5-0.6-2.7,0.8-2.2,2.4c0.1,0.4,0.3,0.6,0.3,0.6s0-0.2,0-0.6c0.1-1.7,0.8-2.5,2.4-1.9L305.6,446.6z M300.1,443.6
				c-0.1,0-0.2-0.1-0.6-0.1c-0.4,0-0.9,0.2-1.2,0.6c-0.3,0.4-0.3,1,0,1.4l0.1,0.1c0,0,0-0.1,0-0.4c0.1-0.7,0.5-1.3,1.2-1.5
				C299.8,443.6,300.1,443.6,300.1,443.6z M310.1,446.7c0,0-0.1-0.1-0.2-0.2c-1.3-1.6-3.2-0.5-2.9,1.5c0.1,0.4,0.2,0.6,0.2,0.6
				s0-0.2,0.1-0.6c0.4-1.7,1.2-2.3,2.6-1.5L310.1,446.7L310.1,446.7z M307.2,449.9c-0.1-0.1-0.2-0.3-0.5-0.5c-0.9-0.6-2,0.2-1.8,1.5
				c0.1,0.3,0.1,0.4,0.1,0.4c0.1-0.3,0.1-1,0.5-1.5c0.4-0.5,1-0.4,1.5-0.1L307.2,449.9L307.2,449.9z M312.1,443.4
				c-0.1-0.1-0.2-0.3-0.5-0.5c-1-0.7-2.1,0.2-1.8,1.5c0.1,0.3,0.2,0.4,0.2,0.4c0.1-0.3,0.2-0.9,0.6-1.4c0.3-0.5,0.9-0.4,1.4-0.1
				L312.1,443.4z M314.5,440.9c-0.1-0.1-0.2-0.3-0.5-0.5c-0.9-0.7-2.1,0.2-1.8,1.5c0.1,0.3,0.2,0.4,0.2,0.4c0.1-0.1,0.3-2,1.5-1.7
				C314.2,440.7,314.4,440.8,314.5,440.9z M311.9,439.4c0,0,0,0-0.1-0.1c-0.6-0.8-1.6-0.2-1.4,0.7c0,0.2,0.1,0.3,0.1,0.3
				c0-0.2,0.1-0.6,0.3-0.9c0.2-0.3,0.6-0.3,0.9-0.1L311.9,439.4L311.9,439.4z M317.9,446.1c-0.1-0.1-0.2-0.3-0.5-0.5
				c-0.2-0.1-0.5-0.3-0.8-0.2c-0.7,0-1.3,0.8-1.1,1.8c0.1,0.3,0.2,0.4,0.2,0.4c0.1-0.3,0.2-1,0.5-1.4c0.3-0.4,0.6-0.4,1-0.3
				C317.6,445.9,317.8,446,317.9,446.1z M304.9,442.7c-0.1-0.1-0.3-0.3-0.7-0.4c-1-0.4-2,0.3-1.9,1.6c0,0.7,0.4,1.1,0.4,1.1
				c0,0,0-0.2,0-0.5C302.6,441.4,304.8,442.7,304.9,442.7L304.9,442.7z M312.8,449.4c-0.1-0.1-0.3-0.4-0.7-0.7
				c-1.3-0.8-2.7,0.2-2.5,2c0.1,0.4,0.2,0.6,0.2,0.6c0-0.1,0.2-3.5,2.7-2.1L312.8,449.4z M301.8,445.6c-0.1,0-0.2-0.2-0.6-0.3
				c-1-0.3-1.7,0.7-1.2,1.8c0.1,0.2,0.2,0.3,0.2,0.3c0-0.3-0.1-0.9,0.1-1.4c0.2-0.5,0.7-0.6,1.3-0.5L301.8,445.6z M310.4,440.9
				c-0.1-0.1-0.3-0.2-0.6-0.3c-1.1-0.3-1.9,0.8-1.3,2c0.1,0.3,0.3,0.4,0.3,0.4c0-0.1-0.6-2.5,1.5-2L310.4,440.9L310.4,440.9z
				 M314.5,445.6c-0.1-0.1-0.2-0.3-0.5-0.5c-1.1-0.7-2.2,0.3-1.9,1.7c0.1,0.3,0.2,0.5,0.2,0.5s0-0.2,0.1-0.5c0.3-1.2,0.8-1.8,2-1.2
				L314.5,445.6L314.5,445.6z M299.4,439.1c-0.1-0.1-0.2-0.2-0.6-0.4c-1-0.4-1.9,0.7-1.3,1.8c0.1,0.2,0.2,0.3,0.2,0.3s0-0.2,0-0.4
				c0-1.1,0.4-1.7,1.5-1.4L299.4,439.1L299.4,439.1z M298,442.4c0,0,0,0-0.1-0.1c-0.1-0.1-0.2-0.2-0.3-0.3c-0.7-0.5-1.5,0.2-1.3,1.1
				c0.1,0.2,0.2,0.3,0.2,0.3s0-0.1,0.1-0.3c0.2-0.8,0.5-1.2,1.3-0.8L298,442.4L298,442.4z M296.3,440c0,0-0.1,0-0.1-0.1
				c-1.1-0.7-2.1,0.4-1.5,1.5c0.1,0.2,0.2,0.3,0.2,0.3s0-0.1,0-0.4c0-1,0.2-1.5,1.2-1.4L296.3,440L296.3,440z M294.8,438.5
				c0,0,0,0-0.1-0.1c-0.8-1.1-2.2-0.2-1.8,1c0.1,0.3,0.2,0.4,0.2,0.4l0.1-0.4c0.3-1,0.6-1.4,1.5-1L294.8,438.5z M293.1,436.7
				c0,0,0,0-0.1-0.1c-0.8-1-2-0.2-1.8,1c0.1,0.3,0.2,0.3,0.2,0.3c0.1-0.2,0.2-1.2,0.8-1.4c0.2-0.1,0.6,0,0.8,0.1L293.1,436.7
				L293.1,436.7z M301.4,441.1c-0.1-0.1-0.2-0.3-0.5-0.5c-1.1-0.7-2.2,0.3-1.9,1.7c0.1,0.3,0.2,0.5,0.2,0.5c0.1-0.4,0.2-1,0.5-1.5
				c0.4-0.5,1-0.5,1.6-0.2L301.4,441.1L301.4,441.1z M308.5,443.9c-0.1-0.1-0.2-0.3-0.5-0.5c-1-0.7-2.2,0.2-1.9,1.7
				c0.1,0.3,0.2,0.4,0.2,0.4s0-0.2,0.1-0.5c0.3-1.3,0.8-1.8,2-1.2L308.5,443.9L308.5,443.9z M313.5,455.8c-0.1,0-0.2-0.1-0.6-0.1
				c-0.4,0-0.9,0.3-1.1,0.7c-0.2,0.5-0.1,0.9,0.1,1.1c0.1,0.2,0.3,0.3,0.3,0.3c0-0.1-0.1-1.3,0.8-1.8
				C313.3,455.8,313.5,455.8,313.5,455.8L313.5,455.8z M304.5,439.4c0,0-0.1,0-0.1-0.1c-1.1-0.7-2.1,0.4-1.5,1.5
				c0.1,0.2,0.2,0.3,0.2,0.3c0-0.3-0.1-0.8,0-1.3c0.2-0.5,0.6-0.6,1.1-0.5L304.5,439.4L304.5,439.4z M298.1,437.5c0,0,0,0-0.1-0.1
				c-0.8-1-2-0.2-1.8,1c0.1,0.3,0.2,0.3,0.2,0.3c0.1-0.2,0.2-1.2,0.8-1.4c0.2-0.1,0.6,0,0.8,0.1L298.1,437.5L298.1,437.5z
				 M302.9,438.3c0,0,0,0-0.1-0.1c-0.8-1-2-0.2-1.8,1c0.1,0.3,0.2,0.3,0.2,0.3c0.1-0.3,0.1-0.8,0.4-1.1c0.3-0.4,0.7-0.4,1.2-0.1
				L302.9,438.3L302.9,438.3z M301.3,436.9c0,0,0,0-0.1-0.1c-0.8-1-2-0.2-1.8,1c0.1,0.3,0.2,0.3,0.2,0.3c0.1-0.3,0.1-0.8,0.4-1.1
				c0.3-0.4,0.7-0.4,1.2-0.1L301.3,436.9L301.3,436.9z M296.4,436.2c0,0,0,0-0.1-0.1c-0.8-1-2-0.2-1.8,1c0.1,0.3,0.2,0.3,0.2,0.3
				c0.1-0.2,0.2-1.2,0.8-1.4c0.2-0.1,0.6,0,0.8,0.1L296.4,436.2L296.4,436.2z M308.6,439.2c-0.1-0.1-0.3-0.3-0.7-0.4
				c-1.1-0.4-2,0.4-1.9,1.6c0,0.7,0.4,1.1,0.4,1.1c0,0,0-0.2,0-0.5C306.3,437.9,308.6,439.2,308.6,439.2z M316.8,442.5
				c-0.1-0.1-0.3-0.3-0.7-0.4c-1-0.4-2,0.3-1.9,1.6c0,0.7,0.4,1.1,0.4,1.1c0,0,0-0.2,0-0.5c0-1.5,0.6-2.3,2.1-1.8L316.8,442.5
				L316.8,442.5z"/>
			<path class="st8" d="M328.6,449.8L328.6,449.8c-0.1,0-0.1,0.1-0.1,0.2l0.2,0.4c0.1,0.1,0.3,0,0.2-0.1l-0.2-0.4
				C328.8,449.8,328.7,449.8,328.6,449.8z M327.6,449.5c-0.2,0.1,0,0.3,0,0.4c0,0.1,0.1,0.1,0.2,0.1c0.2-0.1,0-0.3,0-0.4
				C327.8,449.6,327.7,449.5,327.6,449.5L327.6,449.5z M327.4,451c-0.1,0-0.1,0.1-0.1,0.1l0.1,0.2c0,0.2,0.3,0.1,0.2-0.1l-0.1-0.2
				C327.5,451.1,327.5,451,327.4,451L327.4,451L327.4,451z M326.6,449.8l0.1,0.3c0.1,0.2,0.3,0.1,0.2-0.1l-0.1-0.3
				C326.8,449.6,326.6,449.7,326.6,449.8z M326.3,451.1l0.1,0.3c0.1,0.2,0.3,0.1,0.2-0.1l-0.1-0.3
				C326.5,450.8,326.2,450.9,326.3,451.1z M324.9,449.5l0.2,0.4c0.1,0.2,0.3,0.1,0.2-0.1l-0.2-0.4
				C325.1,449.2,324.8,449.3,324.9,449.5z M325.2,450.6l0.2,0.4c0.1,0.2,0.3,0.1,0.2-0.1l-0.2-0.4
				C325.4,450.4,325.2,450.5,325.2,450.6L325.2,450.6z M325.5,449.2c0,0,0.1,0.3,0.2,0.2c0.2-0.1,0-0.3,0-0.3
				C325.7,449,325.4,449,325.5,449.2L325.5,449.2z M325.9,448.2c0,0,0.1,0.3,0.2,0.2s0-0.3,0-0.3C326.1,448,325.8,448.1,325.9,448.2
				L325.9,448.2z M324,448.3c0,0,0.1,0.3,0.2,0.2c0.2-0.1,0-0.3,0-0.3C324.2,448.2,324,448.2,324,448.3L324,448.3z M324.1,447
				l0.2,0.2c0.1,0.1,0.3-0.1,0.2-0.2l-0.2-0.2C324.1,446.6,324,446.8,324.1,447L324.1,447z M325.4,444.2l0.4,0.3c0.1,0,0.1,0,0.2,0
				c0-0.1,0-0.1,0-0.2c0,0,0,0,0,0l-0.4-0.3C325.4,443.9,325.2,444.1,325.4,444.2z M325.3,446.1l0.4,0.3c0.1,0.1,0.3-0.1,0.1-0.2
				l-0.4-0.3C325.3,445.9,325.1,446.1,325.3,446.1z M323.1,445.2l0.4,0.2c0.1,0.1,0.3-0.1,0.1-0.2l-0.4-0.2
				C323.1,444.9,323,445.1,323.1,445.2L323.1,445.2z M323.6,443.9l0.3,0.2c0.1,0.1,0.3-0.1,0.1-0.2l-0.3-0.2
				C323.6,443.6,323.5,443.8,323.6,443.9L323.6,443.9z M320.2,439.8l0.2,0.1c0.1,0.1,0.3-0.1,0.1-0.2l-0.2-0.1
				C320.1,439.5,320,439.8,320.2,439.8L320.2,439.8z M319.7,437.7l0.3,0.4c0.1,0.1,0.3,0,0.2-0.2l-0.3-0.4
				C319.9,437.5,319.7,437.6,319.7,437.7L319.7,437.7z M319,438.3l0.3,0.4c0.1,0.1,0.3,0,0.2-0.1l-0.3-0.4
				C319.1,438,318.9,438.2,319,438.3z M319,436.3l0.1,0.3c0,0.1,0.1,0.1,0.2,0.1c0.1,0,0.1-0.1,0.1-0.2l0,0l-0.1-0.3
				C319.2,436,319,436.1,319,436.3L319,436.3z M322.1,442.3l0.1,0.2c0.1,0.2,0.3,0.1,0.2-0.1l-0.1-0.2
				C322.2,442.1,322,442.1,322.1,442.3z M323,441.1c-0.1,0-0.1,0.1-0.1,0.2l0.2,0.4c0,0.1,0.1,0.1,0.2,0.1c0.1,0,0.1-0.1,0.1-0.2
				l0,0l-0.2-0.4C323.1,441.1,323.1,441.1,323,441.1L323,441.1z M322,439.9c0,0.1,0,0.1,0,0.2l0.2,0.2c0.1,0.1,0.3-0.1,0.2-0.2
				l-0.2-0.2C322.1,439.9,322,439.9,322,439.9L322,439.9z M321,440.3c0,0-0.1,0.1,0,0.2l0.4,0.4c0.1,0.1,0.3,0,0.2-0.2l-0.4-0.4
				C321.1,440.3,321,440.2,321,440.3L321,440.3z M324.1,442.6c0,0.1,0.1,0.3,0.2,0.3c0.2-0.1,0-0.3,0-0.4
				C324.3,442.5,324,442.5,324.1,442.6L324.1,442.6z M318.1,436.7L318.1,436.7c-0.1,0-0.1,0.1-0.1,0.2l0,0l0.3,0.6
				c0.1,0.1,0.3,0,0.2-0.1l-0.3-0.6C318.3,436.7,318.2,436.7,318.1,436.7L318.1,436.7z M323.1,442.8c-0.1,0.1,0.1,0.2,0.1,0.3
				c0.1,0.1,0.3-0.1,0.2-0.2l-0.1-0.1C323.2,442.7,323.2,442.7,323.1,442.8L323.1,442.8L323.1,442.8z M323.3,446.3l0.2,0.2
				c0.1,0.1,0.3,0,0.2-0.2l-0.2-0.2C323.5,446,323.3,446.2,323.3,446.3z M318,435.5l0.2,0.4c0.1,0.1,0.3,0,0.2-0.1l-0.2-0.4
				C318.1,435.2,317.9,435.4,318,435.5z M324.2,445.3c0.1,0.3,0.5,0.4,0.5,0.2c0-0.1-0.1-0.1-0.1-0.1c0,0-0.1,0-0.1-0.1
				C324.5,445.2,324.2,445.2,324.2,445.3z M329.7,448.8c-0.1,0-0.1,0.1-0.1,0.1l0.1,0.2c0,0.1,0.1,0.1,0.2,0.1c0.2-0.1,0-0.3,0-0.4
				C329.9,448.8,329.8,448.7,329.7,448.8L329.7,448.8z M328.9,447.5l0.1,0.3c0.1,0.2,0.3,0.1,0.2-0.1l-0.1-0.3
				C329.1,447.3,328.9,447.4,328.9,447.5L328.9,447.5z M328.6,448.8l0.1,0.3c0.1,0.2,0.3,0.1,0.2-0.1l-0.1-0.3
				C328.8,448.5,328.6,448.6,328.6,448.8z M326.4,447.4l0.2,0.4c0.1,0.2,0.3,0.1,0.2-0.1l-0.2-0.4
				C326.6,447.2,326.4,447.3,326.4,447.4L326.4,447.4z M327.6,448.3l0.2,0.4c0.1,0.2,0.3,0.1,0.2-0.1l-0.2-0.4
				C327.7,448.1,327.5,448.2,327.6,448.3z M327.8,446.9c0,0,0.1,0.3,0.2,0.2c0.2-0.1,0-0.3,0-0.3C328,446.7,327.8,446.7,327.8,446.9
				L327.8,446.9z M328.3,445.8c-0.2,0.1,0,0.3,0,0.3c0,0.1,0.1,0.1,0.1,0.1c0.1,0,0.1-0.1,0.1-0.1l-0.1-0.2
				C328.4,445.8,328.4,445.8,328.3,445.8L328.3,445.8z M327.5,446.1c0,0,0.1,0.3,0.2,0.2c0.2-0.1,0-0.3,0-0.3
				C327.7,446,327.4,446,327.5,446.1L327.5,446.1z M326.4,446.4c0,0,0.1,0.3,0.2,0.2c0.2-0.1,0-0.3,0-0.3
				C326.6,446.3,326.4,446.3,326.4,446.4L326.4,446.4z M326.5,444.9c0,0.1,0,0.1,0,0.2l0.2,0.2c0.1,0.1,0.3-0.1,0.2-0.2l-0.2-0.2
				C326.6,444.8,326.5,444.8,326.5,444.9L326.5,444.9z M327.6,445.1c-0.1,0-0.1,0.1-0.1,0.1c0,0,0,0,0,0l0.2,0.1c0.1,0,0.1,0,0.2,0
				s0-0.1,0-0.2l-0.2-0.1C327.6,445.1,327.6,445.1,327.6,445.1L327.6,445.1z M325.6,443.1c-0.1,0-0.1,0.1-0.1,0.1c0,0,0,0,0.1,0.1
				l0.2,0.1c0.1,0,0.1,0,0.2-0.1c0-0.1,0-0.1,0-0.2l-0.2-0.1C325.6,443.1,325.6,443.1,325.6,443.1z M323.8,441
				c-0.1,0-0.1,0.1-0.1,0.1c0,0,0,0,0,0l0.3,0.4c0,0,0.1,0.1,0.2,0c0,0,0.1-0.1,0-0.2l0,0l-0.3-0.4C323.9,441,323.9,441,323.8,441
				L323.8,441z M322.2,441.1l-0.1,0l0.1,0.1c0.1,0.1,0.3,0,0.2-0.1l-0.1-0.1L322.2,441.1z M325.5,445c-0.1,0.1,0.1,0.3,0.1,0.3
				c0.1,0.1,0.3,0,0.2-0.2l-0.1-0.1C325.6,445,325.6,445,325.5,445L325.5,445z M322.1,439.1c-0.1,0-0.1,0.1,0,0.2l0,0l0.1,0.1
				c0.1,0.1,0.3,0,0.2-0.1l-0.1-0.1C322.3,439,322.2,439,322.1,439.1z M327.1,444.1c-0.1,0-0.1,0.1-0.1,0.1c0,0.2,0.2,0.3,0.4,0.3
				c0.1,0,0.1-0.1,0.1-0.1c0-0.1-0.1-0.1-0.1-0.1c0,0-0.1,0-0.1-0.1C327.3,444.1,327.2,444.1,327.1,444.1
				C327.1,444.1,327.1,444.1,327.1,444.1z M322.8,442.3l0.1,0.1c0.1,0.1,0.3,0,0.2-0.1l-0.1-0.1C322.9,442,322.7,442.2,322.8,442.3z
				 M324.4,443.9l0.1,0.1c0.1,0.1,0.3-0.1,0.1-0.2l-0.1-0.1C324.4,443.6,324.3,443.8,324.4,443.9L324.4,443.9z M325.1,441.7
				c-0.1,0-0.1,0.1-0.1,0.1l0.1,0.2c0,0.1,0.1,0.1,0.1,0.1c0.1,0,0.1-0.1,0.1-0.1l0,0l-0.1-0.2C325.3,441.7,325.2,441.7,325.1,441.7
				L325.1,441.7z M322.7,440.5l0.1,0.3c0,0.1,0.1,0.1,0.1,0.1c0.1,0,0.1-0.1,0.1-0.1l0,0l-0.1-0.3
				C322.9,440.2,322.7,440.3,322.7,440.5L322.7,440.5z M325,447.5c0,0,0.1,0.3,0.2,0.2c0.2-0.1,0-0.3,0-0.3
				C325.2,447.3,324.9,447.3,325,447.5L325,447.5z"/>
		</g>
	</g>
</g>
</svg>
