<?xml version="1.0" encoding="utf-8"?>
<!-- Generator: Adobe Illustrator 24.3.0, SVG Export Plug-In . SVG Version: 6.00 Build 0)  -->
<svg version="1.1" id="Layer_1" xmlns="http://www.w3.org/2000/svg" xmlns:xlink="http://www.w3.org/1999/xlink" x="0px" y="0px"
	 viewBox="0 0 512 512" style="enable-background:new 0 0 512 512;" xml:space="preserve">
<style type="text/css">
	.st0{fill:#D2D5DF;}
	.st1{fill:#8E96AD;}
	.st2{fill:#C7CBD6;}
	.st3{fill:#2A2E3A;}
	.st4{fill:#4B5267;}
	.st5{fill:#6C7694;}
	.st6{fill:#312C2C;}
	.st7{fill:#CDD1F9;}
	.st8{fill:#B6BCEF;}
	.st9{fill:#7C80C1;}
	.st10{fill:#424699;}
	.st11{fill:#5562AD;}
	.st12{fill:#252F8C;}
	.st13{fill:#241A22;}
	.st14{fill:#5354A6;}
	.st15{fill:#F9B46F;}
	.st16{fill:#F99B39;}
	.st17{fill:#FFFFFF;}
	.st18{fill:#FFE69D;}
	.st19{fill:#FFBE00;}
</style>
<g>
	<path class="st0" d="M145.1,68.3V42.7c0-9.4-7.6-17.1-17.1-17.1c-9.4,0-17.1,7.6-17.1,17.1v25.6H145.1z M162.1,170.7v-25.6
		c0-9.4-7.6-17.1-17.1-17.1s-17.1,7.6-17.1,17.1v25.6H162.1z M384,170.7v-25.6c0-9.4-7.6-17.1-17.1-17.1s-17.1,7.6-17.1,17.1v25.6
		H384z M401.1,68.3V42.7c0-9.4-7.6-17.1-17.1-17.1c-9.4,0-17.1,7.6-17.1,17.1v25.6H401.1z"/>
</g>
<path class="st1" d="M358.4,324.3v76.8c0,14.1-11.5,25.6-25.6,25.6h-59.7V324.3H358.4z"/>
<path class="st2" d="M273.1,298.7h85.3c4.7,0,8.5,3.8,8.5,8.5v17.1c0,4.7-3.8,8.5-8.5,8.5h-85.3V298.7z"/>
<path class="st1" d="M153.6,324.3v76.8c0,14.1,11.5,25.6,25.6,25.6h59.7V324.3H153.6z"/>
<path class="st2" d="M238.9,298.7h-85.3c-4.7,0-8.5,3.8-8.5,8.5v17.1c0,4.7,3.8,8.5,8.5,8.5h85.3V298.7z"/>
<path class="st3" d="M145.6,92.2l10.2-13.7l91,68.3l-10.2,13.7L145.6,92.2z M265.1,146.7l91-68.3l10.2,13.6l-91,68.3L265.1,146.7z
	 M145.6,194.6l10.2-13.7l91,68.3l-10.2,13.7L145.6,194.6z M265.1,249.1l91-68.3l10.2,13.7l-91,68.3L265.1,249.1z"/>
<path class="st4" d="M238.9,8.5h34.1c4.7,0,8.5,3.8,8.5,8.5v477.9c0,4.7-3.8,8.5-8.5,8.5h-34.1c-4.7,0-8.5-3.8-8.5-8.5V17.1
	C230.4,12.4,234.2,8.5,238.9,8.5z"/>
<path class="st5" d="M102.4,59.7h307.2c4.7,0,8.5,3.8,8.5,8.5v17.1c0,4.7-3.8,8.5-8.5,8.5H102.4c-4.7,0-8.5-3.8-8.5-8.5V68.3
	C93.9,63.6,97.7,59.7,102.4,59.7z"/>
<path class="st5" d="M119.5,162.1h273.1c4.7,0,8.5,3.8,8.5,8.5v17.1c0,4.7-3.8,8.5-8.5,8.5H119.5c-4.7,0-8.5-3.8-8.5-8.5v-17.1
	C110.9,166,114.8,162.1,119.5,162.1z"/>
<g>
	<path class="st6" d="M333.3,64l-7.5-5.4c-0.2-0.2-0.4-0.4-0.4-0.7l0.2-4.7c0-0.5,0.4-0.8,0.9-0.8c0.5,0,0.8,0.4,0.8,0.9l-0.2,4.2
		l7.1,5.1c0.4,0.3,0.5,0.8,0.2,1.2S333.7,64.3,333.3,64C333.3,64,333.3,64,333.3,64L333.3,64z"/>
	<path class="st6" d="M339.5,68.7c-0.3-4.7-5.4-4.6-5.6-4.5c-0.5,0-0.9-0.3-0.9-0.8c0-0.5,0.3-0.9,0.8-0.9l0,0
		c2.4-0.1,7.1,1.1,7.4,6.1c0,0.5-0.3,0.9-0.8,0.9C339.9,69.5,339.5,69.2,339.5,68.7z"/>
	<path class="st6" d="M333.7,72.3c-0.3-0.3-0.3-0.9,0-1.2c3.3-3.4-0.3-7.1-0.4-7.2c-0.3-0.3-0.3-0.9,0-1.2c0.3-0.3,0.9-0.3,1.2,0
		c1.7,1.7,4,5.9,0.5,9.6C334.6,72.6,334,72.6,333.7,72.3L333.7,72.3z"/>
	<path class="st6" d="M329.9,65.6c-0.3-0.4-0.3-0.9,0.1-1.2c1.6-1.4,3.5-1.9,3.6-1.9c0.5-0.1,0.9,0.2,1,0.6c0.1,0.5-0.2,0.9-0.6,1
		c0,0-1.6,0.4-2.9,1.5C330.8,66,330.3,65.9,329.9,65.6L329.9,65.6z M336.4,54.4l-0.6-4.7c-0.1-0.5,0.3-0.9,0.7-0.9
		c0.5-0.1,0.9,0.3,0.9,0.7l0,0l0.5,4.2l7.9,3.8c0.4,0.2,0.6,0.7,0.4,1.1c-0.2,0.4-0.7,0.6-1.1,0.4l-8.3-4
		C336.6,54.9,336.4,54.7,336.4,54.4z"/>
	<path class="st6" d="M344.7,58.5c-0.1-0.5,0.2-0.9,0.7-1c2.4-0.5,7.1-0.1,8.3,4.9c0.1,0.5-0.2,0.9-0.6,1c-0.5,0.1-0.9-0.2-1-0.6
		c-1-4.6-6.1-3.6-6.3-3.6C345.3,59.3,344.8,58.9,344.7,58.5z"/>
	<path class="st6" d="M346.9,67.2L346.9,67.2c-0.4-0.3-0.5-0.8-0.2-1.2c2.7-3.8-1.4-6.9-1.6-7.1c-0.4-0.3-0.5-0.8-0.2-1.2
		c0.3-0.4,0.8-0.5,1.2-0.2l0,0c2,1.4,4.9,5.2,2,9.4C347.8,67.4,347.3,67.5,346.9,67.2L346.9,67.2z"/>
	<path class="st6" d="M341.1,60.2c-0.3-0.4-0.2-0.9,0.2-1.2l0,0c1.9-1.3,4.1-1.5,4.2-1.5c0.5,0,0.9,0.3,0.9,0.8
		c0,0.5-0.3,0.9-0.8,0.9c0,0-1.9,0.1-3.4,1.2C341.9,60.6,341.3,60.5,341.1,60.2L341.1,60.2L341.1,60.2z"/>
	<path class="st7" d="M354,37.7c-8.7,13.9-24.8,21.9-50.2,15.7l0,0l-23.5,13.2l-11.7-6.8L302.9,48c23.1-24.3,37.4-24.6,37.4-24.6
		c2.1-4.3,5.3-5.1,5.3-5.2l-0.7-4.9c14.4-1.1,18,7.5,18,7.5l1.7,1.8l-1.8,3.7c0,0-3.5,1.4-5.8,5.7C356.6,33,355.6,35.1,354,37.7
		L354,37.7z"/>
	<path class="st8" d="M354,37.7c-8.7,14-25,21.8-50.2,15.7l0,0l-23.5,13.2l-11.7-6.8l4.6-1.6l8.9,5.1l23.5-13.2l0,0
		c25.3,6.1,41.5-1.7,50.2-15.7c0.2-0.2,0.3-0.5,0.4-0.7C355.7,34.8,355,36.1,354,37.7L354,37.7z M358.8,28.8
		c1.9-3.7,4.7-5.2,5.5-5.6l-1.5,3.1c0,0-2.6,1-4.8,4.1C358.4,29.8,358.6,29.2,358.8,28.8L358.8,28.8z"/>
	<path class="st9" d="M363.3,21.2c-0.4,0.4-0.7,0.8-1.4,0.8c-0.8,0-1.6-0.4-2.3-1c-0.6-0.6-1.2-1.2-1.9-1.7
		c-0.7-0.5-1.6-0.8-2.4-0.5c-0.2,0.1-0.4,0.2-0.7,0.4c-1,0.7-1.7,1.9-1.9,3.2c-0.8,4.4-1.2,5.8-5.3,8.1c-3.4,1.9-7.1,3.5-10.9,4.2
		c-3.9,0.6-8,0.3-11.4-1.6c-1.5-0.8-1.5-1.5-1.1-2.6c0-0.1,0.1-0.2,0.1-0.2c10.4-6.6,16.4-6.7,16.4-6.7c2.1-4.3,5.3-5.1,5.3-5.2
		l-0.7-5c14.5-1.1,18,7.4,18,7.5L363.3,21.2L363.3,21.2z"/>
	<path class="st8" d="M363.3,21.2c-0.4,0.4-0.7,0.8-1.4,0.8c-0.8,0-1.6-0.4-2.3-1c-0.9-0.8-2.5-2.8-4.3-2.2
		c-0.2,0.1-0.4,0.2-0.7,0.4c-2.8,2.1-1.5,5.3-3.5,8.2c-0.9,1.4-2.3,2.2-3.8,3c-3.4,1.9-7.1,3.5-10.9,4.2c-3.9,0.6-8,0.3-11.4-1.6
		c-1.5-0.8-1.5-1.5-1.1-2.6c0-0.1,0.1-0.2,0.1-0.3c0.1,0,0.1-0.1,0.2-0.1c0.2,0.2,0.5,0.4,0.8,0.5c3.4,1.9,7.6,2.3,11.4,1.6
		c3.9-0.6,7.5-2.3,10.9-4.2c4-2.2,4.5-3.6,5.4-8.1c0.3-1.3,0.9-2.4,1.9-3.2c0.2-0.2,0.5-0.3,0.6-0.4c0.8-0.3,1.7,0,2.4,0.5
		c1.3,0.9,2.4,2.7,4.2,2.7c0.1,0,0.2,0,0.3,0c0.6,0.8,0.8,1.3,0.8,1.3L363.3,21.2L363.3,21.2z"/>
	<path class="st10" d="M348.5,18.8l0,0.2c0,0-3.5,1.2-4,1.4c-2.1,1-3.6,2.8-4.7,4.9c0,0-5.9,0.2-16.2,6.6c-0.2-0.5,0-1,0.1-1.4
		c0-0.1,0.1-0.2,0.1-0.3c10.4-6.6,16.4-6.7,16.4-6.7c1.2-2.5,3-4.1,4.6-4.9c0,0,0,0,0,0C346.2,17.9,347.4,18.3,348.5,18.8
		L348.5,18.8z M363.3,21.2c-0.3,0.4-0.6,0.7-1.1,0.8c-1.9-3.2-5.9-6-12.1-6.8c-1.7-0.2-3.3-0.2-4.9-0.1l-0.3-1.8
		c0.5,0,1-0.1,1.5-0.1c13.3-0.4,16.4,7.5,16.5,7.6L363.3,21.2L363.3,21.2z"/>
	<path class="st9" d="M334.7,40.5l-31,12.8l0,0l-23.5,13.2l-11.7-6.8L302.9,48c6.4-6.8,12.2-11.7,17.1-15.3L334.7,40.5z"/>
	<path class="st11" d="M334.7,40.5l-2,0.8l-11-5.8c-5,3.6-4.3,6.3-10.7,13l-38.9,13.3l-3.6-2.1L302.9,48
		c6.4-6.8,12.2-11.7,17.1-15.3L334.7,40.5z"/>
	<path class="st12" d="M280.8,66.3l-0.4,0.2l-7.5-8.2l0.5-0.2L280.8,66.3z M283.5,64.7l-0.4,0.3l-7.1-7.7l0.5-0.2L283.5,64.7z
		 M286.3,63.1l-0.4,0.2l-6.7-7.2l0.5-0.1L286.3,63.1z M289.1,61.6l-0.4,0.2l-6.2-6.8l0.5-0.2L289.1,61.6z M291.9,60l-0.4,0.3
		l-5.8-6.3l0.5-0.2L291.9,60z M294.7,58.4l-0.4,0.2l-5.4-5.9l0.5-0.2L294.7,58.4z M297.4,56.9l-0.4,0.2l-4.9-5.4l0.5-0.2L297.4,56.9
		z M300.2,55.3l-0.4,0.3l-4.5-4.9l0.5-0.2L300.2,55.3z M303,53.8l-0.4,0.2l-4.1-4.5l0.5-0.2L303,53.8z M306,52.4l-0.5,0.2l-3.8-4.2
		l0.5-0.2L306,52.4z M309.1,51.2l-0.5,0.2l-4.4-4.7c0.1-0.1,0.2-0.2,0.3-0.4L309.1,51.2z"/>
	<path class="st13" d="M360.1,23.8c1.9-0.2,3.2-0.4,4.6-1.2c0,0,4,0.3,5.5,3.5l-7.3,0.1C362.2,25.3,361.5,24.3,360.1,23.8
		L360.1,23.8z"/>
	<path class="st14" d="M336.6,44.9c-8,4.7-20.3,6.7-38.9,1.9c16-10.7,32-23,42.3-23.4C348.7,30.5,345.5,39.7,336.6,44.9z"/>
	<path class="st10" d="M336.6,44.9c-8,4.7-20.3,6.7-38.9,1.9c2.2-1.4,4.3-2.9,6.5-4.4c16.2,3.5,27.3,1.5,34.7-2.9
		c2.6-1.5,4.7-3.4,6.1-5.4C344.4,38.3,341.3,42.2,336.6,44.9z"/>
	<path class="st13" d="M350.8,42.1c-1-3.4,1.9-6.4,2-12c0.1-2.1-0.4-4.3-1.7-6c-1.6-2.2-3.7-3-5.5-6l-0.7-4.8c0.5,0,1-0.1,1.5-0.1
		c-0.3,4.8,5.4,6.3,7.5,9.8c2,3.3,1.1,7.4,0.1,14.7C353.2,39,352.1,40.6,350.8,42.1L350.8,42.1z"/>
	<path class="st13" d="M351.3,22.4c0-0.2,0.2-0.3,0.4-0.3l0,0l13.4,1.8c0.2,0,0.3,0.2,0.3,0.4c0,0.2-0.2,0.3-0.4,0.3l-13.4-1.8
		C351.4,22.8,351.3,22.6,351.3,22.4L351.3,22.4L351.3,22.4z"/>
	<ellipse class="st13" cx="358.2" cy="23.2" rx="1.6" ry="1.6"/>
	<circle class="st15" cx="358.2" cy="23.2" r="1"/>
	<path class="st16" d="M359,23.8c-0.3,0.5-1,0.6-1.4,0.3c-0.8-0.5-0.5-1.7,0.3-1.9C357.4,23,358.2,24,359,23.8
		C359,23.8,359,23.8,359,23.8z"/>
	<ellipse class="st6" cx="358.2" cy="23.2" rx="0.6" ry="0.6"/>
	<path class="st17" d="M358.1,23.1c-0.2-0.1,0-0.5,0.2-0.3C358.5,22.9,358.3,23.2,358.1,23.1z"/>
	<path class="st12" d="M336.5,32.1c-0.1,0.1-0.4,0.3-1,0.4c-1.8,0.4-2.9-1.5-1.9-3.2c0.3-0.4,0.5-0.6,0.5-0.6c0,0.1-1.2,3.9,2.2,3.5
		L336.5,32.1z M326.5,33.3c-0.1,0-0.4,0.1-0.9-0.1c-0.5-0.1-1.2-0.7-1.3-1.4c-0.2-0.8,0.1-1.3,0.4-1.6c0.2-0.3,0.5-0.4,0.5-0.4
		s-0.1,0.2-0.1,0.5c-0.2,1,0,2,0.8,2.6C326.2,33.2,326.5,33.3,326.5,33.3L326.5,33.3z M341.2,32.9c0,0-0.1,0.1-0.2,0.2
		c-1.9,1.5-3.9-0.2-3-2.5c0.2-0.5,0.3-0.6,0.3-0.6c0,0.1-0.6,4.1,2.6,3L341.2,32.9z M338.9,27.8c0,0-0.1,0.1-0.2,0.2
		c-1.9,1.5-3.8-0.2-3-2.5c0.2-0.5,0.3-0.6,0.3-0.6s0,0.3,0,0.7c0.1,2,0.8,2.9,2.7,2.3L338.9,27.8L338.9,27.8z M343.6,37.9
		c-0.1,0-1,1-2.1,0.7c-1-0.3-1.7-1.4-1.2-3c0.2-0.5,0.3-0.6,0.3-0.6c0.1,0.1-0.6,4.1,2.6,3L343.6,37.9L343.6,37.9z M335.8,36.7
		c0,0-0.1,0.1-0.2,0.3c-1.4,1.3-2.9,1-3.6-0.1c-0.5-0.7-0.6-1.6-0.3-2.4c0.1-0.6,0.3-0.8,0.3-0.8c0,0.5-0.1,1.8,0.6,2.9
		c0.2,0.3,0.6,0.6,1,0.8c0.4,0.1,0.8,0.1,1.1,0C335.2,37,335.6,36.8,335.8,36.7L335.8,36.7z M343.4,31.4c0,0-0.1,0.1-0.3,0.1
		c-2.2,1.1-3.7-1.1-2.4-3.1c0.3-0.4,0.5-0.5,0.5-0.5s-0.1,0.2-0.2,0.7C340.3,32.2,343.3,31.3,343.4,31.4L343.4,31.4z M340.8,26.5
		c-0.1,0.1-0.3,0.2-0.7,0.3c-1.3,0.2-2-1.2-1.2-2.4c0.2-0.3,0.4-0.4,0.4-0.4s-0.1,0.2-0.1,0.5C338.5,27.1,340.7,26.4,340.8,26.5
		L340.8,26.5z M330.5,31.6c-0.1,0-0.4,0.3-1,0.3c-1,0.1-1.7-0.5-1.9-1.4c-0.1-0.9,0.3-1.6,0.5-1.9c0.3-0.4,0.5-0.5,0.5-0.5
		c0,0.1-1.6,3.6,1.6,3.4L330.5,31.6L330.5,31.6z M344.4,34.8c0,0-0.1,0-0.1,0.1c-1.2,0.9-2.4-0.2-1.8-1.5c0.1-0.3,0.3-0.4,0.3-0.4
		c0,0.4,0,0.9,0.2,1.4c0.3,0.5,0.7,0.6,1.3,0.4L344.4,34.8L344.4,34.8z M339.2,40.6c-0.1,0.1-0.3,0.3-0.7,0.5
		c-1.3,0.6-2.5-0.8-1.8-2.4c0.2-0.3,0.4-0.5,0.4-0.5c0.1,0.2-0.4,3.1,2,2.4L339.2,40.6L339.2,40.6z M336.8,43.8c0,0-0.1,0-0.2,0.1
		c-1.3,1-2.6-0.2-1.9-1.7c0.1-0.3,0.3-0.4,0.3-0.4s0,0.2,0,0.4c0,1.2,0.4,1.8,1.6,1.5L336.8,43.8L336.8,43.8z M338.7,35.7
		c-0.1,0.1-0.3,0.3-0.7,0.5c-1.4,0.6-2.5-0.8-1.8-2.4c0.2-0.3,0.3-0.5,0.3-0.5s0,0.2,0,0.5c0.1,1.5,0.5,2.3,2,1.9L338.7,35.7
		L338.7,35.7z M321.1,37.8c-0.1,0.1-0.4,0.3-1,0.4c-1.8,0.4-2.9-1.5-1.9-3.2c0.3-0.4,0.5-0.6,0.5-0.6s-0.1,0.3-0.1,0.7
		c-0.3,1.9,0.4,3.1,2.3,2.8L321.1,37.8z M314.1,40c-0.1,0-0.3,0.1-0.7,0c-0.4-0.1-1-0.4-1.2-1c-0.2-0.5-0.1-1.2,0.3-1.6l0.1-0.1
		c0,0,0,0.2-0.1,0.4c-0.1,0.9,0.3,1.6,1,2C313.8,40,314.1,40,314.1,40z M326.3,38.8c0,0-0.1,0.1-0.2,0.2c-1.9,1.5-3.8-0.2-3-2.5
		c0.2-0.5,0.3-0.6,0.3-0.6s0,0.3,0,0.7c0.1,2,0.8,3,2.7,2.3L326.3,38.8L326.3,38.8z M323.7,34.3c-0.1,0.1-0.3,0.3-0.7,0.5
		c-1.2,0.5-2.3-0.7-1.8-2.2c0.1-0.3,0.3-0.5,0.3-0.5c0,0.4-0.1,1.1,0.2,1.8c0.4,0.7,1,0.7,1.8,0.5L323.7,34.3L323.7,34.3z M327.9,43
		c-0.1,0.1-0.2,0.3-0.6,0.5c-1.3,0.6-2.4-0.7-1.8-2.2c0.2-0.3,0.3-0.5,0.3-0.5c0,0.4,0,1.1,0.3,1.7c0.3,0.6,0.9,0.7,1.6,0.5
		L327.9,43z M330.1,46.5c-0.1,0.1-0.2,0.3-0.6,0.5c-1.3,0.6-2.4-0.7-1.8-2.2c0.2-0.3,0.3-0.5,0.3-0.5c0.1,0.1-0.1,2.4,1.4,2.3
		C329.7,46.6,330,46.5,330.1,46.5z M326.7,47.6c0,0,0,0-0.1,0.1c-0.9,0.8-1.9-0.1-1.5-1.2c0.1-0.2,0.2-0.3,0.2-0.3
		c0,0.3,0,0.7,0.2,1.1c0.2,0.4,0.6,0.4,1,0.3L326.7,47.6L326.7,47.6z M335.2,41.3c-0.1,0.1-0.3,0.3-0.7,0.5
		c-0.2,0.1-0.6,0.2-0.9,0.1c-0.8-0.2-1.4-1.2-0.9-2.4c0.2-0.3,0.3-0.5,0.3-0.5c0,0.4,0,1.2,0.3,1.8c0.2,0.5,0.6,0.6,1.1,0.6
		C334.8,41.4,335.1,41.3,335.2,41.3z M319.4,42.2c-0.1,0-0.4,0.3-0.9,0.3c-1.3,0.2-2.2-0.9-1.9-2.2c0.2-0.8,0.7-1.2,0.7-1.2
		c0,0-0.1,0.2-0.2,0.6C316.4,43.1,319.3,42.2,319.4,42.2L319.4,42.2z M330.1,36.2c-0.1,0.1-0.4,0.4-0.9,0.6
		c-1.7,0.7-3.1-0.9-2.4-2.9c0.2-0.5,0.3-0.6,0.3-0.6c0,0.1-0.6,4.1,2.6,3L330.1,36.2z M316.5,38.2c-0.1,0-0.3,0.2-0.7,0.2
		c-1.2,0.1-1.8-1.2-1-2.3c0.2-0.2,0.4-0.3,0.4-0.3c-0.1,0.4-0.4,1-0.3,1.6c0.1,0.7,0.7,0.9,1.4,0.8L316.5,38.2z M325.3,45.5
		c-0.1,0.1-0.4,0.2-0.8,0.2c-1.3,0.1-2-1.3-1.1-2.6c0.2-0.3,0.4-0.4,0.4-0.4c0,0.1-1.3,2.8,1.2,2.7L325.3,45.5L325.3,45.5z
		 M331.1,41c-0.1,0.1-0.3,0.3-0.7,0.5c-1.4,0.6-2.5-0.9-1.8-2.4c0.2-0.3,0.4-0.5,0.4-0.5s0,0.2,0,0.5c0.1,1.5,0.5,2.3,2,1.9
		L331.1,41L331.1,41z M312.2,45.1c-0.1,0.1-0.3,0.2-0.7,0.3c-1.3,0.2-2-1.2-1.1-2.4c0.2-0.3,0.4-0.3,0.4-0.3s-0.1,0.2-0.1,0.5
		c-0.2,1.3,0,2,1.4,2L312.2,45.1L312.2,45.1z M311.4,40.9c0,0,0,0-0.1,0.1c-0.1,0.1-0.2,0.2-0.4,0.2c-0.9,0.4-1.7-0.6-1.2-1.6
		c0.1-0.2,0.2-0.3,0.2-0.3s0,0.1,0,0.4c0,1,0.4,1.5,1.3,1.3L311.4,40.9L311.4,40.9z M308.9,43.3c0,0-0.1,0-0.2,0.1
		c-1.5,0.6-2.3-0.9-1.3-2.1c0.2-0.2,0.4-0.3,0.4-0.3s-0.1,0.2-0.1,0.4c-0.3,1.1-0.1,1.8,1.1,1.9L308.9,43.3L308.9,43.3z M306.8,44.7
		c0,0-0.1,0-0.1,0.1c-1.2,1-2.6-0.2-1.9-1.6c0.1-0.3,0.3-0.4,0.3-0.4l0,0.4c0.1,1.2,0.4,1.7,1.6,1.5L306.8,44.7z M304.4,46.3
		c0,0-0.1,0-0.1,0.1c-1.2,1-2.4-0.2-1.8-1.6c0.1-0.3,0.3-0.4,0.3-0.4c0,0.2-0.1,1.5,0.5,1.8c0.3,0.2,0.7,0.1,1,0L304.4,46.3
		L304.4,46.3z M315,43.2c-0.1,0.1-0.3,0.3-0.7,0.5c-1.4,0.6-2.5-0.9-1.8-2.4c0.2-0.3,0.4-0.5,0.4-0.5c0,0.5,0,1.2,0.2,1.9
		c0.3,0.7,1,0.8,1.7,0.6L315,43.2L315,43.2z M323.9,41.6c-0.1,0.1-0.3,0.3-0.7,0.5c-1.3,0.6-2.5-0.8-1.8-2.4
		c0.2-0.3,0.3-0.5,0.3-0.5s0,0.2,0,0.5c0.1,1.5,0.5,2.3,2,1.9L323.9,41.6L323.9,41.6z M332.4,29.1c-0.1,0-0.3,0.1-0.7,0
		c-0.4-0.1-0.9-0.5-1.1-1.1c-0.1-0.6,0.1-1,0.3-1.3c0.2-0.2,0.4-0.2,0.4-0.2c0,0.1-0.4,1.5,0.5,2.3C332.1,29,332.4,29.1,332.4,29.1
		L332.4,29.1z M318.2,45.8c0,0-0.1,0-0.2,0.1c-1.5,0.6-2.3-0.9-1.3-2.1c0.2-0.2,0.4-0.3,0.4-0.3c-0.1,0.4-0.3,0.9-0.2,1.5
		c0.1,0.6,0.6,0.8,1.2,0.8L318.2,45.8L318.2,45.8z M310.3,46.6c0,0-0.1,0-0.1,0.1c-1.2,1-2.4-0.2-1.8-1.6c0.1-0.3,0.3-0.4,0.3-0.4
		c0,0.2-0.1,1.5,0.5,1.8c0.3,0.2,0.7,0.1,1,0L310.3,46.6L310.3,46.6z M316.1,46.8c0,0-0.1,0-0.1,0.1c-1.2,1-2.4-0.2-1.8-1.6
		c0.1-0.3,0.3-0.4,0.3-0.4c0,0.4,0,0.9,0.2,1.4c0.3,0.5,0.8,0.6,1.3,0.4L316.1,46.8L316.1,46.8z M313.9,48c0,0-0.1,0-0.1,0.1
		c-1.2,1-2.4-0.2-1.8-1.6c0.1-0.3,0.3-0.4,0.3-0.4c0,0.4,0,0.9,0.2,1.4c0.3,0.5,0.8,0.6,1.3,0.4L313.9,48L313.9,48z M308.1,47.7
		c0,0-0.1,0-0.1,0.1c-1.2,1-2.4-0.2-1.8-1.6c0.1-0.3,0.3-0.4,0.3-0.4c0,0.2-0.1,1.5,0.5,1.8c0.3,0.2,0.7,0.1,1,0L308.1,47.7
		L308.1,47.7z M322.9,47.1c-0.1,0-0.4,0.3-0.9,0.3c-1.3,0.2-2.2-0.9-1.9-2.2c0.2-0.8,0.7-1.2,0.7-1.2c0,0-0.1,0.2-0.2,0.6
		C319.9,48,322.8,47.1,322.9,47.1z M333.1,45.1c-0.1,0-0.4,0.3-0.9,0.3c-1.3,0.2-2.2-0.9-1.9-2.2c0.2-0.8,0.7-1.2,0.7-1.2
		c0,0-0.1,0.2-0.2,0.6c-0.4,1.8,0.2,2.8,2,2.6L333.1,45.1L333.1,45.1z"/>
	<path class="st9" d="M348.4,39.5L348.4,39.5c-0.1,0-0.1-0.1,0-0.2l0.3-0.4c0.1-0.1,0.3,0,0.2,0.2l-0.3,0.4
		C348.6,39.5,348.5,39.6,348.4,39.5z M347.2,39.6c-0.2-0.1,0.1-0.3,0.1-0.5c0-0.1,0.1-0.1,0.2-0.1c0.2,0.1-0.1,0.3-0.1,0.5
		C347.4,39.6,347.3,39.6,347.2,39.6L347.2,39.6z M347.3,37.8c-0.1,0-0.1-0.1,0-0.2l0.1-0.3c0.1-0.2,0.4,0,0.3,0.1l-0.1,0.3
		C347.4,37.8,347.4,37.8,347.3,37.8L347.3,37.8L347.3,37.8z M346.1,39l0.2-0.3c0.1-0.2,0.3,0,0.2,0.2l-0.2,0.3
		C346.2,39.3,346,39.2,346.1,39z M346,37.5l0.2-0.3c0.1-0.2,0.3,0,0.2,0.2l-0.2,0.3C346.2,37.8,345.9,37.6,346,37.5z M344,39
		l0.3-0.4c0.1-0.2,0.3,0,0.2,0.2l-0.3,0.4C344.2,39.3,343.9,39.2,344,39z M344.7,37.7l0.3-0.4c0.1-0.2,0.3,0,0.2,0.2l-0.3,0.4
		C344.8,38.1,344.6,37.9,344.7,37.7L344.7,37.7z M344.6,39.5c0.1,0,0.1-0.3,0.3-0.2c0.2,0.1,0,0.3-0.1,0.4
		C344.8,39.7,344.5,39.6,344.6,39.5L344.6,39.5z M344.9,40.7c0.1,0,0.1-0.3,0.3-0.2c0.2,0.1,0,0.3-0.1,0.4
		C345,41,344.8,40.9,344.9,40.7L344.9,40.7z M342.8,40.1c0.1,0,0.1-0.3,0.3-0.2c0.2,0.1,0,0.3-0.1,0.4
		C343,40.3,342.7,40.3,342.8,40.1L342.8,40.1z M342.5,41.7l0.3-0.1c0.1-0.1,0.3,0.1,0.1,0.3l-0.3,0.1
		C342.5,42.1,342.3,41.8,342.5,41.7L342.5,41.7z M343.4,45.2l0.6-0.3c0.1,0,0.2,0,0.2,0.1c0,0.1,0,0.2-0.1,0.2c0,0,0,0,0,0l-0.6,0.3
		C343.3,45.6,343.2,45.3,343.4,45.2z M343.7,42.9l0.5-0.2c0.2-0.1,0.3,0.2,0.1,0.2l-0.5,0.2C343.7,43.3,343.5,43,343.7,42.9z
		 M341,43.5l0.4-0.1c0.2,0,0.3,0.2,0.1,0.3l-0.4,0.1C340.9,43.9,340.8,43.6,341,43.5L341,43.5z M341.3,45.1l0.4-0.1
		c0.2,0,0.3,0.2,0.1,0.3l-0.4,0.1C341.2,45.5,341.1,45.2,341.3,45.1L341.3,45.1z M336.3,49l0.3-0.1c0.2-0.1,0.3,0.2,0.1,0.3
		l-0.3,0.1C336.2,49.3,336.2,49.1,336.3,49L336.3,49z M335.4,51.3l0.5-0.4c0.2-0.1,0.3,0.1,0.2,0.2l-0.5,0.4
		C335.4,51.7,335.2,51.5,335.4,51.3L335.4,51.3z M334.6,50.5l0.4-0.4c0.2-0.1,0.3,0.1,0.2,0.2l-0.4,0.4
		C334.7,50.9,334.5,50.7,334.6,50.5z M334.2,52.8l0.2-0.3c0-0.1,0.1-0.1,0.2-0.1c0.1,0,0.1,0.1,0.1,0.2l0,0l-0.2,0.3
		C334.3,53.2,334.1,53,334.2,52.8L334.2,52.8z M339.1,46.6l0.2-0.3c0.1-0.2,0.3,0,0.2,0.2l-0.2,0.3C339.3,46.9,339,46.8,339.1,46.6z
		 M339.9,48.2c-0.1-0.1-0.1-0.2,0-0.2l0.4-0.4c0.1-0.1,0.2-0.1,0.2,0c0.1,0.1,0.1,0.2,0,0.2l0,0l-0.4,0.4
		C340.1,48.3,340,48.2,339.9,48.2L339.9,48.2z M338.5,49.3c0-0.1,0-0.2,0.1-0.2l0.3-0.1c0.1-0.1,0.3,0.1,0.1,0.3l-0.3,0.1
		C338.6,49.4,338.5,49.4,338.5,49.3L338.5,49.3z M337.4,48.7c0-0.1,0-0.1,0-0.2l0.5-0.4c0.2-0.1,0.3,0.1,0.2,0.2l-0.5,0.4
		C337.5,48.7,337.4,48.7,337.4,48.7L337.4,48.7z M341.5,46.7c0.1-0.1,0.2-0.4,0.3-0.2c0.2,0.1,0,0.3-0.1,0.4
		C341.7,46.9,341.4,46.9,341.5,46.7L341.5,46.7z M333.3,52.2L333.3,52.2c-0.1,0-0.1-0.1,0-0.2l0,0l0.5-0.6c0.1-0.1,0.3,0,0.2,0.2
		l-0.5,0.6C333.4,52.2,333.3,52.2,333.3,52.2L333.3,52.2z M340.4,46.3c-0.1-0.2,0.1-0.3,0.2-0.3c0.2-0.1,0.3,0.2,0.1,0.3l-0.1,0.1
		C340.5,46.4,340.5,46.4,340.4,46.3L340.4,46.3L340.4,46.3z M341.5,42.2l0.3-0.2c0.1-0.1,0.3,0.1,0.2,0.2l-0.3,0.2
		C341.6,42.6,341.4,42.4,341.5,42.2z M332.8,53.5l0.3-0.4c0.1-0.1,0.3,0.1,0.2,0.2l-0.3,0.4C332.9,53.8,332.7,53.6,332.8,53.5z
		 M342.3,43.6c0.1-0.4,0.7-0.3,0.6-0.1c0,0.1-0.1,0.1-0.2,0.1c-0.1,0-0.1,0-0.2,0.1C342.5,43.9,342.3,43.8,342.3,43.6z M349.4,40.9
		c-0.1,0-0.1-0.1,0-0.2l0.1-0.3c0-0.1,0.1-0.1,0.2-0.1c0.2,0.1-0.1,0.3-0.1,0.4C349.6,41,349.5,41,349.4,40.9L349.4,40.9z
		 M348.3,42.2l0.2-0.3c0.1-0.2,0.3,0,0.2,0.2l-0.2,0.3C348.4,42.5,348.2,42.3,348.3,42.2L348.3,42.2z M348.2,40.7l0.2-0.3
		c0.1-0.2,0.3,0,0.2,0.2l-0.2,0.3C348.3,41,348.1,40.8,348.2,40.7z M345.3,41.7l0.3-0.4c0.1-0.2,0.3,0,0.2,0.2l-0.3,0.4
		C345.5,42.1,345.2,41.9,345.3,41.7L345.3,41.7z M346.9,40.9l0.3-0.4c0.1-0.2,0.3,0,0.2,0.2l-0.3,0.4
		C347,41.2,346.8,41.1,346.9,40.9z M346.8,42.7c0.1,0,0.1-0.3,0.3-0.2c0.2,0.1,0,0.3-0.1,0.4C347,42.9,346.7,42.8,346.8,42.7
		L346.8,42.7z M347.1,44c-0.2-0.1,0-0.3,0.1-0.4c0-0.1,0.1-0.1,0.2,0c0.1,0,0.1,0.1,0,0.2l-0.1,0.2C347.3,44.1,347.2,44.1,347.1,44
		L347.1,44z M346.2,43.5c0.1,0,0.1-0.3,0.3-0.2c0.2,0.1,0,0.3-0.1,0.4C346.4,43.7,346.1,43.6,346.2,43.5L346.2,43.5z M345.1,42.9
		c0.1,0,0.1-0.3,0.3-0.2c0.2,0.1,0,0.3-0.1,0.4C345.3,43.1,345,43,345.1,42.9L345.1,42.9z M344.8,44.7c0-0.1,0-0.2,0.1-0.2l0.3-0.1
		c0.1-0.1,0.3,0.1,0.1,0.3l-0.3,0.1C344.9,44.8,344.8,44.7,344.8,44.7L344.8,44.7z M346.1,44.7c-0.1,0-0.1-0.1,0-0.2c0,0,0,0,0.1,0
		l0.2-0.1c0.1,0,0.2,0,0.2,0.1c0,0.1,0,0.2-0.1,0.2l-0.2,0.1C346.2,44.7,346.1,44.7,346.1,44.7L346.1,44.7z M343.3,46.5
		c-0.1,0-0.1-0.1,0-0.2c0,0,0.1,0,0.1-0.1l0.3-0.1c0.1,0,0.1,0,0.2,0.1c0,0.1,0,0.1-0.1,0.2l-0.3,0.1
		C343.4,46.5,343.4,46.5,343.3,46.5z M340.8,48.5c-0.1,0-0.1-0.1,0-0.2c0,0,0,0,0,0l0.5-0.4c0.1,0,0.1,0,0.2,0c0,0.1,0,0.1,0,0.2
		l0,0l-0.5,0.4C341,48.5,340.9,48.5,340.8,48.5L340.8,48.5z M338.9,48l-0.1-0.1l0.1-0.1c0.1-0.1,0.3,0,0.2,0.2l-0.1,0.1L338.9,48z
		 M343.7,44.3c-0.1-0.2,0.1-0.3,0.2-0.3c0.1-0.1,0.3,0.1,0.2,0.2l-0.1,0.1C343.8,44.4,343.8,44.4,343.7,44.3L343.7,44.3z
		 M338.4,50.4c-0.1-0.1-0.1-0.2,0-0.2l0,0l0.1-0.1c0.1-0.1,0.3,0.1,0.2,0.2l-0.1,0.1C338.6,50.4,338.5,50.4,338.4,50.4z M345.3,45.7
		c-0.1,0-0.1-0.1,0-0.2c0.1-0.2,0.3-0.3,0.5-0.2c0.1,0,0.1,0.1,0.1,0.2c0,0.1-0.1,0.1-0.2,0.1c-0.1,0-0.1,0-0.2,0.1
		C345.5,45.7,345.4,45.7,345.3,45.7C345.3,45.7,345.3,45.7,345.3,45.7z M340,46.8l0.1-0.1c0.1-0.1,0.3,0.1,0.2,0.2l-0.1,0.1
		C340,47.1,339.9,46.9,340,46.8z M342.2,45.4l0.2,0c0.2-0.1,0.3,0.2,0.1,0.3l-0.2,0C342.1,45.7,342,45.4,342.2,45.4L342.2,45.4z
		 M342.5,48c-0.1,0-0.1-0.1,0-0.2l0.2-0.3c0-0.1,0.1-0.1,0.2,0c0.1,0,0.1,0.1,0,0.2l0,0l-0.2,0.3C342.7,48,342.6,48,342.5,48
		L342.5,48z M339.5,48.9l0.2-0.3c0-0.1,0.1-0.1,0.2,0c0.1,0,0.1,0.1,0,0.2l0,0l-0.2,0.3C339.6,49.2,339.4,49,339.5,48.9L339.5,48.9z
		 M343.7,41.3c0.1,0,0.1-0.3,0.3-0.2c0.2,0.1,0,0.3-0.1,0.4C343.9,41.5,343.6,41.5,343.7,41.3L343.7,41.3z"/>
</g>
<g>
	<path class="st18" d="M128.1,310l-14.7,1.9l25-48.7c2.2-4.2,0.8-8-1.7-4.6l-12.3,16.5L81.9,332c-2.1,2.8-2.4,7.4-0.6,7l13.4-2.4
		l-25,48.7c-2.2,4.2-0.8,7.9,1.7,4.7l19.6-25.5l36.5-47.5C129.5,314.4,129.9,309.7,128.1,310L128.1,310z"/>
	<path class="st19" d="M127.4,317.1l-36.5,47.5l33.4-89.4l12.3-16.5c2.5-3.4,3.9,0.4,1.7,4.6l-25,48.7l14.7-1.9
		C129.9,309.7,129.5,314.4,127.4,317.1L127.4,317.1z M102.4,375.4l-4-1.7l6-9.5c1.2-1.9,1.8-4.5,1.3-5.8c-0.5-1.3-1.8-0.9-3,0.9
		l-9.4,14.9c-1.9,3-1.8,5.5-0.7,6.5l4,1.7l-6.1,9.8c-1.2,1.9-1.8,4.5-1.3,5.8c0.5,1.3,1.8,0.9,3-1l9.5-15.2
		C103.2,379.4,103.6,375.9,102.4,375.4L102.4,375.4z"/>
	<path class="st18" d="M118.9,250.5c-0.5-1.3-1.8-0.9-3,1l-9.5,15.2c-1.6,2.5-2,6-0.7,6.5l4,1.5l-6.1,9.7c-1.2,1.9-1.8,4.5-1.3,5.8
		c0.5,1.3,1.8,0.9,3-1l9.5-15.2c1.6-2.5,2-6,0.7-6.5l-4.1-1.5l6.1-9.7C118.7,254.4,119.3,251.8,118.9,250.5z"/>
</g>
<g>
	<path class="st19" d="M407.3,292.9l-8.3,11l-15.5-38.7c-1.3-3.4-4.7-4.1-4.1-0.9l2.8,15.8l9.6,54.3c0.5,2.6,3.2,4.9,4.2,3.5
		l7.1-10.3l15.6,38.7c1.3,3.3,4.6,4,4.1,0.9l-3.9-24.7l-7.3-46C411.1,293.9,408.3,291.5,407.3,292.9L407.3,292.9z"/>
	<path class="st18" d="M411.5,296.5l7.3,46l-36.6-62.4l-2.8-15.8c-0.6-3.2,2.8-2.5,4.1,0.9l15.5,38.7l8.3-11
		C408.3,291.5,411.1,293.9,411.5,296.5L411.5,296.5z M433.3,339.5l-3.7,2l-2.3-8.3c-0.5-1.6-1.8-3.2-2.9-3.5
		c-1.2-0.3-1.7,0.8-1.3,2.4l3.6,13c0.7,2.6,2.4,3.7,3.8,3.4l3.7-2l2.4,8.5c0.5,1.6,1.8,3.2,2.9,3.4c1.2,0.3,1.7-0.8,1.3-2.5
		l-3.7-13.2C436.5,340.7,434.4,338.8,433.3,339.5L433.3,339.5z"/>
	<path class="st19" d="M362.6,272.9c-1.2-0.3-1.7,0.8-1.3,2.5l3.7,13.2c0.6,2.2,2.6,4,3.8,3.3l3.6-2.1l2.4,8.4
		c0.5,1.6,1.8,3.2,2.9,3.4c1.2,0.3,1.7-0.8,1.3-2.5l-3.7-13.2c-0.6-2.2-2.7-4-3.8-3.4l-3.6,2.1l-2.4-8.4
		C365.1,274.7,363.8,273.2,362.6,272.9z"/>
</g>
<g>
	<path class="st19" d="M446.4,148l-8.3,9.3l-11.3-37.5c-1-3.3-4-4.2-3.7-1.2l1.4,14.9l4.8,51.4c0.2,2.5,2.6,4.9,3.6,3.7l7.2-8.8
		l11.3,37.5c1,3.2,3.9,4.2,3.7,1.3l-1.8-23.3l-3.3-43.5C449.7,149.3,447.4,146.8,446.4,148L446.4,148z"/>
	<path class="st18" d="M449.9,151.7l3.3,43.5l-28.7-61.7l-1.4-14.9c-0.3-3,2.7-2,3.7,1.2l11.3,37.5l8.3-9.3
		C447.4,146.8,449.7,149.3,449.9,151.7L449.9,151.7z M466.6,193.8l-3.5,1.5l-1.5-8c-0.3-1.6-1.4-3.1-2.4-3.5c-1-0.4-1.6,0.6-1.4,2.1
		l2.3,12.5c0.5,2.5,1.9,3.7,3.2,3.5l3.5-1.5l1.5,8.2c0.3,1.6,1.4,3.1,2.4,3.5c1,0.4,1.6-0.6,1.3-2.2l-2.4-12.7
		C469.4,195.3,467.7,193.4,466.6,193.8L466.6,193.8z"/>
	<path class="st19" d="M407.2,124.9c-1-0.4-1.6,0.6-1.3,2.2l2.4,12.7c0.4,2.1,2.1,4,3.2,3.5l3.4-1.6l1.5,8.1
		c0.3,1.6,1.4,3.1,2.4,3.5c1,0.4,1.6-0.6,1.3-2.2l-2.4-12.7c-0.4-2.1-2.1-4-3.2-3.5l-3.4,1.6l-1.5-8.1
		C409.3,126.8,408.2,125.3,407.2,124.9z"/>
</g>
<g>
	<path class="st19" d="M60.2,138.6l12.9,2.8l-20.3,23.3c-1.8,2-0.4,4.7,1.7,3.3l10.3-6.9l35.3-23.7c1.7-1.1,1.9-3.9,0.3-4.2
		l-11.7-2.2l20.3-23.4c1.8-2,0.4-4.7-1.6-3.4L90.9,115l-30.4,19.5C58.8,135.5,58.6,138.3,60.2,138.6L60.2,138.6z"/>
	<path class="st18" d="M60.5,134.4L90.9,115l-26.3,46.3l-10.3,6.9c-2.1,1.4-3.4-1.3-1.7-3.3L73,141.5l-12.9-2.8
		C58.6,138.3,58.8,135.5,60.5,134.4L60.5,134.4z M80.5,105.1l3.6,2.1l-5,4.2c-1,0.8-1.4,2.3-1,3.2c0.4,1,1.6,1.1,2.6,0.2l7.8-6.6
		c1.6-1.3,1.4-2.9,0.4-3.9l-3.6-2.1l5.1-4.4c1-0.8,1.4-2.3,0.9-3.2c-0.5-1-1.6-1-2.6-0.2l-7.9,6.8C79.6,102.3,79.4,104.4,80.5,105.1
		L80.5,105.1z"/>
	<path class="st19" d="M70.3,178c0.4,0.9,1.6,1,2.6,0.2l7.9-6.8c1.3-1.1,1.5-3.2,0.4-3.9l-3.6-2l5-4.3c1-0.8,1.4-2.3,0.9-3.2
		c-0.5-1-1.6-1-2.6-0.2l-7.9,6.8c-1.3,1.1-1.5,3.2-0.4,3.8l3.6,2l-5,4.3C70.2,175.6,69.8,177.1,70.3,178z"/>
</g>
</svg>
