<?xml version="1.0" encoding="utf-8"?>
<!-- Generator: Adobe Illustrator 24.3.0, SVG Export Plug-In . SVG Version: 6.00 Build 0)  -->
<svg version="1.1" id="Layer_1" xmlns="http://www.w3.org/2000/svg" xmlns:xlink="http://www.w3.org/1999/xlink" x="0px" y="0px"
	 viewBox="0 0 512 512" style="enable-background:new 0 0 512 512;" xml:space="preserve">
<style type="text/css">
	.st0{fill:#D2D5DF;}
	.st1{fill:#8E96AD;}
	.st2{fill:#C7CBD6;}
	.st3{fill:#2A2E3A;}
	.st4{fill:#4B5267;}
	.st5{fill:#6C7694;}
	.st6{fill:#312C2C;}
	.st7{fill:#CDD1F9;}
	.st8{fill:#B6BCEF;}
	.st9{fill:#7C80C1;}
	.st10{fill:#424699;}
	.st11{fill:#5562AD;}
	.st12{fill:#252F8C;}
	.st13{fill:#241A22;}
	.st14{fill:#5354A6;}
	.st15{fill:#F9B46F;}
	.st16{fill:#F99B39;}
	.st17{fill:#FFFFFF;}
	.st18{fill:#FFE69D;}
	.st19{fill:#FFBE00;}
</style>
<g>
	<path class="st0" d="M141,61.8V35.4c0-9.7-7.9-17.7-17.7-17.7c-9.7,0-17.7,7.9-17.7,17.7v26.5H141z M158.6,167.7v-26.5
		c0-9.7-7.9-17.7-17.7-17.7c-9.8,0-17.7,7.9-17.7,17.7v26.5H158.6z M388,167.7v-26.5c0-9.7-7.9-17.7-17.7-17.7s-17.7,7.9-17.7,17.7
		v26.5H388z M405.6,61.8V35.4c0-9.7-7.9-17.7-17.7-17.7c-9.7,0-17.7,7.9-17.7,17.7v26.5H405.6z"/>
</g>
<path class="st1" d="M361.5,326.4v79.4c0,14.6-11.9,26.5-26.5,26.5h-61.7V326.4H361.5z"/>
<path class="st2" d="M273.3,300h88.2c4.9,0,8.8,3.9,8.8,8.8v17.7c0,4.9-3.9,8.8-8.8,8.8h-88.2L273.3,300L273.3,300z"/>
<path class="st1" d="M149.8,326.4v79.4c0,14.6,11.9,26.5,26.5,26.5H238V326.4H149.8z"/>
<path class="st2" d="M238,300h-88.2c-4.9,0-8.8,3.9-8.8,8.8v17.7c0,4.9,3.9,8.8,8.8,8.8H238V300z"/>
<path class="st3" d="M141.5,86.5l10.5-14.2l94.1,70.6l-10.5,14.2L141.5,86.5z M265.1,142.9l94.1-70.6l10.5,14.1l-94.1,70.6
	L265.1,142.9z M141.5,192.4l10.5-14.2l94.1,70.6L235.6,263L141.5,192.4z M265.1,248.7l94.1-70.6l10.5,14.2l-94.1,70.6L265.1,248.7z"
	/>
<path class="st4" d="M238,0h35.2c4.9,0,8.8,3.9,8.8,8.8v494c0,4.9-3.9,8.8-8.8,8.8H238c-4.9,0-8.8-3.9-8.8-8.8V8.9
	C229.2,4,233.1,0,238,0z"/>
<path class="st5" d="M96.9,52.9h317.5c4.9,0,8.8,3.9,8.8,8.8v17.7c0,4.9-3.9,8.8-8.8,8.8H96.9c-4.9,0-8.8-3.9-8.8-8.8V61.8
	C88.1,57,92,52.9,96.9,52.9z"/>
<path class="st5" d="M114.6,158.8h282.3c4.9,0,8.8,3.9,8.8,8.8v17.7c0,4.9-3.9,8.8-8.8,8.8H114.6c-4.9,0-8.8-3.9-8.8-8.8v-17.7
	C105.7,162.8,109.7,158.8,114.6,158.8z"/>
<g>
	<path class="st6" d="M335.6,57.4l-7.8-5.6c-0.2-0.2-0.4-0.4-0.4-0.7l0.2-4.9c0-0.5,0.4-0.8,0.9-0.8s0.8,0.4,0.8,0.9l-0.2,4.3
		l7.3,5.3c0.4,0.3,0.5,0.8,0.2,1.2C336.4,57.6,336,57.7,335.6,57.4L335.6,57.4L335.6,57.4z"/>
	<path class="st6" d="M342,62.2c-0.3-4.9-5.6-4.8-5.8-4.7c-0.5,0-0.9-0.3-0.9-0.8c0-0.5,0.3-0.9,0.8-0.9l0,0
		c2.5-0.1,7.3,1.1,7.6,6.3c0,0.5-0.3,0.9-0.8,0.9C342.4,63.1,342,62.7,342,62.2z"/>
	<path class="st6" d="M336,65.9c-0.3-0.3-0.3-0.9,0-1.2c3.4-3.5-0.3-7.3-0.4-7.4c-0.3-0.3-0.3-0.9,0-1.2c0.3-0.3,0.9-0.3,1.2,0
		c1.8,1.8,4.1,6.1,0.5,9.9C336.9,66.3,336.3,66.3,336,65.9L336,65.9z"/>
	<path class="st6" d="M332,59c-0.3-0.4-0.3-0.9,0.1-1.2c1.7-1.4,3.6-2,3.7-2c0.5-0.1,0.9,0.2,1,0.6c0.1,0.5-0.2,0.9-0.6,1
		c0,0-1.7,0.4-3,1.6C333,59.4,332.5,59.3,332,59L332,59z M338.8,47.4l-0.6-4.9c-0.1-0.5,0.3-0.9,0.7-0.9c0.5-0.1,0.9,0.3,0.9,0.7
		l0,0l0.5,4.3l8.2,3.9c0.4,0.2,0.6,0.7,0.4,1.1c-0.2,0.4-0.7,0.6-1.1,0.4l-8.6-4.1C339,48,338.8,47.8,338.8,47.4z"/>
	<path class="st6" d="M347.3,51.7c-0.1-0.5,0.2-0.9,0.7-1c2.5-0.5,7.3-0.1,8.6,5.1c0.1,0.5-0.2,0.9-0.6,1c-0.5,0.1-0.9-0.2-1-0.6
		c-1-4.8-6.3-3.7-6.5-3.7C348,52.5,347.4,52.1,347.3,51.7z"/>
	<path class="st6" d="M349.6,60.7L349.6,60.7c-0.4-0.3-0.5-0.8-0.2-1.2c2.8-3.9-1.4-7.1-1.7-7.3c-0.4-0.3-0.5-0.8-0.2-1.2
		c0.3-0.4,0.8-0.5,1.2-0.2l0,0c2.1,1.4,5.1,5.4,2.1,9.7C350.5,60.9,350,61,349.6,60.7L349.6,60.7z"/>
	<path class="st6" d="M343.6,53.4c-0.3-0.4-0.2-0.9,0.2-1.2l0,0c2-1.3,4.2-1.6,4.3-1.6c0.5,0,0.9,0.3,0.9,0.8c0,0.5-0.3,0.9-0.8,0.9
		c0,0-2,0.1-3.5,1.2C344.4,53.9,343.8,53.7,343.6,53.4L343.6,53.4L343.6,53.4z"/>
	<path class="st7" d="M356.9,30.2c-9,14.4-25.6,22.6-51.9,16.2l0,0l-24.3,13.6l-12.1-7l35.5-12.2c23.9-25.1,38.7-25.4,38.7-25.4
		c2.2-4.4,5.5-5.3,5.5-5.4L347.5,5c14.9-1.1,18.6,7.8,18.6,7.8l1.8,1.9l-1.9,3.8c0,0-3.6,1.4-6,5.9
		C359.6,25.3,358.6,27.5,356.9,30.2L356.9,30.2z"/>
	<path class="st8" d="M356.9,30.2c-9,14.5-25.8,22.5-51.9,16.2l0,0l-24.3,13.6l-12.1-7l4.8-1.7l9.2,5.3L306.9,43l0,0
		c26.2,6.3,42.9-1.8,51.9-16.2c0.2-0.2,0.3-0.5,0.4-0.7C358.7,27.2,358,28.5,356.9,30.2L356.9,30.2z M361.9,21
		c2-3.8,4.9-5.4,5.7-5.8l-1.6,3.2c0,0-2.7,1-5,4.2C361.5,22,361.7,21.4,361.9,21L361.9,21z"/>
	<path class="st9" d="M366.6,13.1c-0.4,0.4-0.7,0.8-1.4,0.8c-0.8,0-1.7-0.4-2.4-1c-0.6-0.6-1.2-1.2-2-1.8c-0.7-0.5-1.7-0.8-2.5-0.5
		c-0.2,0.1-0.4,0.2-0.7,0.4c-1,0.7-1.8,2-2,3.3c-0.8,4.5-1.2,6-5.5,8.4c-3.5,2-7.3,3.6-11.3,4.3c-4,0.6-8.3,0.3-11.8-1.7
		c-1.6-0.8-1.6-1.6-1.1-2.7c0-0.1,0.1-0.2,0.1-0.2c10.7-6.8,17-6.9,17-6.9c2.2-4.4,5.5-5.3,5.5-5.4l-0.7-5.2
		c15-1.1,18.6,7.6,18.6,7.8L366.6,13.1L366.6,13.1z"/>
	<path class="st8" d="M366.6,13.1c-0.4,0.4-0.7,0.8-1.4,0.8c-0.8,0-1.7-0.4-2.4-1c-0.9-0.8-2.6-2.9-4.4-2.3
		c-0.2,0.1-0.4,0.2-0.7,0.4c-2.9,2.2-1.6,5.5-3.6,8.5c-0.9,1.4-2.4,2.3-3.9,3.1c-3.5,2-7.3,3.6-11.3,4.3c-4,0.6-8.3,0.3-11.8-1.7
		c-1.6-0.8-1.6-1.6-1.1-2.7c0-0.1,0.1-0.2,0.1-0.3c0.1,0,0.1-0.1,0.2-0.1c0.2,0.2,0.5,0.4,0.8,0.5c3.5,2,7.9,2.4,11.8,1.7
		c4-0.6,7.8-2.4,11.3-4.3c4.1-2.3,4.7-3.7,5.6-8.4c0.3-1.3,0.9-2.5,2-3.3c0.2-0.2,0.5-0.3,0.6-0.4c0.8-0.3,1.8,0,2.5,0.5
		c1.3,0.9,2.5,2.8,4.3,2.8c0.1,0,0.2,0,0.3,0c0.6,0.8,0.8,1.3,0.8,1.3L366.6,13.1L366.6,13.1z"/>
	<path class="st10" d="M351.3,10.6v0.2c0,0-3.6,1.2-4.1,1.4c-2.2,1-3.7,2.9-4.9,5.1c0,0-6.1,0.2-16.7,6.8c-0.2-0.5,0-1,0.1-1.4
		c0-0.1,0.1-0.2,0.1-0.3c10.7-6.8,17-6.9,17-6.9c1.2-2.6,3.1-4.2,4.8-5.1l0,0C348.9,9.7,350.1,10.1,351.3,10.6L351.3,10.6z
		 M366.6,13.1c-0.3,0.4-0.6,0.7-1.1,0.8c-2-3.3-6.1-6.2-12.5-7c-1.8-0.2-3.4-0.2-5.1-0.1L347.5,5c0.5,0,1-0.1,1.6-0.1
		c13.7-0.4,17,7.8,17.1,7.9L366.6,13.1L366.6,13.1z"/>
	<path class="st9" d="M337,33.1l-32,13.2l0,0L280.7,60l-12.1-7l35.6-12.1c6.6-7,12.6-12.1,17.7-15.8L337,33.1z"/>
	<path class="st11" d="M337,33.1l-2.1,0.8l-11.4-6c-5.2,3.7-4.4,6.5-11.1,13.4l-40.2,13.7l-3.7-2.2l35.6-12.1
		c6.6-7,12.6-12.1,17.7-15.8L337,33.1z"/>
	<path class="st12" d="M281.3,59.7l-0.4,0.2l-7.8-8.5l0.5-0.2L281.3,59.7z M284.1,58.1l-0.4,0.3l-7.3-8l0.5-0.2L284.1,58.1z
		 M287,56.4l-0.4,0.2l-6.9-7.4l0.5-0.1L287,56.4z M289.9,54.9l-0.4,0.2l-6.4-7l0.5-0.2L289.9,54.9z M292.8,53.2l-0.4,0.3l-6-6.5
		l0.5-0.2L292.8,53.2z M295.7,51.6l-0.4,0.2l-5.6-6.1l0.5-0.2L295.7,51.6z M298.4,50l-0.4,0.2l-5.1-5.6l0.5-0.2L298.4,50z
		 M301.3,48.4l-0.4,0.3l-4.7-5.1l0.5-0.2L301.3,48.4z M304.2,46.8l-0.4,0.2l-4.2-4.7l0.5-0.2L304.2,46.8z M307.3,45.4l-0.5,0.2
		l-3.9-4.3l0.5-0.2L307.3,45.4z M310.5,44.1l-0.5,0.2l-4.5-4.9c0.1-0.1,0.2-0.2,0.3-0.4L310.5,44.1z"/>
	<path class="st13" d="M363.3,15.8c2-0.2,3.3-0.4,4.8-1.2c0,0,4.1,0.3,5.7,3.6l-7.5,0.1C365.4,17.4,364.7,16.3,363.3,15.8
		L363.3,15.8z"/>
	<path class="st14" d="M339,37.6c-8.3,4.9-21,6.9-40.2,2c16.5-11.1,33.1-23.8,43.7-24.2C351.5,22.7,348.2,32.2,339,37.6z"/>
	<path class="st10" d="M339,37.6c-8.3,4.9-21,6.9-40.2,2c2.3-1.4,4.4-3,6.7-4.5c16.7,3.6,28.2,1.6,35.9-3c2.7-1.6,4.9-3.5,6.3-5.6
		C347,30.8,343.8,34.8,339,37.6z"/>
	<path class="st13" d="M353.6,34.7c-1-3.5,2-6.6,2.1-12.4c0.1-2.2-0.4-4.4-1.8-6.2c-1.7-2.3-3.8-3.1-5.7-6.2l-0.7-5
		c0.5,0,1-0.1,1.6-0.1c-0.3,5,5.6,6.5,7.8,10.1c2.1,3.4,1.1,7.6,0.1,15.2C356.1,31.5,355,33.2,353.6,34.7L353.6,34.7z"/>
	<path class="st13" d="M354.2,14.4c0-0.2,0.2-0.3,0.4-0.3l0,0l13.9,1.9c0.2,0,0.3,0.2,0.3,0.4c0,0.2-0.2,0.3-0.4,0.3l-13.9-1.9
		C354.3,14.8,354.2,14.6,354.2,14.4L354.2,14.4L354.2,14.4z"/>
	<ellipse class="st13" cx="361.3" cy="15.2" rx="1.7" ry="1.7"/>
	<circle class="st15" cx="361.3" cy="15.2" r="1"/>
	<path class="st16" d="M362.1,15.8c-0.3,0.5-1,0.6-1.4,0.3c-0.8-0.5-0.5-1.8,0.3-2C360.5,15,361.3,16,362.1,15.8L362.1,15.8z"/>
	<ellipse class="st6" cx="361.3" cy="15.2" rx="0.6" ry="0.6"/>
	<path class="st17" d="M361.2,15.1c-0.2-0.1,0-0.5,0.2-0.3C361.6,14.9,361.4,15.2,361.2,15.1z"/>
	<path class="st12" d="M338.9,24.4c-0.1,0.1-0.4,0.3-1,0.4c-1.9,0.4-3-1.6-2-3.3c0.3-0.4,0.5-0.6,0.5-0.6c0,0.1-1.2,4,2.3,3.6
		L338.9,24.4z M328.5,25.6c-0.1,0-0.4,0.1-0.9-0.1c-0.5-0.1-1.2-0.7-1.3-1.4c-0.2-0.8,0.1-1.3,0.4-1.7c0.2-0.3,0.5-0.4,0.5-0.4
		s-0.1,0.2-0.1,0.5c-0.2,1,0,2.1,0.8,2.7C328.2,25.5,328.5,25.6,328.5,25.6L328.5,25.6z M343.7,25.2c0,0-0.1,0.1-0.2,0.2
		c-2,1.6-4-0.2-3.1-2.6c0.2-0.5,0.3-0.6,0.3-0.6c0,0.1-0.6,4.2,2.7,3.1L343.7,25.2z M341.3,19.9c0,0-0.1,0.1-0.2,0.2
		c-2,1.6-3.9-0.2-3.1-2.6c0.2-0.5,0.3-0.6,0.3-0.6s0,0.3,0,0.7c0.1,2.1,0.8,3,2.8,2.4L341.3,19.9L341.3,19.9z M346.2,30.4
		c-0.1,0-1,1-2.2,0.7c-1-0.3-1.8-1.4-1.2-3.1c0.2-0.5,0.3-0.6,0.3-0.6c0.1,0.1-0.6,4.2,2.7,3.1L346.2,30.4L346.2,30.4z M338.1,29.1
		c0,0-0.1,0.1-0.2,0.3c-1.4,1.3-3,1-3.7-0.1c-0.5-0.7-0.6-1.7-0.3-2.5c0.1-0.6,0.3-0.8,0.3-0.8c0,0.5-0.1,1.9,0.6,3
		c0.2,0.3,0.6,0.6,1,0.8c0.4,0.1,0.8,0.1,1.1,0C337.5,29.5,337.9,29.3,338.1,29.1L338.1,29.1z M346,23.7c0,0-0.1,0.1-0.3,0.1
		c-2.3,1.1-3.8-1.1-2.5-3.2c0.3-0.4,0.5-0.5,0.5-0.5s-0.1,0.2-0.2,0.7C342.8,24.5,345.9,23.6,346,23.7L346,23.7z M343.3,18.6
		c-0.1,0.1-0.3,0.2-0.7,0.3c-1.3,0.2-2.1-1.2-1.2-2.5c0.2-0.3,0.4-0.4,0.4-0.4s-0.1,0.2-0.1,0.5C340.9,19.2,343.2,18.5,343.3,18.6
		L343.3,18.6z M332.7,23.9c-0.1,0-0.4,0.3-1,0.3c-1,0.1-1.8-0.5-2-1.4c-0.1-0.9,0.3-1.7,0.5-2c0.3-0.4,0.5-0.5,0.5-0.5
		c0,0.1-1.7,3.7,1.7,3.5L332.7,23.9L332.7,23.9z M347,27.2c0,0-0.1,0-0.1,0.1c-1.2,0.9-2.5-0.2-1.9-1.6c0.1-0.3,0.3-0.4,0.3-0.4
		c0,0.4,0,0.9,0.2,1.4c0.3,0.5,0.7,0.6,1.3,0.4H347L347,27.2z M341.7,33.2c-0.1,0.1-0.3,0.3-0.7,0.5c-1.3,0.6-2.6-0.8-1.9-2.5
		c0.2-0.3,0.4-0.5,0.4-0.5c0.1,0.2-0.4,3.2,2.1,2.5H341.7L341.7,33.2z M339.2,36.5c0,0-0.1,0-0.2,0.1c-1.3,1-2.7-0.2-2-1.8
		c0.1-0.3,0.3-0.4,0.3-0.4s0,0.2,0,0.4c0,1.2,0.4,1.9,1.7,1.6L339.2,36.5L339.2,36.5z M341.1,28.1c-0.1,0.1-0.3,0.3-0.7,0.5
		c-1.4,0.6-2.6-0.8-1.9-2.5c0.2-0.3,0.3-0.5,0.3-0.5s0,0.2,0,0.5c0.1,1.6,0.5,2.4,2.1,2H341.1L341.1,28.1z M322.9,30.3
		c-0.1,0.1-0.4,0.3-1,0.4c-1.9,0.4-3-1.6-2-3.3c0.3-0.4,0.5-0.6,0.5-0.6s-0.1,0.3-0.1,0.7c-0.3,2,0.4,3.2,2.4,2.9L322.9,30.3z
		 M315.7,32.6c-0.1,0-0.3,0.1-0.7,0c-0.4-0.1-1-0.4-1.2-1c-0.2-0.5-0.1-1.2,0.3-1.7l0.1-0.1c0,0,0,0.2-0.1,0.4
		c-0.1,0.9,0.3,1.7,1,2.1C315.4,32.6,315.7,32.6,315.7,32.6z M328.3,31.3c0,0-0.1,0.1-0.2,0.2c-2,1.6-3.9-0.2-3.1-2.6
		c0.2-0.5,0.3-0.6,0.3-0.6s0,0.3,0,0.7c0.1,2.1,0.8,3.1,2.8,2.4L328.3,31.3L328.3,31.3z M325.6,26.7c-0.1,0.1-0.3,0.3-0.7,0.5
		c-1.2,0.5-2.4-0.7-1.9-2.3c0.1-0.3,0.3-0.5,0.3-0.5c0,0.4-0.1,1.1,0.2,1.9c0.4,0.7,1,0.7,1.9,0.5L325.6,26.7L325.6,26.7z M330,35.7
		c-0.1,0.1-0.2,0.3-0.6,0.5c-1.3,0.6-2.5-0.7-1.9-2.3c0.2-0.3,0.3-0.5,0.3-0.5c0,0.4,0,1.1,0.3,1.8s0.9,0.7,1.7,0.5H330z
		 M332.2,39.3c-0.1,0.1-0.2,0.3-0.6,0.5c-1.3,0.6-2.5-0.7-1.9-2.3c0.2-0.3,0.3-0.5,0.3-0.5c0.1,0.1-0.1,2.5,1.4,2.4
		C331.8,39.4,332.1,39.3,332.2,39.3z M328.7,40.4c0,0,0,0-0.1,0.1c-0.9,0.8-2-0.1-1.6-1.2c0.1-0.2,0.2-0.3,0.2-0.3
		c0,0.3,0,0.7,0.2,1.1c0.2,0.4,0.6,0.4,1,0.3L328.7,40.4L328.7,40.4z M337.5,33.9c-0.1,0.1-0.3,0.3-0.7,0.5
		c-0.2,0.1-0.6,0.2-0.9,0.1c-0.8-0.2-1.4-1.2-0.9-2.5c0.2-0.3,0.3-0.5,0.3-0.5c0,0.4,0,1.2,0.3,1.9c0.2,0.5,0.6,0.6,1.1,0.6
		C337.1,34,337.4,33.9,337.5,33.9z M321.2,34.8c-0.1,0-0.4,0.3-0.9,0.3c-1.3,0.2-2.3-0.9-2-2.3c0.2-0.8,0.7-1.2,0.7-1.2
		s-0.1,0.2-0.2,0.6C318.1,35.8,321.1,34.8,321.2,34.8L321.2,34.8z M332.2,28.6c-0.1,0.1-0.4,0.4-0.9,0.6c-1.8,0.7-3.2-0.9-2.5-3
		c0.2-0.5,0.3-0.6,0.3-0.6c0,0.1-0.6,4.2,2.7,3.1L332.2,28.6z M318.2,30.7c-0.1,0-0.3,0.2-0.7,0.2c-1.2,0.1-1.9-1.2-1-2.4
		c0.2-0.2,0.4-0.3,0.4-0.3c-0.1,0.4-0.4,1-0.3,1.7c0.1,0.7,0.7,0.9,1.4,0.8H318.2z M327.3,38.2c-0.1,0.1-0.4,0.2-0.8,0.2
		c-1.3,0.1-2.1-1.3-1.1-2.7c0.2-0.3,0.4-0.4,0.4-0.4c0,0.1-1.3,2.9,1.2,2.8L327.3,38.2L327.3,38.2z M333.3,33.6
		c-0.1,0.1-0.3,0.3-0.7,0.5c-1.4,0.6-2.6-0.9-1.9-2.5c0.2-0.3,0.4-0.5,0.4-0.5s0,0.2,0,0.5c0.1,1.6,0.5,2.4,2.1,2H333.3L333.3,33.6z
		 M313.7,37.8c-0.1,0.1-0.3,0.2-0.7,0.3c-1.3,0.2-2.1-1.2-1.1-2.5c0.2-0.3,0.4-0.3,0.4-0.3s-0.1,0.2-0.1,0.5c-0.2,1.3,0,2.1,1.4,2.1
		L313.7,37.8L313.7,37.8z M312.9,33.5c0,0,0,0-0.1,0.1c-0.1,0.1-0.2,0.2-0.4,0.2c-0.9,0.4-1.8-0.6-1.2-1.7c0.1-0.2,0.2-0.3,0.2-0.3
		s0,0.1,0,0.4c0,1,0.4,1.6,1.3,1.3L312.9,33.5L312.9,33.5z M310.3,36c0,0-0.1,0-0.2,0.1c-1.6,0.6-2.4-0.9-1.3-2.2
		c0.2-0.2,0.4-0.3,0.4-0.3s-0.1,0.2-0.1,0.4c-0.3,1.1-0.1,1.9,1.1,2L310.3,36L310.3,36z M308.2,37.4c0,0-0.1,0-0.1,0.1
		c-1.2,1-2.7-0.2-2-1.7c0.1-0.3,0.3-0.4,0.3-0.4v0.4c0.1,1.2,0.4,1.8,1.7,1.6H308.2z M305.7,39.1c0,0-0.1,0-0.1,0.1
		c-1.2,1-2.5-0.2-1.9-1.7c0.1-0.3,0.3-0.4,0.3-0.4c0,0.2-0.1,1.6,0.5,1.9c0.3,0.2,0.7,0.1,1,0L305.7,39.1L305.7,39.1z M316.6,35.9
		c-0.1,0.1-0.3,0.3-0.7,0.5c-1.4,0.6-2.6-0.9-1.9-2.5c0.2-0.3,0.4-0.5,0.4-0.5c0,0.5,0,1.2,0.2,2c0.3,0.7,1,0.8,1.8,0.6L316.6,35.9
		L316.6,35.9z M325.8,34.2c-0.1,0.1-0.3,0.3-0.7,0.5c-1.3,0.6-2.6-0.8-1.9-2.5c0.2-0.3,0.3-0.5,0.3-0.5s0,0.2,0,0.5
		c0.1,1.6,0.5,2.4,2.1,2H325.8L325.8,34.2z M334.6,21.3c-0.1,0-0.3,0.1-0.7,0c-0.4-0.1-0.9-0.5-1.1-1.1c-0.1-0.6,0.1-1,0.3-1.3
		c0.2-0.2,0.4-0.2,0.4-0.2c0,0.1-0.4,1.6,0.5,2.4C334.3,21.2,334.6,21.3,334.6,21.3L334.6,21.3z M319.9,38.6c0,0-0.1,0-0.2,0.1
		c-1.6,0.6-2.4-0.9-1.3-2.2c0.2-0.2,0.4-0.3,0.4-0.3c-0.1,0.4-0.3,0.9-0.2,1.6c0.1,0.6,0.6,0.8,1.2,0.8H319.9L319.9,38.6z
		 M311.8,39.4c0,0-0.1,0-0.1,0.1c-1.2,1-2.5-0.2-1.9-1.7c0.1-0.3,0.3-0.4,0.3-0.4c0,0.2-0.1,1.6,0.5,1.9c0.3,0.2,0.7,0.1,1,0
		L311.8,39.4L311.8,39.4z M317.8,39.6c0,0-0.1,0-0.1,0.1c-1.2,1-2.5-0.2-1.9-1.7c0.1-0.3,0.3-0.4,0.3-0.4c0,0.4,0,0.9,0.2,1.4
		c0.3,0.5,0.8,0.6,1.3,0.4L317.8,39.6L317.8,39.6z M315.5,40.8c0,0-0.1,0-0.1,0.1c-1.2,1-2.5-0.2-1.9-1.7c0.1-0.3,0.3-0.4,0.3-0.4
		c0,0.4,0,0.9,0.2,1.4c0.3,0.5,0.8,0.6,1.3,0.4L315.5,40.8L315.5,40.8z M309.5,40.5c0,0-0.1,0-0.1,0.1c-1.2,1-2.5-0.2-1.9-1.7
		c0.1-0.3,0.3-0.4,0.3-0.4c0,0.2-0.1,1.6,0.5,1.9c0.3,0.2,0.7,0.1,1,0L309.5,40.5L309.5,40.5z M324.8,39.9c-0.1,0-0.4,0.3-0.9,0.3
		c-1.3,0.2-2.3-0.9-2-2.3c0.2-0.8,0.7-1.2,0.7-1.2s-0.1,0.2-0.2,0.6C321.7,40.8,324.7,39.9,324.8,39.9z M335.3,37.8
		c-0.1,0-0.4,0.3-0.9,0.3c-1.3,0.2-2.3-0.9-2-2.3c0.2-0.8,0.7-1.2,0.7-1.2s-0.1,0.2-0.2,0.6c-0.4,1.9,0.2,2.9,2.1,2.7L335.3,37.8
		L335.3,37.8z"/>
	<path class="st9" d="M351.2,32L351.2,32c-0.1,0-0.1-0.1,0-0.2l0.3-0.4c0.1-0.1,0.3,0,0.2,0.2l-0.3,0.4
		C351.4,32,351.3,32.1,351.2,32z M349.9,32.1c-0.2-0.1,0.1-0.3,0.1-0.5c0-0.1,0.1-0.1,0.2-0.1c0.2,0.1-0.1,0.3-0.1,0.5
		C350.1,32.1,350,32.1,349.9,32.1L349.9,32.1z M350,30.3c-0.1,0-0.1-0.1,0-0.2l0.1-0.3c0.1-0.2,0.4,0,0.3,0.1l-0.1,0.3
		C350.1,30.3,350.1,30.3,350,30.3L350,30.3L350,30.3z M348.8,31.5l0.2-0.3c0.1-0.2,0.3,0,0.2,0.2l-0.2,0.3
		C348.9,31.8,348.7,31.7,348.8,31.5z M348.7,30l0.2-0.3c0.1-0.2,0.3,0,0.2,0.2l-0.2,0.3C348.9,30.3,348.6,30.1,348.7,30z
		 M346.6,31.5l0.3-0.4c0.1-0.2,0.3,0,0.2,0.2l-0.3,0.4C346.8,31.8,346.5,31.7,346.6,31.5z M347.3,30.2l0.3-0.4
		c0.1-0.2,0.3,0,0.2,0.2l-0.3,0.4C347.4,30.6,347.2,30.4,347.3,30.2L347.3,30.2z M347.2,32c0.1,0,0.1-0.3,0.3-0.2
		c0.2,0.1,0,0.3-0.1,0.4C347.4,32.2,347.1,32.1,347.2,32L347.2,32z M347.5,33.3c0.1,0,0.1-0.3,0.3-0.2s0,0.3-0.1,0.4
		C347.6,33.6,347.4,33.5,347.5,33.3L347.5,33.3z M345.4,32.7c0.1,0,0.1-0.3,0.3-0.2c0.2,0.1,0,0.3-0.1,0.4
		C345.6,32.9,345.3,32.9,345.4,32.7L345.4,32.7z M345.1,34.3l0.3-0.1c0.1-0.1,0.3,0.1,0.1,0.3l-0.3,0.1
		C345.1,34.7,344.9,34.4,345.1,34.3L345.1,34.3z M346,37.9l0.6-0.3c0.1,0,0.2,0,0.2,0.1s0,0.2-0.1,0.2l0,0l-0.6,0.3
		C345.9,38.3,345.8,38,346,37.9z M346.3,35.6l0.5-0.2c0.2-0.1,0.3,0.2,0.1,0.2l-0.5,0.2C346.3,36,346.1,35.7,346.3,35.6z
		 M343.5,36.2l0.4-0.1c0.2,0,0.3,0.2,0.1,0.3l-0.4,0.1C343.4,36.6,343.3,36.3,343.5,36.2L343.5,36.2z M343.8,37.8l0.4-0.1
		c0.2,0,0.3,0.2,0.1,0.3l-0.4,0.1C343.7,38.2,343.6,37.9,343.8,37.8L343.8,37.8z M338.7,41.9l0.3-0.1c0.2-0.1,0.3,0.2,0.1,0.3
		l-0.3,0.1C338.6,42.2,338.6,42,338.7,41.9L338.7,41.9z M337.7,44.2l0.5-0.4c0.2-0.1,0.3,0.1,0.2,0.2l-0.5,0.4
		C337.7,44.7,337.5,44.4,337.7,44.2L337.7,44.2z M336.9,43.4l0.4-0.4c0.2-0.1,0.3,0.1,0.2,0.2l-0.4,0.4
		C337,43.8,336.8,43.6,336.9,43.4z M336.5,45.8l0.2-0.3c0-0.1,0.1-0.1,0.2-0.1s0.1,0.1,0.1,0.2l0,0l-0.2,0.3
		C336.6,46.2,336.4,46,336.5,45.8L336.5,45.8z M341.5,39.4l0.2-0.3c0.1-0.2,0.3,0,0.2,0.2l-0.2,0.3
		C341.8,39.7,341.4,39.6,341.5,39.4z M342.4,41c-0.1-0.1-0.1-0.2,0-0.2l0.4-0.4c0.1-0.1,0.2-0.1,0.2,0c0.1,0.1,0.1,0.2,0,0.2l0,0
		l-0.4,0.4C342.6,41.1,342.5,41,342.4,41L342.4,41z M340.9,42.2c0-0.1,0-0.2,0.1-0.2l0.3-0.1c0.1-0.1,0.3,0.1,0.1,0.3l-0.3,0.1
		C341,42.3,340.9,42.3,340.9,42.2L340.9,42.2z M339.8,41.6c0-0.1,0-0.1,0-0.2l0.5-0.4c0.2-0.1,0.3,0.1,0.2,0.2l-0.5,0.4
		C339.9,41.6,339.8,41.6,339.8,41.6L339.8,41.6z M344,39.5c0.1-0.1,0.2-0.4,0.3-0.2c0.2,0.1,0,0.3-0.1,0.4
		C344.2,39.7,343.9,39.7,344,39.5L344,39.5z M335.6,45.2L335.6,45.2c-0.1,0-0.1-0.1,0-0.2l0,0l0.5-0.6c0.1-0.1,0.3,0,0.2,0.2
		l-0.5,0.6C335.7,45.2,335.6,45.2,335.6,45.2L335.6,45.2z M342.9,39.1c-0.1-0.2,0.1-0.3,0.2-0.3c0.2-0.1,0.3,0.2,0.1,0.3l-0.1,0.1
		C343,39.2,343,39.2,342.9,39.1L342.9,39.1L342.9,39.1z M344,34.8l0.3-0.2c0.1-0.1,0.3,0.1,0.2,0.2l-0.3,0.2
		C344.1,35.2,343.9,35,344,34.8z M335,46.5l0.3-0.4c0.1-0.1,0.3,0.1,0.2,0.2l-0.3,0.4C335.1,46.8,334.9,46.6,335,46.5z M344.9,36.3
		c0.1-0.4,0.7-0.3,0.6-0.1c0,0.1-0.1,0.1-0.2,0.1c-0.1,0-0.1,0-0.2,0.1C345.1,36.6,344.9,36.5,344.9,36.3z M352.2,33.5
		c-0.1,0-0.1-0.1,0-0.2l0.1-0.3c0-0.1,0.1-0.1,0.2-0.1c0.2,0.1-0.1,0.3-0.1,0.4C352.4,33.6,352.3,33.6,352.2,33.5L352.2,33.5z
		 M351.1,34.8l0.2-0.3c0.1-0.2,0.3,0,0.2,0.2l-0.2,0.3C351.2,35.1,351,34.9,351.1,34.8L351.1,34.8z M351,33.3l0.2-0.3
		c0.1-0.2,0.3,0,0.2,0.2l-0.2,0.3C351.1,33.6,350.9,33.4,351,33.3z M348,34.3l0.3-0.4c0.1-0.2,0.3,0,0.2,0.2l-0.3,0.4
		C348.2,34.7,347.9,34.5,348,34.3L348,34.3z M349.6,33.5l0.3-0.4c0.1-0.2,0.3,0,0.2,0.2l-0.3,0.4C349.7,33.8,349.5,33.7,349.6,33.5z
		 M349.5,35.4c0.1,0,0.1-0.3,0.3-0.2s0,0.3-0.1,0.4C349.7,35.6,349.4,35.5,349.5,35.4L349.5,35.4z M349.8,36.7
		c-0.2-0.1,0-0.3,0.1-0.4c0-0.1,0.1-0.1,0.2,0c0.1,0,0.1,0.1,0,0.2l-0.1,0.2C350,36.8,349.9,36.8,349.8,36.7L349.8,36.7z
		 M348.9,36.2c0.1,0,0.1-0.3,0.3-0.2c0.2,0.1,0,0.3-0.1,0.4C349.1,36.4,348.8,36.3,348.9,36.2L348.9,36.2z M347.8,35.6
		c0.1,0,0.1-0.3,0.3-0.2c0.2,0.1,0,0.3-0.1,0.4C348,35.8,347.6,35.7,347.8,35.6L347.8,35.6z M347.4,37.4c0-0.1,0-0.2,0.1-0.2
		l0.3-0.1c0.1-0.1,0.3,0.1,0.1,0.3l-0.3,0.1C347.5,37.5,347.4,37.4,347.4,37.4L347.4,37.4z M348.8,37.4c-0.1,0-0.1-0.1,0-0.2
		c0,0,0,0,0.1,0l0.2-0.1c0.1,0,0.2,0,0.2,0.1s0,0.2-0.1,0.2l-0.2,0.1C348.9,37.4,348.8,37.4,348.8,37.4L348.8,37.4z M345.9,39.3
		c-0.1,0-0.1-0.1,0-0.2c0,0,0.1,0,0.1-0.1l0.3-0.1c0.1,0,0.1,0,0.2,0.1c0,0.1,0,0.1-0.1,0.2l-0.3,0.1C346,39.3,346,39.3,345.9,39.3z
		 M343.3,41.3c-0.1,0-0.1-0.1,0-0.2l0,0l0.5-0.4c0.1,0,0.1,0,0.2,0c0,0.1,0,0.1,0,0.2l0,0l-0.5,0.4
		C343.5,41.3,343.4,41.3,343.3,41.3L343.3,41.3z M341.3,40.8l-0.1-0.1l0.1-0.1c0.1-0.1,0.3,0,0.2,0.2l-0.1,0.1L341.3,40.8z
		 M346.3,37c-0.1-0.2,0.1-0.3,0.2-0.3c0.1-0.1,0.3,0.1,0.2,0.2l-0.1,0.1C346.4,37.1,346.4,37.1,346.3,37L346.3,37z M340.8,43.3
		c-0.1-0.1-0.1-0.2,0-0.2l0,0l0.1-0.1c0.1-0.1,0.3,0.1,0.2,0.2l-0.1,0.1C341,43.3,340.9,43.3,340.8,43.3z M348,38.5
		c-0.1,0-0.1-0.1,0-0.2c0.1-0.2,0.3-0.3,0.5-0.2c0.1,0,0.1,0.1,0.1,0.2c0,0.1-0.1,0.1-0.2,0.1s-0.1,0-0.2,0.1
		C348.2,38.5,348.1,38.5,348,38.5L348,38.5z M342.5,39.6l0.1-0.1c0.1-0.1,0.3,0.1,0.2,0.2l-0.1,0.1
		C342.5,39.9,342.4,39.7,342.5,39.6z M344.8,38.1h0.2c0.2-0.1,0.3,0.2,0.1,0.3h-0.2C344.6,38.5,344.5,38.1,344.8,38.1L344.8,38.1z
		 M345.1,40.8c-0.1,0-0.1-0.1,0-0.2l0.2-0.3c0-0.1,0.1-0.1,0.2,0c0.1,0,0.1,0.1,0,0.2l0,0l-0.2,0.3
		C345.3,40.8,345.2,40.8,345.1,40.8L345.1,40.8z M342,41.8l0.2-0.3c0-0.1,0.1-0.1,0.2,0c0.1,0,0.1,0.1,0,0.2l0,0l-0.2,0.3
		C342.1,42.1,341.9,41.9,342,41.8L342,41.8z M346.3,33.9c0.1,0,0.1-0.3,0.3-0.2s0,0.3-0.1,0.4C346.5,34.1,346.2,34.1,346.3,33.9
		L346.3,33.9z"/>
</g>
<g>
	<path class="st18" d="M123.4,311.6l-15.2,2l25.8-50.3c2.3-4.3,0.8-8.3-1.8-4.8l-12.7,17.1l-43.9,58.8c-2.2,2.9-2.5,7.6-0.6,7.2
		l13.9-2.5l-25.8,50.3c-2.3,4.3-0.8,8.2,1.8,4.9L85.1,368l37.7-49.1C124.9,316.2,125.3,311.3,123.4,311.6L123.4,311.6z"/>
	<path class="st19" d="M122.7,319L85,368.1l34.5-92.4l12.7-17.1c2.6-3.5,4,0.4,1.8,4.8l-25.8,50.3l15.2-2
		C125.3,311.3,124.9,316.2,122.7,319L122.7,319z M96.9,379.2l-4.1-1.8l6.2-9.8c1.2-2,1.9-4.7,1.3-6s-1.9-0.9-3.1,0.9L87.5,378
		c-2,3.1-1.9,5.7-0.7,6.7l4.1,1.8l-6.3,10.1c-1.2,2-1.9,4.7-1.3,6s1.9,0.9,3.1-1l9.8-15.7C97.7,383.4,98.1,379.8,96.9,379.2
		L96.9,379.2z"/>
	<path class="st18" d="M113.9,250.1c-0.5-1.3-1.9-0.9-3.1,1l-9.8,15.7c-1.7,2.6-2.1,6.2-0.7,6.7l4.1,1.6l-6.3,10
		c-1.2,2-1.9,4.7-1.3,6s1.9,0.9,3.1-1l9.8-15.7c1.7-2.6,2.1-6.2,0.7-6.7l-4.2-1.6l6.3-10C113.7,254.2,114.4,251.5,113.9,250.1z"/>
</g>
<g>
	<path class="st19" d="M412,294l-8.6,11.4l-16-40c-1.3-3.5-4.9-4.2-4.2-0.9l2.9,16.3l9.9,56.1c0.5,2.7,3.3,5.1,4.3,3.6l7.3-10.6
		l16.1,40c1.3,3.4,4.8,4.1,4.2,0.9l-4-25.5l-7.5-47.5C416,295,413.1,292.5,412,294L412,294z"/>
	<path class="st18" d="M416.4,297.7l7.5,47.5l-37.8-64.5l-2.9-16.3c-0.6-3.3,2.9-2.6,4.2,0.9l16,40L412,294
		C413.1,292.5,416,295,416.4,297.7L416.4,297.7z M438.9,342.1l-3.8,2.1l-2.4-8.6c-0.5-1.7-1.9-3.3-3-3.6c-1.2-0.3-1.8,0.8-1.3,2.5
		l3.7,13.4c0.7,2.7,2.5,3.8,3.9,3.5l3.8-2.1l2.5,8.8c0.5,1.7,1.9,3.3,3,3.5c1.2,0.3,1.8-0.8,1.3-2.6l-3.8-13.6
		C442.2,343.4,440.1,341.4,438.9,342.1L438.9,342.1z"/>
	<path class="st19" d="M365.8,273.3c-1.2-0.3-1.8,0.8-1.3,2.6l3.8,13.6c0.6,2.3,2.7,4.1,3.9,3.4l3.7-2.2l2.5,8.7
		c0.5,1.7,1.9,3.3,3,3.5c1.2,0.3,1.8-0.8,1.3-2.6l-3.8-13.6c-0.6-2.3-2.8-4.1-3.9-3.5l-3.7,2.2l-2.5-8.7
		C368.4,275.2,367.1,273.6,365.8,273.3z"/>
</g>
<g>
	<path class="st19" d="M452.5,144.2l-8.6,9.6L432.2,115c-1-3.4-4.1-4.3-3.8-1.2l1.4,15.4l5,53.1c0.2,2.6,2.7,5.1,3.7,3.8l7.4-9.1
		l11.7,38.8c1,3.3,4,4.3,3.8,1.3l-1.9-24.1l-3.4-45C455.9,145.5,453.5,143,452.5,144.2L452.5,144.2z"/>
	<path class="st18" d="M456.1,148l3.4,45l-29.7-63.8l-1.4-15.4c-0.3-3.1,2.8-2.1,3.8,1.2l11.7,38.8l8.6-9.6
		C453.5,143,455.9,145.5,456.1,148L456.1,148z M473.3,191.5l-3.6,1.6l-1.6-8.3c-0.3-1.7-1.4-3.2-2.5-3.6c-1-0.4-1.7,0.6-1.4,2.2
		l2.4,12.9c0.5,2.6,2,3.8,3.3,3.6l3.6-1.6l1.6,8.5c0.3,1.7,1.4,3.2,2.5,3.6c1,0.4,1.7-0.6,1.3-2.3l-2.5-13.1
		C476.2,193.1,474.5,191.1,473.3,191.5L473.3,191.5z"/>
	<path class="st19" d="M411.9,120.3c-1-0.4-1.7,0.6-1.3,2.3l2.5,13.1c0.4,2.2,2.2,4.1,3.3,3.6l3.5-1.7l1.6,8.4
		c0.3,1.7,1.4,3.2,2.5,3.6c1,0.4,1.7-0.6,1.3-2.3l-2.5-13.1c-0.4-2.2-2.2-4.1-3.3-3.6l-3.5,1.7l-1.6-8.4
		C414.1,122.3,413,120.7,411.9,120.3z"/>
</g>
<g>
	<path class="st19" d="M53.3,134.5l13.3,2.9l-21,24.1c-1.9,2.1-0.4,4.9,1.8,3.4l10.6-7.1l36.5-24.5c1.8-1.1,2-4,0.3-4.3l-12.1-2.3
		l21-24.2c1.9-2.1,0.4-4.9-1.7-3.5L85,110.1l-31.4,20.2C51.8,131.3,51.6,134.2,53.3,134.5L53.3,134.5z"/>
	<path class="st18" d="M53.6,130.1L85,110.1l-27.2,47.9l-10.6,7.1c-2.2,1.4-3.5-1.3-1.8-3.4l21.1-24.2l-13.3-2.9
		C51.6,134.2,51.8,131.3,53.6,130.1L53.6,130.1z M74.2,99.9L78,102l-5.2,4.3c-1,0.8-1.4,2.4-1,3.3c0.4,1,1.7,1.1,2.7,0.2l8.1-6.8
		c1.7-1.3,1.4-3,0.4-4l-3.7-2.2l5.3-4.5c1-0.8,1.4-2.4,0.9-3.3c-0.5-1-1.7-1-2.7-0.2l-8.2,7C73.3,97,73.1,99.1,74.2,99.9L74.2,99.9z
		"/>
	<path class="st19" d="M63.7,175.2c0.4,0.9,1.7,1,2.7,0.2l8.2-7c1.3-1.1,1.6-3.3,0.4-4l-3.7-2.1l5.2-4.4c1-0.8,1.4-2.4,0.9-3.3
		c-0.5-1-1.7-1-2.7-0.2l-8.2,7c-1.3,1.1-1.6,3.3-0.4,3.9l3.7,2.1l-5.2,4.4C63.6,172.7,63.2,174.3,63.7,175.2z"/>
</g>
</svg>
